SplineFontDB: 3.2
FontName: Arcomp_mono
FullName: Arcomp_mono
FamilyName: Arcomp_mono
Weight: Book
Copyright: (copyleft) 2025 GraphiX\n
Version: 1.0
ItalicAngle: 0
UnderlinePosition: -519
UnderlineWidth: 84
Ascent: 1638
Descent: 410
InvalidEm: 0
sfntRevision: 0x00010000
LayerCount: 2
Layer: 0 1 "Back" 1
Layer: 1 1 "Fore" 0
StyleMap: 0x0040
FSType: 8
OS2Version: 3
OS2_WeightWidthSlopeOnly: 0
OS2_UseTypoMetrics: 0
CreationTime: 654287073
ModificationTime: 1757651204
PfmFamily: 17
TTFWeight: 400
TTFWidth: 5
LineGap: 0
VLineGap: 0
Panose: 2 7 3 9 2 2 5 2 4 4
OS2TypoAscent: 1255
OS2TypoAOffset: 0
OS2TypoDescent: -386
OS2TypoDOffset: 0
OS2TypoLinegap: 0
OS2WinAscent: 1705
OS2WinAOffset: 0
OS2WinDescent: 615
OS2WinDOffset: 0
HheadAscent: 1705
HheadAOffset: 0
HheadDescent: -615
HheadDOffset: 0
OS2SubXSize: 1434
OS2SubYSize: 1331
OS2SubXOff: 0
OS2SubYOff: 285
OS2SupXSize: 1434
OS2SupYSize: 1331
OS2SupXOff: 0
OS2SupYOff: 865
OS2StrikeYSize: 102
OS2StrikeYPos: 530
OS2CapHeight: 1170
OS2XHeight: 866
OS2FamilyClass: 1285
OS2Vendor: 'TMC '
OS2CodePages: 400001ff.ffff0000
OS2UnicodeRanges: e0002eff.c0007843.00000009.00000000
Lookup: 1 0 0 "'locl' Localized Forms in Latin lookup 0" { "'locl' Localized Forms in Latin lookup 0 subtable"  } ['locl' ('latn' <'LTH ' > ) ]
Lookup: 1 0 0 "'locl' Localized Forms in Latin lookup 1" { "'locl' Localized Forms in Latin lookup 1 subtable"  } ['locl' ('latn' <'ROM ' > ) ]
Lookup: 4 1 0 "'ccmp' Glyph Composition/Decomposition in Arabic lookup 2" { "'ccmp' Glyph Composition/Decomposition in Arabic lookup 2 subtable"  } ['ccmp' ('arab' <'FAR ' 'MLY ' 'SND ' 'URD ' 'dflt' > ) ]
Lookup: 1 1 0 "'ccmp' Glyph Composition/Decomposition in Arabic lookup 3" { "'ccmp' Glyph Composition/Decomposition in Arabic lookup 3 subtable"  } ['ccmp' ('arab' <'FAR ' 'MLY ' 'SND ' 'URD ' 'dflt' > ) ]
Lookup: 1 1 0 "'locl' Localized Forms in Arabic lookup 4" { "'locl' Localized Forms in Arabic lookup 4 subtable"  } ['locl' ('arab' <'URD ' > ) ]

StartChar: exclam
Encoding: 33 33 1
Width: 1229
GlyphClass: 2
Flags: W
LayerCount: 2
Fore
SplineSet
608 1188 m 128,-1,1
 625 1188 625 1188 637.5 1175.5 c 128,-1,2
 650 1163 650 1163 650 1146 c 2,3,-1
 650 410 l 2,4,5
 650 393 650 393 637.5 380.5 c 128,-1,6
 625 368 625 368 608 368 c 128,-1,7
 591 368 591 368 578.5 380.5 c 128,-1,8
 566 393 566 393 566 410 c 2,9,-1
 566 1146 l 2,10,11
 566 1163 566 1163 578.5 1175.5 c 128,-1,0
 591 1188 591 1188 608 1188 c 128,-1,1
608 176 m 128,-1,13
 644 176 644 176 670 150 c 128,-1,14
 696 124 696 124 696 88 c 128,-1,15
 696 52 696 52 670 26 c 128,-1,16
 644 0 644 0 608 0 c 128,-1,17
 572 0 572 0 546 26 c 128,-1,18
 520 52 520 52 520 88 c 128,-1,19
 520 124 520 124 546 150 c 128,-1,12
 572 176 572 176 608 176 c 128,-1,13
EndSplineSet
EndChar

StartChar: quotedbl
Encoding: 34 34 2
Width: 1229
GlyphClass: 2
Flags: W
LayerCount: 2
Fore
SplineSet
424 1188 m 128,-1,1
 460 1188 460 1188 486 1162 c 128,-1,2
 512 1136 512 1136 512 1100 c 0,3,4
 512 1091.31226422 512 1091.31226422 510.251953125 1082.74414062 c 1,5,-1
 510.193359375 1082.41601562 l 1,6,-1
 465.154296875 861.60546875 l 2,7,8
 462.355628127 847.883519774 462.355628127 847.883519774 449.83583423 837.941759887 c 128,-1,9
 437.316040334 828 437.316040334 828 424 828 c 128,-1,10
 410.683020546 828 410.683020546 828 398.164720357 837.941526574 c 128,-1,11
 385.646420169 847.883053149 385.646420169 847.883053149 382.84765625 861.60546875 c 2,12,-1
 337.810546875 1082.40234375 l 1,13,-1
 337.806640625 1082.41601562 l 1,14,-1
 337.740234375 1082.74414062 l 2,15,16
 336 1091.31226422 336 1091.31226422 336 1100 c 0,17,18
 336 1136 336 1136 362 1162 c 128,-1,0
 388 1188 388 1188 424 1188 c 128,-1,1
792.03515625 1188.17089844 m 128,-1,20
 828.112792969 1188.17089844 828.112792969 1188.17089844 854.073974609 1162.2097168 c 128,-1,21
 880.03515625 1136.24853516 880.03515625 1136.24853516 880.03515625 1100.17089844 c 0,22,23
 880.03515625 1091.48166604 880.03515625 1091.48166604 878.287109375 1082.91503906 c 1,24,-1
 878.228515625 1082.58691406 l 1,25,-1
 833.189453125 861.776367188 l 2,26,27
 830.390820637 848.053878029 830.390820637 848.053878029 817.871115025 838.112388233 c 128,-1,28
 805.351409413 828.170898438 805.351409413 828.170898438 792.03515625 828.170898438 c 128,-1,29
 778.718271413 828.170898438 778.718271413 828.170898438 766.19993198 838.112256196 c 128,-1,30
 753.681592546 848.053613954 753.681592546 848.053613954 750.8828125 861.775390625 c 2,31,-1
 705.845703125 1082.57226562 l 2,32,33
 705.842285156 1082.58251953 705.842285156 1082.58251953 705.841796875 1082.58691406 c 0,34,-1
 705.783203125 1082.91503906 l 2,35,36
 704.03515625 1091.48166604 704.03515625 1091.48166604 704.03515625 1100.17089844 c 0,37,38
 704.03515625 1136.24853516 704.03515625 1136.24853516 729.996337891 1162.2097168 c 128,-1,19
 755.957519531 1188.17089844 755.957519531 1188.17089844 792.03515625 1188.17089844 c 128,-1,20
EndSplineSet
EndChar

StartChar: numbersign
Encoding: 35 35 3
Width: 1229
GlyphClass: 2
Flags: W
LayerCount: 2
Fore
SplineSet
424 1188 m 128,-1,1
 441 1188 441 1188 453.5 1175.5 c 128,-1,2
 466 1163 466 1163 466 1146 c 2,3,-1
 466 820 l 1,4,-1
 750 820 l 1,5,-1
 750 1146 l 2,6,7
 750 1163 750 1163 762.5 1175.5 c 128,-1,8
 775 1188 775 1188 792 1188 c 128,-1,9
 809 1188 809 1188 821.5 1175.5 c 128,-1,10
 834 1163 834 1163 834 1146 c 2,11,-1
 834 820 l 1,12,-1
 976 820 l 2,13,14
 993 820 993 820 1005.5 807.5 c 128,-1,15
 1018 795 1018 795 1018 778 c 128,-1,16
 1018 761 1018 761 1005.5 748.5 c 128,-1,17
 993 736 993 736 976 736 c 2,18,-1
 834 736 l 1,19,-1
 834 452 l 1,20,-1
 976 452 l 2,21,22
 993 452 993 452 1005.5 439.5 c 128,-1,23
 1018 427 1018 427 1018 410 c 128,-1,24
 1018 393 1018 393 1005.5 380.5 c 128,-1,25
 993 368 993 368 976 368 c 2,26,-1
 834 368 l 1,27,-1
 834 42 l 2,28,29
 834 25 834 25 821.5 12.5 c 128,-1,30
 809 0 809 0 792 0 c 128,-1,31
 775 0 775 0 762.5 12.5 c 128,-1,32
 750 25 750 25 750 42 c 2,33,-1
 750 368 l 1,34,-1
 466 368 l 1,35,-1
 466 42 l 2,36,37
 466 25 466 25 453.5 12.5 c 128,-1,38
 441 0 441 0 424 0 c 128,-1,39
 407 0 407 0 394.5 12.5 c 128,-1,40
 382 25 382 25 382 42 c 2,41,-1
 382 368 l 1,42,-1
 240 368 l 2,43,44
 223 368 223 368 210.5 380.5 c 128,-1,45
 198 393 198 393 198 410 c 128,-1,46
 198 427 198 427 210.5 439.5 c 128,-1,47
 223 452 223 452 240 452 c 2,48,-1
 382 452 l 1,49,-1
 382 736 l 1,50,-1
 240 736 l 2,51,52
 223 736 223 736 210.5 748.5 c 128,-1,53
 198 761 198 761 198 778 c 128,-1,54
 198 795 198 795 210.5 807.5 c 128,-1,55
 223 820 223 820 240 820 c 2,56,-1
 382 820 l 1,57,-1
 382 1146 l 2,58,59
 382 1163 382 1163 394.5 1175.5 c 128,-1,0
 407 1188 407 1188 424 1188 c 128,-1,1
466 736 m 1,60,-1
 466 452 l 1,61,-1
 750 452 l 1,62,-1
 750 736 l 1,63,-1
 466 736 l 1,60,-1
EndSplineSet
EndChar

StartChar: dollar
Encoding: 36 36 4
Width: 1229
GlyphClass: 2
Flags: W
LayerCount: 2
Fore
SplineSet
608 1188 m 128,-1,1
 625 1188 625 1188 637.5 1175.5 c 128,-1,2
 650 1163 650 1163 650 1146 c 2,3,-1
 650 1003.35742188 l 1,4,5
 812.576007801 998.6651211 812.576007801 998.6651211 902.7734375 953.56640625 c 0,6,7
 956.695138436 926.605186764 956.695138436 926.605186764 987.341709843 880.347016829 c 128,-1,8
 1017.98828125 834.088846895 1017.98828125 834.088846895 1017.98828125 778.00390625 c 0,9,10
 1017.98828125 760.606689453 1017.98828125 760.606689453 1005.68688965 748.305297852 c 128,-1,11
 993.385498047 736.00390625 993.385498047 736.00390625 975.98828125 736.00390625 c 128,-1,12
 958.591064453 736.00390625 958.591064453 736.00390625 946.289672852 748.305297852 c 128,-1,13
 933.98828125 760.606689453 933.98828125 760.606689453 933.98828125 778.00390625 c 0,14,15
 933.98828125 813.88946405 933.98828125 813.88946405 918.644511314 836.639384978 c 128,-1,16
 903.300741378 859.389305906 903.300741378 859.389305906 865.208984375 878.435546875 c 0,17,18
 793.243152438 914.418462844 793.243152438 914.418462844 650 919.28515625 c 1,19,-1
 650 635.380859375 l 1,20,21
 812.56224554 630.687067862 812.56224554 630.687067862 902.7578125 585.587890625 c 0,22,23
 956.677944004 558.62671785 956.677944004 558.62671785 987.324594446 512.368055897 c 128,-1,24
 1017.97124489 466.109393945 1017.97124489 466.109393945 1017.97851562 410.021484375 c 128,-1,25
 1017.98433206 353.934334197 1017.98433206 353.934334197 987.339720548 307.67214034 c 128,-1,26
 956.695109037 261.409946484 956.695109037 261.409946484 902.7734375 234.447265625 c 0,27,28
 812.581923908 189.348721527 812.581923908 189.348721527 650 184.65625 c 1,29,-1
 650 42 l 2,30,31
 650 25 650 25 637.5 12.5 c 128,-1,32
 625 0 625 0 608 0 c 128,-1,33
 591 0 591 0 578.5 12.5 c 128,-1,34
 566 25 566 25 566 42 c 2,35,-1
 566 184.65625 l 1,36,37
 403.418961278 189.348695979 403.418961278 189.348695979 313.224609375 234.447265625 c 0,38,39
 259.303477894 261.40820038 259.303477894 261.40820038 228.657598322 307.66721446 c 128,-1,40
 198.01171875 353.92622854 198.01171875 353.92622854 198.01171875 410.01171875 c 0,41,42
 198.01171875 427.408935547 198.01171875 427.408935547 210.313110352 439.710327148 c 128,-1,43
 222.614501953 452.01171875 222.614501953 452.01171875 240.01171875 452.01171875 c 128,-1,44
 257.408935547 452.01171875 257.408935547 452.01171875 269.710327148 439.710327148 c 128,-1,45
 282.01171875 427.408935547 282.01171875 427.408935547 282.01171875 410.01171875 c 0,46,47
 282.01171875 374.125870436 282.01171875 374.125870436 297.355627433 351.375048828 c 128,-1,48
 312.699536116 328.62422722 312.699536116 328.62422722 350.791015625 309.578125 c 0,49,50
 422.756847562 273.595209031 422.756847562 273.595209031 566 268.728515625 c 1,51,-1
 566 552.666015625 l 1,52,53
 403.417996812 557.356990726 403.417996812 557.356990726 313.224609375 602.455078125 c 0,54,55
 259.303925539 629.415420043 259.303925539 629.415420043 228.657822145 675.672418533 c 128,-1,56
 198.01171875 721.929417023 198.01171875 721.929417023 198.01171875 778.01171875 c 128,-1,57
 198.01171875 834.094689237 198.01171875 834.094689237 228.658399486 880.351707262 c 128,-1,58
 259.305080221 926.608725286 259.305080221 926.608725286 313.2265625 953.568359375 c 0,59,60
 403.422804859 998.66508683 403.422804859 998.66508683 566 1003.35742188 c 1,61,-1
 566 1146 l 2,62,63
 566 1163 566 1163 578.5 1175.5 c 128,-1,0
 591 1188 591 1188 608 1188 c 128,-1,1
566 919.28515625 m 1,64,65
 422.760089191 914.418524333 422.760089191 914.418524333 350.791015625 878.435546875 c 0,66,67
 312.698853394 859.390190689 312.698853394 859.390190689 297.355286072 836.642049962 c 128,-1,68
 282.01171875 813.893909235 282.01171875 813.893909235 282.01171875 778.01171875 c 128,-1,69
 282.01171875 742.13030027 282.01171875 742.13030027 297.355642245 719.382320391 c 128,-1,70
 312.699565739 696.634340512 312.699565739 696.634340512 350.791015625 677.587890625 c 0,71,72
 422.759815518 641.603490679 422.759815518 641.603490679 566 636.73828125 c 1,73,-1
 566 919.28515625 l 1,64,65
650 551.30859375 m 1,74,-1
 650 268.728515625 l 1,75,76
 793.247852703 273.595417371 793.247852703 273.595417371 865.20703125 309.578125 c 0,77,78
 903.297131001 328.624262273 903.297131001 328.624262273 918.638933915 351.374969014 c 128,-1,79
 933.980736829 374.125675754 933.980736829 374.125675754 933.978515625 410.013671875 c 128,-1,80
 933.975554036 445.902945721 933.975554036 445.902945721 918.629351929 468.65650889 c 128,-1,81
 903.283149823 491.41007206 903.283149823 491.41007206 865.19140625 510.45703125 c 0,82,83
 793.227563854 546.440511727 793.227563854 546.440511727 650 551.30859375 c 1,74,-1
EndSplineSet
EndChar

StartChar: percent
Encoding: 37 37 5
Width: 1229
GlyphClass: 2
Flags: W
LayerCount: 2
Fore
SplineSet
984.150390625 1187.20117188 m 0,0,1
 992.345205453 1185.580252 992.345205453 1185.580252 999.296875 1180.9453125 c 0,2,3
 1013.77115176 1171.29481808 1013.77115176 1171.29481808 1017.1829834 1154.2364502 c 128,-1,4
 1020.59481503 1137.17808231 1020.59481503 1137.17808231 1010.9453125 1122.703125 c 2,5,-1
 274.9453125 18.703125 l 2,6,7
 265.295706184 4.22834931674 265.295706184 4.22834931674 248.236816406 0.816650390625 c 128,-1,8
 231.177926629 -2.59504853549 231.177926629 -2.59504853549 216.703125 7.0546875 c 128,-1,9
 202.228349317 16.7042938162 202.228349317 16.7042938162 198.816650391 33.7631835938 c 128,-1,10
 195.404951465 50.8220733713 195.404951465 50.8220733713 205.0546875 65.296875 c 2,11,-1
 941.0546875 1169.296875 l 2,12,13
 956.621312211 1192.64600542 956.621312211 1192.64600542 984.150390625 1187.20117188 c 0,0,1
424 1188 m 128,-1,15
 517 1188 517 1188 583.5 1121.5 c 128,-1,16
 650 1055 650 1055 650 962 c 128,-1,17
 650 869 650 869 583.5 802.5 c 128,-1,18
 517 736 517 736 424 736 c 128,-1,19
 331 736 331 736 264.5 802.5 c 128,-1,20
 198 869 198 869 198 962 c 128,-1,21
 198 1055 198 1055 264.5 1121.5 c 128,-1,14
 331 1188 331 1188 424 1188 c 128,-1,15
424 1104 m 128,-1,23
 365 1104 365 1104 323.5 1062.5 c 128,-1,24
 282 1021 282 1021 282 962 c 128,-1,25
 282 903 282 903 323.5 861.5 c 128,-1,26
 365 820 365 820 424 820 c 128,-1,27
 483 820 483 820 524.5 861.5 c 128,-1,28
 566 903 566 903 566 962 c 128,-1,29
 566 1021 566 1021 524.5 1062.5 c 128,-1,22
 483 1104 483 1104 424 1104 c 128,-1,23
792 452 m 128,-1,31
 885 452 885 452 951.5 385.5 c 128,-1,32
 1018 319 1018 319 1018 226 c 128,-1,33
 1018 133 1018 133 951.5 66.5 c 128,-1,34
 885 0 885 0 792 0 c 128,-1,35
 699 0 699 0 632.5 66.5 c 128,-1,36
 566 133 566 133 566 226 c 128,-1,37
 566 319 566 319 632.5 385.5 c 128,-1,30
 699 452 699 452 792 452 c 128,-1,31
792 368 m 128,-1,39
 733 368 733 368 691.5 326.5 c 128,-1,40
 650 285 650 285 650 226 c 128,-1,41
 650 167 650 167 691.5 125.5 c 128,-1,42
 733 84 733 84 792 84 c 128,-1,43
 851 84 851 84 892.5 125.5 c 128,-1,44
 934 167 934 167 934 226 c 128,-1,45
 934 285 934 285 892.5 326.5 c 128,-1,38
 851 368 851 368 792 368 c 128,-1,39
EndSplineSet
EndChar

StartChar: ampersand
Encoding: 38 38 6
Width: 1229
GlyphClass: 2
Flags: W
LayerCount: 2
Fore
SplineSet
608 1188 m 128,-1,1
 801.914635055 1188 801.914635055 1188 902.783203125 1137.56640625 c 0,2,3
 956.705893346 1110.60543015 956.705893346 1110.60543015 987.352946673 1064.34578381 c 128,-1,4
 1018 1018.08613747 1018 1018.08613747 1018 962 c 0,5,6
 1018 945 1018 945 1005.5 932.5 c 128,-1,7
 993 920 993 920 976 920 c 128,-1,8
 959 920 959 920 946.5 932.5 c 128,-1,9
 934 945 934 945 934 962 c 0,10,11
 934 997.886101923 934 997.886101923 918.655095622 1020.63668048 c 128,-1,12
 903.310191245 1043.38725903 903.310191245 1043.38725903 865.216796875 1062.43359375 c 0,13,14
 782.085566411 1104 782.085566411 1104 608 1104 c 128,-1,15
 433.914433589 1104 433.914433589 1104 350.783203125 1062.43359375 c 0,16,17
 312.689808755 1043.38725903 312.689808755 1043.38725903 297.344904378 1020.63668048 c 128,-1,18
 282 997.886101923 282 997.886101923 282 962 c 0,19,20
 282 922.535576468 282 922.535576468 304.765625 895.77734375 c 2,21,-1
 876.115234375 224.21875 l 1,22,23
 934 307.768788333 934 307.768788333 934 410 c 0,24,25
 934 427 934 427 946.5 439.5 c 128,-1,26
 959 452 959 452 976 452 c 128,-1,27
 993 452 993 452 1005.5 439.5 c 128,-1,28
 1018 427 1018 427 1018 410 c 0,29,30
 1018 269.888053484 1018 269.888053484 931.68359375 158.90625 c 1,31,-1
 1007.99023438 69.21484375 l 2,32,33
 1019.26356636 55.9645098376 1019.26356636 55.9645098376 1017.86535645 38.6239013672 c 128,-1,34
 1016.46714653 21.2832928968 1016.46714653 21.2832928968 1003.21679688 10.009765625 c 128,-1,35
 989.966462963 -1.26356636163 989.966462963 -1.26356636163 972.625854492 0.134643554688 c 128,-1,36
 955.285246022 1.532853471 955.285246022 1.532853471 944.01171875 14.783203125 c 2,37,-1
 873.314453125 97.87890625 l 1,38,39
 758.363699323 0 758.363699323 0 608 0 c 0,40,41
 497.006528663 0 497.006528663 0 402.88301653 55.0160545162 c 128,-1,42
 308.759504396 110.032109032 308.759504396 110.032109032 253.901488679 204.287981942 c 128,-1,43
 199.043472962 298.543854852 199.043472962 298.543854852 198.001953125 409.60546875 c 0,44,45
 197.18050679 497.201452112 197.18050679 497.201452112 235.801392328 581.458195551 c 128,-1,46
 274.422277867 665.714938991 274.422277867 665.714938991 341.83203125 722.578125 c 1,47,-1
 240.787109375 841.345703125 l 2,48,49
 198 891.637946766 198 891.637946766 198 962 c 0,50,51
 198 1018.08613747 198 1018.08613747 228.647053327 1064.34578381 c 128,-1,52
 259.294106654 1110.60543015 259.294106654 1110.60543015 313.216796875 1137.56640625 c 0,53,0
 414.085364945 1188 414.085364945 1188 608 1188 c 128,-1,1
396.44921875 658.380859375 m 1,54,55
 345.147232077 613.965074991 345.147232077 613.965074991 313.263732914 545.101720823 c 128,-1,56
 281.38023375 476.238366654 281.38023375 476.238366654 281.998046875 410.39453125 c 0,57,58
 283.273372388 274.383046514 283.273372388 274.383046514 378.058790649 179.191523257 c 128,-1,59
 472.844208911 84 472.844208911 84 608 84 c 0,60,61
 728.103701058 84 728.103701058 84 819.23046875 161.44921875 c 1,62,-1
 396.44921875 658.380859375 l 1,54,55
EndSplineSet
EndChar

StartChar: quotesingle
Encoding: 39 39 7
Width: 1229
GlyphClass: 2
Flags: W
LayerCount: 2
Fore
SplineSet
608 1188 m 128,-1,1
 644 1188 644 1188 670 1162 c 128,-1,2
 696 1136 696 1136 696 1100 c 0,3,4
 696 1091.31226422 696 1091.31226422 694.251953125 1082.74414062 c 1,5,-1
 694.193359375 1082.41601562 l 1,6,-1
 649.154296875 861.60546875 l 2,7,8
 646.355628127 847.883519774 646.355628127 847.883519774 633.83583423 837.941759887 c 128,-1,9
 621.316040334 828 621.316040334 828 608 828 c 128,-1,10
 594.683020546 828 594.683020546 828 582.164720357 837.941526574 c 128,-1,11
 569.646420169 847.883053149 569.646420169 847.883053149 566.84765625 861.60546875 c 2,12,-1
 521.810546875 1082.40234375 l 1,13,-1
 521.806640625 1082.41601562 l 1,14,-1
 521.740234375 1082.74414062 l 2,15,16
 520 1091.31226422 520 1091.31226422 520 1100 c 0,17,18
 520 1136 520 1136 546 1162 c 128,-1,0
 572 1188 572 1188 608 1188 c 128,-1,1
EndSplineSet
EndChar

StartChar: parenleft
Encoding: 40 40 8
Width: 1229
GlyphClass: 2
Flags: W
LayerCount: 2
Fore
SplineSet
706.845703125 1371.42578125 m 0,0,1
 724.009469711 1368.58883212 724.009469711 1368.58883212 734.140625 1354.44726562 c 0,2,3
 742.036132812 1343.42576848 742.036132812 1343.42576848 742.036132812 1330.01074219 c 0,4,5
 742.036132812 1308.43621874 742.036132812 1308.43621874 724.455078125 1295.84375 c 0,6,7
 650.852896901 1243.1215738 650.852896901 1243.1215738 604.42644845 1149.16915767 c 128,-1,8
 558 1055.21674155 558 1055.21674155 558 962 c 2,9,-1
 558 226 l 2,10,11
 558 132.783052077 558 132.783052077 604.426523703 38.8297086719 c 128,-1,12
 650.853047406 -55.1236347332 650.853047406 -55.1236347332 724.455078125 -107.845703125 c 0,13,14
 741.974609375 -120.396865105 741.974609375 -120.396865105 741.974609375 -142.028320312 c 0,15,16
 741.974609375 -155.51165028 741.974609375 -155.51165028 734.140625 -166.447265625 c 0,17,18
 721.58946302 -183.966796875 721.58946302 -183.966796875 699.958007812 -183.966796875 c 0,19,20
 686.474677845 -183.966796875 686.474677845 -183.966796875 675.5390625 -176.1328125 c 0,21,22
 582.64927848 -109.594201085 582.64927848 -109.594201085 528.32463924 0.316859989027 c 128,-1,23
 474 110.227921063 474 110.227921063 474 226 c 2,24,-1
 474 962 l 2,25,26
 474 1077.77207894 474 1077.77207894 528.32463924 1187.68314001 c 128,-1,27
 582.64927848 1297.59420109 582.64927848 1297.59420109 675.5390625 1364.1328125 c 0,28,29
 686.508204054 1371.98925781 686.508204054 1371.98925781 699.956054688 1371.98925781 c 0,30,31
 703.432135348 1371.98925781 703.432135348 1371.98925781 706.845703125 1371.42578125 c 0,0,1
EndSplineSet
EndChar

StartChar: parenright
Encoding: 41 41 9
Width: 1229
GlyphClass: 2
Flags: W
LayerCount: 2
Fore
SplineSet
509.151367188 1371.42578125 m 0,0,1
 512.563448219 1371.98925781 512.563448219 1371.98925781 516.040039062 1371.98925781 c 0,2,3
 529.488866259 1371.98925781 529.488866259 1371.98925781 540.458007812 1364.1328125 c 0,4,5
 633.347323166 1297.59401816 633.347323166 1297.59401816 687.672196739 1187.68286937 c 128,-1,6
 741.997070312 1077.77172057 741.997070312 1077.77172057 741.997070312 962 c 2,7,-1
 741.997070312 226 l 2,8,9
 741.997070312 110.228279428 741.997070312 110.228279428 687.672196739 0.317130633897 c 128,-1,10
 633.347323166 -109.594018161 633.347323166 -109.594018161 540.458007812 -176.1328125 c 0,11,12
 529.520840877 -183.966796875 529.520840877 -183.966796875 516.038085938 -183.966796875 c 0,13,14
 494.405999406 -183.966796875 494.405999406 -183.966796875 481.856445312 -166.447265625 c 0,15,16
 474.022460938 -155.51165028 474.022460938 -155.51165028 474.022460938 -142.028320312 c 0,17,18
 474.022460938 -120.395713306 474.022460938 -120.395713306 491.541992188 -107.845703125 c 0,19,20
 565.143552469 -55.1234511386 565.143552469 -55.1234511386 611.570311391 38.8299761899 c 128,-1,21
 657.997070312 132.783403518 657.997070312 132.783403518 657.997070312 226 c 2,22,-1
 657.997070312 962 l 2,23,24
 657.997070312 1055.21639011 657.997070312 1055.21639011 611.570386645 1149.16889016 c 128,-1,25
 565.143702978 1243.1213902 565.143702978 1243.1213902 491.541992188 1295.84375 c 0,26,27
 473.9609375 1308.43621874 473.9609375 1308.43621874 473.9609375 1330.01074219 c 0,28,29
 473.9609375 1343.42795096 473.9609375 1343.42795096 481.856445312 1354.44726562 c 0,30,31
 491.986034841 1368.5888205 491.986034841 1368.5888205 509.151367188 1371.42578125 c 0,0,1
EndSplineSet
EndChar

StartChar: asterisk
Encoding: 42 42 10
Width: 1229
GlyphClass: 2
Flags: W
LayerCount: 2
Fore
SplineSet
608 1188 m 128,-1,1
 625 1188 625 1188 637.5 1175.5 c 128,-1,2
 650 1163 650 1163 650 1146 c 2,3,-1
 650 1034.74609375 l 1,4,-1
 746.349609375 1090.37304688 l 2,5,6
 753.584478767 1094.55036668 753.584478767 1094.55036668 761.8671875 1095.640625 c 0,7,8
 789.690137123 1099.30442638 789.690137123 1099.30442638 803.72265625 1075 c 0,9,10
 812.420924136 1059.93409687 812.420924136 1059.93409687 807.918212891 1043.12963867 c 128,-1,11
 803.415501645 1026.32518048 803.415501645 1026.32518048 788.349609375 1017.62695312 c 2,12,-1
 692 962 l 1,13,-1
 788.349609375 906.373046875 l 2,14,15
 803.415501645 897.674819525 803.415501645 897.674819525 807.918212891 880.870361328 c 128,-1,16
 812.420924136 864.065903132 812.420924136 864.065903132 803.72265625 849 c 128,-1,17
 795.0244289 833.93410773 795.0244289 833.93410773 778.219970703 829.431396484 c 128,-1,18
 761.415512507 824.928685239 761.415512507 824.928685239 746.349609375 833.626953125 c 2,19,-1
 650 889.25390625 l 1,20,-1
 650 778 l 2,21,22
 650 761 650 761 637.5 748.5 c 128,-1,23
 625 736 625 736 608 736 c 128,-1,24
 591 736 591 736 578.5 748.5 c 128,-1,25
 566 761 566 761 566 778 c 2,26,-1
 566 889.25390625 l 1,27,-1
 469.650390625 833.626953125 l 2,28,29
 454.584487493 824.928685239 454.584487493 824.928685239 437.780029297 829.431396484 c 128,-1,30
 420.9755711 833.93410773 420.9755711 833.93410773 412.27734375 849 c 128,-1,31
 403.579075864 864.065903132 403.579075864 864.065903132 408.081787109 880.870361328 c 128,-1,32
 412.584498355 897.674819525 412.584498355 897.674819525 427.650390625 906.373046875 c 2,33,-1
 524 962 l 1,34,-1
 427.650390625 1017.62695312 l 2,35,36
 412.584498355 1026.32518048 412.584498355 1026.32518048 408.081787109 1043.12963867 c 128,-1,37
 403.579075864 1059.93409687 403.579075864 1059.93409687 412.27734375 1075 c 0,38,39
 426.309862877 1099.30442638 426.309862877 1099.30442638 454.1328125 1095.640625 c 0,40,41
 462.415521233 1094.55036668 462.415521233 1094.55036668 469.650390625 1090.37304688 c 2,42,-1
 566 1034.74609375 l 1,43,-1
 566 1146 l 2,44,45
 566 1163 566 1163 578.5 1175.5 c 128,-1,0
 591 1188 591 1188 608 1188 c 128,-1,1
EndSplineSet
EndChar

StartChar: plus
Encoding: 43 43 11
Width: 1229
GlyphClass: 2
Flags: W
LayerCount: 2
Fore
SplineSet
608 820 m 128,-1,1
 625 820 625 820 637.5 807.5 c 128,-1,2
 650 795 650 795 650 778 c 2,3,-1
 650 452 l 1,4,-1
 976 452 l 2,5,6
 993 452 993 452 1005.5 439.5 c 128,-1,7
 1018 427 1018 427 1018 410 c 128,-1,8
 1018 393 1018 393 1005.5 380.5 c 128,-1,9
 993 368 993 368 976 368 c 2,10,-1
 650 368 l 1,11,-1
 650 42 l 2,12,13
 650 25 650 25 637.5 12.5 c 128,-1,14
 625 0 625 0 608 0 c 128,-1,15
 591 0 591 0 578.5 12.5 c 128,-1,16
 566 25 566 25 566 42 c 2,17,-1
 566 368 l 1,18,-1
 240 368 l 2,19,20
 223 368 223 368 210.5 380.5 c 128,-1,21
 198 393 198 393 198 410 c 128,-1,22
 198 427 198 427 210.5 439.5 c 128,-1,23
 223 452 223 452 240 452 c 2,24,-1
 566 452 l 1,25,-1
 566 778 l 2,26,27
 566 795 566 795 578.5 807.5 c 128,-1,0
 591 820 591 820 608 820 c 128,-1,1
EndSplineSet
EndChar

StartChar: comma
Encoding: 44 44 12
Width: 1229
GlyphClass: 2
Flags: W
LayerCount: 2
Fore
SplineSet
608 176 m 132,-1,1
 644 176 644 176 670 150 c 132,-1,2
 696 124 696 124 696 88 c 4,3,4
 696 -52.0143778589 696 -52.0143778589 610.31640625 -162.708984375 c 4,5,6
 599.667771976 -176.466003259 599.667771976 -176.466003259 582.409667969 -178.663818359 c 132,-1,7
 565.151563961 -180.861633459 565.151563961 -180.861633459 551.39453125 -170.212890625 c 132,-1,8
 537.637301457 -159.563360668 537.637301457 -159.563360668 535.439331055 -142.305786133 c 132,-1,9
 533.241360652 -125.048211598 533.241360652 -125.048211598 543.890625 -111.291015625 c 4,10,11
 582.951984324 -60.8281404895 582.951984324 -60.8281404895 600.021484375 0.38671875 c 5,12,13
 566.530624731 3.48845997974 566.530624731 3.48845997974 543.265312365 28.7879785741 c 132,-1,14
 520 54.0874971684 520 54.0874971684 520 88 c 4,15,16
 520 124 520 124 546 150 c 132,-1,0
 572 176 572 176 608 176 c 132,-1,1
EndSplineSet
EndChar

StartChar: hyphen
Encoding: 45 45 13
AltUni2: 0000ad.ffffffff.0 0000ad.ffffffff.0
Width: 1229
GlyphClass: 2
Flags: W
LayerCount: 2
Fore
SplineSet
240 452 m 6,0,-1
 976 452 l 6,1,2
 993 452 993 452 1005.5 439.5 c 132,-1,3
 1018 427 1018 427 1018 410 c 132,-1,4
 1018 393 1018 393 1005.5 380.5 c 132,-1,5
 993 368 993 368 976 368 c 6,6,-1
 240 368 l 6,7,8
 223 368 223 368 210.5 380.5 c 132,-1,9
 198 393 198 393 198 410 c 132,-1,10
 198 427 198 427 210.5 439.5 c 132,-1,11
 223 452 223 452 240 452 c 6,0,-1
EndSplineSet
EndChar

StartChar: period
Encoding: 46 46 14
Width: 1229
GlyphClass: 2
Flags: W
LayerCount: 2
Fore
SplineSet
608 176 m 128,-1,1
 644 176 644 176 670 150 c 128,-1,2
 696 124 696 124 696 88 c 128,-1,3
 696 52 696 52 670 26 c 128,-1,4
 644 0 644 0 608 0 c 128,-1,5
 572 0 572 0 546 26 c 128,-1,6
 520 52 520 52 520 88 c 128,-1,7
 520 124 520 124 546 150 c 128,-1,0
 572 176 572 176 608 176 c 128,-1,1
EndSplineSet
EndChar

StartChar: slash
Encoding: 47 47 15
Width: 1229
GlyphClass: 2
Flags: W
LayerCount: 2
Fore
SplineSet
984.150390625 1187.20117188 m 4,0,1
 992.345205453 1185.580252 992.345205453 1185.580252 999.296875 1180.9453125 c 4,2,3
 1013.77115176 1171.29481808 1013.77115176 1171.29481808 1017.1829834 1154.2364502 c 132,-1,4
 1020.59481503 1137.17808231 1020.59481503 1137.17808231 1010.9453125 1122.703125 c 6,5,-1
 274.9453125 18.703125 l 6,6,7
 265.295706184 4.22834931674 265.295706184 4.22834931674 248.236816406 0.816650390625 c 132,-1,8
 231.177926629 -2.59504853549 231.177926629 -2.59504853549 216.703125 7.0546875 c 132,-1,9
 202.228349317 16.7042938162 202.228349317 16.7042938162 198.816650391 33.7631835938 c 132,-1,10
 195.404951465 50.8220733713 195.404951465 50.8220733713 205.0546875 65.296875 c 6,11,-1
 941.0546875 1169.296875 l 6,12,13
 956.621312211 1192.64600542 956.621312211 1192.64600542 984.150390625 1187.20117188 c 4,0,1
EndSplineSet
EndChar

StartChar: zero
Encoding: 48 48 16
Width: 1229
GlyphClass: 2
Flags: W
LayerCount: 2
Fore
SplineSet
608 1188 m 128,-1,1
 777 1188 777 1188 897.5 1067.5 c 128,-1,2
 1018 947 1018 947 1018 778 c 2,3,-1
 1018 410 l 2,4,5
 1018 241 1018 241 897.5 120.5 c 128,-1,6
 777 0 777 0 608 0 c 128,-1,7
 439 0 439 0 318.5 120.5 c 128,-1,8
 198 241 198 241 198 410 c 2,9,-1
 198 778 l 2,10,11
 198 947 198 947 318.5 1067.5 c 128,-1,0
 439 1188 439 1188 608 1188 c 128,-1,1
608 1104 m 0,12,13
 473 1104 473 1104 377.5 1008.5 c 128,-1,14
 282 913 282 913 282 778 c 2,15,-1
 282 477.95703125 l 1,16,-1
 932.927734375 803.421875 l 1,17,18
 923.208132576 930.311122112 923.208132576 930.311122112 829.863461749 1017.15556106 c 128,-1,19
 736.518790921 1104 736.518790921 1104 608 1104 c 0,12,13
934 710.04296875 m 1,20,-1
 283.072265625 384.578125 l 1,21,22
 292.791867424 257.688877888 292.791867424 257.688877888 386.136538251 170.844438944 c 128,-1,23
 479.481209079 84 479.481209079 84 608 84 c 0,24,25
 743 84 743 84 838.5 179.5 c 128,-1,26
 934 275 934 275 934 410 c 2,27,-1
 934 710.04296875 l 1,20,-1
EndSplineSet
EndChar

StartChar: one
Encoding: 49 49 17
Width: 1229
GlyphClass: 2
Flags: W
LayerCount: 2
Fore
SplineSet
608 1187.99414062 m 128,-1,1
 625.395183344 1187.99267571 625.395183344 1187.99267571 637.697591672 1175.69303343 c 128,-1,2
 650 1163.39339115 650 1163.39339115 650 1146 c 2,3,-1
 650 84 l 1,4,-1
 976 84 l 2,5,6
 993 84 993 84 1005.5 71.5 c 128,-1,7
 1018 59 1018 59 1018 42 c 128,-1,8
 1018 25 1018 25 1005.5 12.5 c 128,-1,9
 993 0 993 0 976 0 c 2,10,-1
 240 0 l 2,11,12
 223 0 223 0 210.5 12.5 c 128,-1,13
 198 25 198 25 198 42 c 128,-1,14
 198 59 198 59 210.5 71.5 c 128,-1,15
 223 84 223 84 240 84 c 2,16,-1
 566 84 l 1,17,-1
 566 1044.6015625 l 1,18,-1
 269.69921875 748.30078125 l 2,19,20
 257.397460938 735.999023438 257.397460938 735.999023438 240 735.999023438 c 128,-1,21
 222.602539062 735.999023438 222.602539062 735.999023438 210.30078125 748.30078125 c 128,-1,22
 197.999023438 760.602539062 197.999023438 760.602539062 197.999023438 778 c 128,-1,23
 197.999023438 795.397460938 197.999023438 795.397460938 210.30078125 807.69921875 c 2,24,-1
 578.30078125 1175.69921875 l 2,25,0
 590.597228881 1187.99566638 590.597228881 1187.99566638 608 1187.99414062 c 128,-1,1
EndSplineSet
EndChar

StartChar: two
Encoding: 50 50 18
Width: 1229
GlyphClass: 2
Flags: W
LayerCount: 2
Fore
SplineSet
608.01953125 1187.97070312 m 128,-1,1
 805.84082354 1187.97070312 805.84082354 1187.97070312 908.853515625 1110.546875 c 0,2,3
 1017.10660833 1029.18438778 1017.10660833 1029.18438778 1018.00390625 870.224609375 c 0,4,5
 1018.48263547 785.393207986 1018.48263547 785.393207986 982.210243378 704.057278184 c 128,-1,6
 945.937851288 622.721348381 945.937851288 622.721348381 882.7421875 565.669921875 c 0,7,8
 349.201171875 84 349.201171875 84 349.201171875 84 c 1,9,-1
 976 84 l 2,10,11
 993 84 993 84 1005.5 71.5 c 128,-1,12
 1018 59 1018 59 1018 42 c 128,-1,13
 1018 25 1018 25 1005.5 12.5 c 128,-1,14
 993 0 993 0 976 0 c 2,15,-1
 240 0 l 2,16,17
 211.162232621 0 211.162232621 0 200.805664062 26.92578125 c 128,-1,18
 190.449704409 53.8525734791 190.449704409 53.8525734791 211.85546875 73.17578125 c 0,19,20
 621.988612517 443.43588579 621.988612517 443.43588579 826.453125 628.021484375 c 0,21,22
 874.931492439 671.787299099 874.931492439 671.787299099 904.650404971 738.424883719 c 128,-1,23
 934.369317502 805.062468339 934.369317502 805.062468339 934.00390625 869.751953125 c 0,24,25
 933.342371308 987.060920191 933.342371308 987.060920191 858.384765625 1043.3984375 c 0,26,27
 777.7927868 1103.97070312 777.7927868 1103.97070312 608.01953125 1103.97070312 c 0,28,29
 438.02487063 1103.97070312 438.02487063 1103.97070312 357.228515625 1043.37304688 c 0,30,31
 282.03125 986.974734686 282.03125 986.974734686 282.03125 869.9765625 c 0,32,33
 282.03125 852.579345703 282.03125 852.579345703 269.729858398 840.277954102 c 128,-1,34
 257.428466797 827.9765625 257.428466797 827.9765625 240.03125 827.9765625 c 128,-1,35
 222.634033203 827.9765625 222.634033203 827.9765625 210.332641602 840.277954102 c 128,-1,36
 198.03125 852.579345703 198.03125 852.579345703 198.03125 869.9765625 c 0,37,38
 198.03125 1028.97276693 198.03125 1028.97276693 306.828125 1110.57226562 c 0,39,0
 410.023711553 1187.97070312 410.023711553 1187.97070312 608.01953125 1187.97070312 c 128,-1,1
EndSplineSet
EndChar

StartChar: three
Encoding: 51 51 19
Width: 1229
GlyphClass: 2
Flags: W
LayerCount: 2
Fore
SplineSet
608.01953125 1187.97070312 m 128,-1,1
 806.013671875 1187.97070312 806.013671875 1187.97070312 909.208984375 1110.57421875 c 0,2,3
 1018.00724077 1028.97552645 1018.00724077 1028.97552645 1017.99804688 869.982421875 c 128,-1,4
 1017.99038552 710.995461009 1017.99038552 710.995461009 909.19140625 629.3984375 c 0,5,6
 882.019295697 609.019354585 882.019295697 609.019354585 848.521484375 593.99609375 c 1,7,8
 882.017615916 578.973586271 882.017615916 578.973586271 909.19140625 558.591796875 c 0,9,10
 1017.98828125 476.992298184 1017.98828125 476.992298184 1017.98828125 317.994140625 c 128,-1,11
 1017.98828125 158.996462238 1017.98828125 158.996462238 909.19140625 77.3984375 c 0,12,13
 805.993955614 0 805.993955614 0 608 0 c 128,-1,14
 410.006044386 0 410.006044386 0 306.80859375 77.3984375 c 0,15,16
 198.01171875 158.996462238 198.01171875 158.996462238 198.01171875 317.994140625 c 0,17,18
 198.01171875 335.391357422 198.01171875 335.391357422 210.313110352 347.692749023 c 128,-1,19
 222.614501953 359.994140625 222.614501953 359.994140625 240.01171875 359.994140625 c 128,-1,20
 257.408935547 359.994140625 257.408935547 359.994140625 269.710327148 347.692749023 c 128,-1,21
 282.01171875 335.391357422 282.01171875 335.391357422 282.01171875 317.994140625 c 0,22,23
 282.01171875 200.995968439 282.01171875 200.995968439 357.208984375 144.59765625 c 0,24,25
 438.00533938 84 438.00533938 84 608 84 c 128,-1,26
 777.99466062 84 777.99466062 84 858.791015625 144.59765625 c 0,27,28
 933.98828125 200.995968439 933.98828125 200.995968439 933.98828125 317.994140625 c 128,-1,29
 933.98828125 434.991949855 933.98828125 434.991949855 858.791015625 491.390625 c 0,30,31
 777.989096384 551.994140625 777.989096384 551.994140625 608 551.994140625 c 0,32,33
 590.77634075 552.237305061 590.77634075 552.237305061 578.682603969 564.502698953 c 128,-1,34
 566.588867188 576.768092846 566.588867188 576.768092846 566.588867188 593.993164062 c 128,-1,35
 566.588134765 611.218272402 566.588134765 611.218272402 578.681279755 623.484258347 c 128,-1,36
 590.774424744 635.750244292 590.774424744 635.750244292 607.998046875 635.994140625 c 0,37,38
 777.982907163 635.994140625 777.982907163 635.994140625 858.79296875 696.599609375 c 0,39,40
 933.992518269 752.997456678 933.992518269 752.997456678 933.998046875 869.98828125 c 128,-1,41
 934.004957522 986.97723889 934.004957522 986.97723889 858.810546875 1043.37304688 c 0,42,43
 778.013671875 1103.97070312 778.013671875 1103.97070312 608.01953125 1103.97070312 c 128,-1,44
 438.02487063 1103.97070312 438.02487063 1103.97070312 357.228515625 1043.37304688 c 0,45,46
 282.03125 986.974734686 282.03125 986.974734686 282.03125 869.9765625 c 0,47,48
 282.03125 852.579345703 282.03125 852.579345703 269.729858398 840.277954102 c 128,-1,49
 257.428466797 827.9765625 257.428466797 827.9765625 240.03125 827.9765625 c 128,-1,50
 222.634033203 827.9765625 222.634033203 827.9765625 210.332641602 840.277954102 c 128,-1,51
 198.03125 852.579345703 198.03125 852.579345703 198.03125 869.9765625 c 0,52,53
 198.03125 1028.97276693 198.03125 1028.97276693 306.828125 1110.57226562 c 0,54,0
 410.023711553 1187.97070312 410.023711553 1187.97070312 608.01953125 1187.97070312 c 128,-1,1
EndSplineSet
EndChar

StartChar: four
Encoding: 52 52 20
Width: 1229
GlyphClass: 2
Flags: W
LayerCount: 2
Fore
SplineSet
976 1188 m 128,-1,1
 993 1188 993 1188 1005.5 1175.5 c 128,-1,2
 1018 1163 1018 1163 1018 1146 c 2,3,-1
 1018 42 l 2,4,5
 1018 25 1018 25 1005.5 12.5 c 128,-1,6
 993 0 993 0 976 0 c 128,-1,7
 959 0 959 0 946.5 12.5 c 128,-1,8
 934 25 934 25 934 42 c 2,9,-1
 934 552 l 1,10,-1
 240 552 l 2,11,12
 214.844281578 552 214.844281578 552 202.972412109 574.183227539 c 128,-1,13
 191.10054264 596.366455078 191.10054264 596.366455078 205.0546875 617.296875 c 2,14,-1
 573.0546875 1169.296875 l 2,15,16
 588.621312211 1192.64600542 588.621312211 1192.64600542 616.150390625 1187.20117188 c 0,17,18
 624.345205453 1185.580252 624.345205453 1185.580252 631.296875 1180.9453125 c 0,19,20
 645.771151765 1171.29481808 645.771151765 1171.29481808 649.182983398 1154.2364502 c 128,-1,21
 652.594815032 1137.17808231 652.594815032 1137.17808231 642.9453125 1122.703125 c 2,22,-1
 318.4765625 636 l 1,23,-1
 934 636 l 1,24,-1
 934 1146 l 2,25,26
 934 1163 934 1163 946.5 1175.5 c 128,-1,0
 959 1188 959 1188 976 1188 c 128,-1,1
EndSplineSet
EndChar

StartChar: five
Encoding: 53 53 21
Width: 1229
GlyphClass: 2
Flags: W
LayerCount: 2
Fore
SplineSet
240 1188 m 2,0,-1
 976 1188 l 2,1,2
 993 1188 993 1188 1005.5 1175.5 c 128,-1,3
 1018 1163 1018 1163 1018 1146 c 128,-1,4
 1018 1129 1018 1129 1005.5 1116.5 c 128,-1,5
 993 1104 993 1104 976 1104 c 2,6,-1
 282.001953125 1104 l 1,7,-1
 282.025390625 700.2265625 l 1,8,9
 349.981393906 757.561914603 349.981393906 757.561914603 435.785629949 789.156600249 c 128,-1,10
 521.589865991 820.751285895 521.589865991 820.751285895 608.37890625 819.98828125 c 0,11,12
 719.439860215 819.012285947 719.439860215 819.012285947 813.707295783 764.150073122 c 128,-1,13
 907.974731351 709.287860297 907.974731351 709.287860297 962.987365675 615.144197711 c 128,-1,14
 1018 521.000535126 1018 521.000535126 1018 410 c 128,-1,15
 1018 299.000017006 1018 299.000017006 962.987684385 204.85662546 c 128,-1,16
 907.97536877 110.713233915 907.97536877 110.713233915 813.70958124 55.8484526646 c 128,-1,17
 719.443793709 0.983671414258 719.443793709 0.983671414258 608.3828125 -0.001953125 c 0,18,19
 492.820331838 -1.02729988086 492.820331838 -1.02729988086 382.746263299 53.6340194175 c 128,-1,20
 272.672194761 108.295338716 272.672194761 108.295338716 205.88671875 201.53125 c 0,21,22
 195.75598223 215.674404413 195.75598223 215.674404413 198.592895508 232.838134766 c 128,-1,23
 201.429808786 250.001865118 201.429808786 250.001865118 215.572265625 260.1328125 c 128,-1,24
 229.715258004 270.264507648 229.715258004 270.264507648 246.880126953 267.427734375 c 128,-1,25
 264.044995903 264.590961102 264.044995903 264.590961102 274.17578125 250.447265625 c 0,26,27
 327.128162189 176.523752985 327.128162189 176.523752985 421.132170662 129.848320618 c 128,-1,28
 515.136179136 83.1728882506 515.136179136 83.1728882506 607.63671875 83.994140625 c 0,29,30
 743.607896078 85.2011069569 743.607896078 85.2011069569 838.803948039 180.016235978 c 128,-1,31
 934 274.831364999 934 274.831364999 934 410 c 128,-1,32
 934 545.169875548 934 545.169875548 838.804532449 639.982447123 c 128,-1,33
 743.609064899 734.795018697 743.609064899 734.795018697 607.640625 735.990234375 c 0,34,35
 515.139557277 736.803383672 515.139557277 736.803383672 421.13496361 690.124068685 c 128,-1,36
 327.130369944 643.444753698 327.130369944 643.444753698 274.173828125 569.5234375 c 0,37,38
 266.206001255 558.401435048 266.206001255 558.401435048 253.21239827 554.110753312 c 128,-1,39
 240.218795286 549.820071575 240.218795286 549.820071575 227.190429688 554.004882812 c 128,-1,40
 214.161573255 558.189616427 214.161573255 558.189616427 206.096777803 569.244521827 c 128,-1,41
 198.031982351 580.299427226 198.031982351 580.299427226 198.03125 593.98046875 c 2,42,-1
 198 1145.99804688 l 2,43,44
 197.999267577 1163.39454887 197.999267577 1163.39454887 210.301400411 1175.69727444 c 128,-1,45
 222.603533245 1188 222.603533245 1188 240 1188 c 2,0,-1
EndSplineSet
EndChar

StartChar: six
Encoding: 54 54 22
Width: 1229
GlyphClass: 2
Flags: W
LayerCount: 2
Fore
SplineSet
607.62890625 1187.99804688 m 0,0,1
 723.196795579 1189.02116976 723.196795579 1189.02116976 833.271734576 1134.3587446 c 128,-1,2
 943.346673573 1079.69631943 943.346673573 1079.69631943 1010.1328125 986.4609375 c 0,3,4
 1020.26354902 972.317783087 1020.26354902 972.317783087 1017.42663574 955.154052734 c 128,-1,5
 1014.58972246 937.990322382 1014.58972246 937.990322382 1000.44726562 927.859375 c 128,-1,6
 986.304273246 917.727679852 986.304273246 917.727679852 969.139404297 920.564453125 c 128,-1,7
 951.974535347 923.401226398 951.974535347 923.401226398 941.84375 937.544921875 c 0,8,9
 888.890738653 1011.46858553 888.890738653 1011.46858553 794.88539234 1058.14478657 c 128,-1,10
 700.880046028 1104.82098762 700.880046028 1104.82098762 608.37109375 1104.00195312 c 0,11,12
 472.394018508 1102.79866812 472.394018508 1102.79866812 377.197009254 1007.98435447 c 128,-1,13
 282 913.170040818 282 913.170040818 282 778 c 2,14,-1
 282 700.205078125 l 1,15,16
 349.957790318 757.550364541 349.957790318 757.550364541 435.769554137 789.150827488 c 128,-1,17
 521.581317956 820.751290434 521.581317956 820.751290434 608.37890625 819.98828125 c 0,18,19
 719.439779776 819.012286654 719.439779776 819.012286654 813.707275673 764.149856285 c 128,-1,20
 907.97477157 709.287425916 907.97477157 709.287425916 962.987385785 615.143763507 c 128,-1,21
 1018 521.000101098 1018 521.000101098 1018 410 c 128,-1,22
 1018 298.942508195 1018 298.942508195 963.011808578 204.632071568 c 128,-1,23
 908.023617157 110.321634941 908.023617157 110.321634941 813.65160288 55.4056888487 c 128,-1,24
 719.279588603 0.489742756222 719.279588603 0.489742756222 608.19140625 -0.001953125 c 128,-1,25
 497.051517131 -0.493843580875 497.051517131 -0.493843580875 402.470236053 54.5217629476 c 128,-1,26
 307.888954976 109.537369476 307.888954976 109.537369476 252.944477488 204.182664136 c 128,-1,27
 198 298.827958795 198 298.827958795 198 410 c 2,28,-1
 198 778 l 2,29,30
 198 888.999866142 198 888.999866142 253.013292399 983.143068629 c 128,-1,31
 308.026584798 1077.28627112 308.026584798 1077.28627112 402.295301351 1132.15055116 c 128,-1,32
 496.564017905 1187.01483121 496.564017905 1187.01483121 607.62890625 1187.99804688 c 0,0,1
607.640625 735.990234375 m 0,33,34
 518.584862892 736.772635661 518.584862892 736.772635661 427.604082264 693.190197968 c 128,-1,35
 336.623301636 649.607760274 336.623301636 649.607760274 282 579.634765625 c 1,36,-1
 282 410 l 2,37,38
 282 321.152904719 282 321.152904719 325.510362326 245.938979895 c 128,-1,39
 369.020724652 170.725055071 369.020724652 170.725055071 444.093804341 127.165186772 c 128,-1,40
 519.166884029 83.6053184723 519.166884029 83.6053184723 607.818359375 83.998046875 c 0,41,42
 696.803761504 84.3917812107 696.803761504 84.3917812107 771.863049751 127.880492582 c 128,-1,43
 846.922337998 171.369203953 846.922337998 171.369203953 890.461168999 246.289429293 c 128,-1,44
 934 321.209654634 934 321.209654634 934 410 c 0,45,46
 934 545.169707329 934 545.169707329 838.804251695 639.982362256 c 128,-1,47
 743.608503391 734.795017183 743.608503391 734.795017183 607.640625 735.990234375 c 0,33,34
EndSplineSet
EndChar

StartChar: seven
Encoding: 55 55 23
Width: 1229
GlyphClass: 2
Flags: W
LayerCount: 2
Fore
SplineSet
240 1188 m 2,0,-1
 976 1188 l 2,1,2
 997.498600937 1188 997.498600937 1188 1010.07037359 1170.55696937 c 128,-1,3
 1022.64214625 1153.11393874 1022.64214625 1153.11393874 1015.84375 1132.71875 c 2,4,-1
 647.84375 28.71875 l 2,5,6
 642.342529297 12.2150878906 642.342529297 12.2150878906 626.782470703 4.43505859375 c 128,-1,7
 611.222412109 -3.34497070312 611.222412109 -3.34497070312 594.71875 2.15625 c 128,-1,8
 578.215087891 7.65747070312 578.215087891 7.65747070312 570.435058594 23.2175292969 c 128,-1,9
 562.655029297 38.7775878906 562.655029297 38.7775878906 568.15625 55.28125 c 2,10,-1
 917.728515625 1104 l 1,11,-1
 240 1104 l 2,12,13
 223 1104 223 1104 210.5 1116.5 c 128,-1,14
 198 1129 198 1129 198 1146 c 128,-1,15
 198 1163 198 1163 210.5 1175.5 c 128,-1,16
 223 1188 223 1188 240 1188 c 2,0,-1
EndSplineSet
EndChar

StartChar: eight
Encoding: 56 56 24
Width: 1229
GlyphClass: 2
Flags: W
LayerCount: 2
Fore
SplineSet
608.01953125 1187.97070312 m 128,-1,1
 806.015350947 1187.97070312 806.015350947 1187.97070312 909.2109375 1110.57226562 c 0,2,3
 1018.0078125 1028.97276693 1018.0078125 1028.97276693 1018.0078125 869.9765625 c 128,-1,4
 1018.0078125 710.978884113 1018.0078125 710.978884113 909.2109375 629.380859375 c 0,5,6
 882.041665066 609.004628329 882.041665066 609.004628329 848.548828125 593.982421875 c 1,7,8
 882.020511182 578.968015051 882.020511182 578.968015051 909.19140625 558.58984375 c 0,9,10
 1017.98828125 476.990345059 1017.98828125 476.990345059 1017.98828125 317.994140625 c 128,-1,11
 1017.98828125 158.996462238 1017.98828125 158.996462238 909.19140625 77.3984375 c 0,12,13
 805.993955614 0 805.993955614 0 608 0 c 128,-1,14
 410.006044386 0 410.006044386 0 306.80859375 77.3984375 c 0,15,16
 198.01171875 158.996462238 198.01171875 158.996462238 198.01171875 317.994140625 c 128,-1,17
 198.01171875 476.990345059 198.01171875 476.990345059 306.80859375 558.58984375 c 0,18,19
 333.984345211 578.970933894 333.984345211 578.970933894 367.470703125 593.990234375 c 1,20,21
 333.992540528 609.007547729 333.992540528 609.007547729 306.828125 629.380859375 c 0,22,23
 198.03125 710.978884113 198.03125 710.978884113 198.03125 869.9765625 c 128,-1,24
 198.03125 1028.97276693 198.03125 1028.97276693 306.828125 1110.57226562 c 0,25,0
 410.023711553 1187.97070312 410.023711553 1187.97070312 608.01953125 1187.97070312 c 128,-1,1
608.01953125 1103.97070312 m 128,-1,27
 438.02487063 1103.97070312 438.02487063 1103.97070312 357.228515625 1043.37304688 c 0,28,29
 282.03125 986.974734686 282.03125 986.974734686 282.03125 869.9765625 c 128,-1,30
 282.03125 752.978390314 282.03125 752.978390314 357.228515625 696.580078125 c 0,31,32
 437.979035707 636.017578125 437.979035707 636.017578125 608.014648438 636.017578125 c 128,-1,33
 778.057819165 636.014752244 778.057819165 636.014752244 858.810546875 696.580078125 c 0,34,35
 934.0078125 752.978390314 934.0078125 752.978390314 934.0078125 869.9765625 c 128,-1,36
 934.0078125 986.974734686 934.0078125 986.974734686 858.810546875 1043.37304688 c 0,37,26
 778.01419187 1103.97070312 778.01419187 1103.97070312 608.01953125 1103.97070312 c 128,-1,27
608.004882812 551.953125 m 128,-1,39
 437.961712085 551.955950881 437.961712085 551.955950881 357.208984375 491.390625 c 0,40,41
 282.01171875 434.992312811 282.01171875 434.992312811 282.01171875 317.994140625 c 128,-1,42
 282.01171875 200.995968439 282.01171875 200.995968439 357.208984375 144.59765625 c 0,43,44
 438.00533938 84 438.00533938 84 608 84 c 128,-1,45
 777.99466062 84 777.99466062 84 858.791015625 144.59765625 c 0,46,47
 933.98828125 200.995968439 933.98828125 200.995968439 933.98828125 317.994140625 c 128,-1,48
 933.98828125 434.992312811 933.98828125 434.992312811 858.791015625 491.390625 c 0,49,38
 778.042575831 551.953125 778.042575831 551.953125 608.004882812 551.953125 c 128,-1,39
EndSplineSet
EndChar

StartChar: nine
Encoding: 57 57 25
Width: 1229
GlyphClass: 2
Flags: W
LayerCount: 2
Fore
SplineSet
608 1188 m 128,-1,1
 777 1188 777 1188 897.5 1067.5 c 128,-1,2
 1018 947 1018 947 1018 778 c 2,3,-1
 1018 594 l 2,4,5
 1018 400.313038949 1018 400.313038949 910.470980041 239.019031097 c 128,-1,6
 802.941960083 77.7250232444 802.941960083 77.7250232444 624.154296875 3.23046875 c 0,7,8
 616.332587969 -0.0283203125 616.332587969 -0.0283203125 608.018554688 -0.0283203125 c 0,9,10
 580.011311849 -0.0283203125 580.011311849 -0.0283203125 569.23046875 25.845703125 c 0,11,12
 565.971679688 33.667412031 565.971679688 33.667412031 565.971679688 41.9814453125 c 0,13,14
 565.971679688 69.988688151 565.971679688 69.988688151 591.845703125 80.76953125 c 0,15,16
 719.009902282 133.754796177 719.009902282 133.754796177 806.093052146 239.194124683 c 128,-1,17
 893.17620201 344.633453189 893.17620201 344.633453189 921.607421875 477.46484375 c 1,18,19
 854.480646052 424.148061366 854.480646052 424.148061366 772.29855891 395.21127927 c 128,-1,20
 690.116471769 366.274497174 690.116471769 366.274497174 607.447265625 368.013671875 c 0,21,22
 496.450095059 368.16208372 496.450095059 368.16208372 402.107966473 423.152089445 c 128,-1,23
 307.765837887 478.14209517 307.765837887 478.14209517 252.882918944 572.560150138 c 128,-1,24
 198 666.978205106 198 666.978205106 198 778 c 0,25,26
 198 947 198 947 318.5 1067.5 c 128,-1,0
 439 1188 439 1188 608 1188 c 128,-1,1
608 1104 m 128,-1,28
 473 1104 473 1104 377.5 1008.5 c 128,-1,29
 282 913 282 913 282 778 c 128,-1,30
 282 643 282 643 377.5 547.5 c 128,-1,31
 473 452 473 452 608 452 c 0,32,-1
 608.919921875 451.990234375 l 2,33,34
 697.010665562 450.06138398 697.010665562 450.06138398 788.025095789 493.949526721 c 128,-1,35
 879.039526016 537.837669462 879.039526016 537.837669462 934 608.310546875 c 1,36,-1
 934 778 l 2,37,38
 934 913 934 913 838.5 1008.5 c 128,-1,27
 743 1104 743 1104 608 1104 c 128,-1,28
EndSplineSet
EndChar

StartChar: colon
Encoding: 58 58 26
Width: 1229
GlyphClass: 2
Flags: W
LayerCount: 2
Fore
SplineSet
608 268 m 128,-1,1
 644 268 644 268 670 242 c 128,-1,2
 696 216 696 216 696 180 c 128,-1,3
 696 144 696 144 670 118 c 128,-1,4
 644 92 644 92 608 92 c 128,-1,5
 572 92 572 92 546 118 c 128,-1,6
 520 144 520 144 520 180 c 128,-1,7
 520 216 520 216 546 242 c 128,-1,0
 572 268 572 268 608 268 c 128,-1,1
608 728 m 128,-1,9
 644 728 644 728 670 702 c 128,-1,10
 696 676 696 676 696 640 c 128,-1,11
 696 604 696 604 670 578 c 128,-1,12
 644 552 644 552 608 552 c 128,-1,13
 572 552 572 552 546 578 c 128,-1,14
 520 604 520 604 520 640 c 128,-1,15
 520 676 520 676 546 702 c 128,-1,8
 572 728 572 728 608 728 c 128,-1,9
EndSplineSet
EndChar

StartChar: semicolon
Encoding: 59 59 27
AltUni2: 00037e.ffffffff.0 00037e.ffffffff.0
Width: 1229
GlyphClass: 2
Flags: W
LayerCount: 2
Fore
SplineSet
608 268 m 128,-1,1
 644 268 644 268 670 242 c 128,-1,2
 696 216 696 216 696 180 c 0,3,4
 696 39.9856221411 696 39.9856221411 610.31640625 -70.708984375 c 0,5,6
 597.719939627 -86.982421875 597.719939627 -86.982421875 577.071289062 -86.982421875 c 0,7,8
 562.723724934 -86.982421875 562.723724934 -86.982421875 551.39453125 -78.212890625 c 0,9,10
 535.12109375 -65.6164240022 535.12109375 -65.6164240022 535.12109375 -44.9677734375 c 0,11,12
 535.12109375 -30.6202093095 535.12109375 -30.6202093095 543.890625 -19.291015625 c 0,13,14
 582.951984324 31.1718595105 582.951984324 31.1718595105 600.021484375 92.38671875 c 1,15,16
 566.530624731 95.4884599797 566.530624731 95.4884599797 543.265312365 120.787978574 c 128,-1,17
 520 146.087497168 520 146.087497168 520 180 c 0,18,19
 520 216 520 216 546 242 c 128,-1,0
 572 268 572 268 608 268 c 128,-1,1
608 728 m 128,-1,21
 644 728 644 728 670 702 c 128,-1,22
 696 676 696 676 696 640 c 128,-1,23
 696 604 696 604 670 578 c 128,-1,24
 644 552 644 552 608 552 c 128,-1,25
 572 552 572 552 546 578 c 128,-1,26
 520 604 520 604 520 640 c 128,-1,27
 520 676 520 676 546 702 c 128,-1,20
 572 728 572 728 608 728 c 128,-1,21
EndSplineSet
EndChar

StartChar: less
Encoding: 60 60 28
Width: 1229
GlyphClass: 2
Flags: W
LayerCount: 2
Fore
SplineSet
973.0234375 819.89453125 m 0,0,1
 1001.01691013 821.883808626 1001.01691013 821.883808626 1013.56640625 796.783203125 c 0,2,3
 1021.34678892 781.222832931 1021.34678892 781.222832931 1015.84521484 764.718505859 c 128,-1,4
 1010.34364077 748.214178788 1010.34364077 748.214178788 994.783203125 740.43359375 c 2,5,-1
 333.916015625 410 l 1,6,-1
 994.783203125 79.56640625 l 2,7,8
 1010.34364077 71.7858212123 1010.34364077 71.7858212123 1015.84521484 55.2814941406 c 128,-1,9
 1021.34678892 38.777167069 1021.34678892 38.777167069 1013.56640625 23.216796875 c 128,-1,10
 1005.78582121 7.65635922775 1005.78582121 7.65635922775 989.281494141 2.15478515625 c 128,-1,11
 972.777167069 -3.34678891525 972.777167069 -3.34678891525 957.216796875 4.43359375 c 2,12,-1
 221.216796875 372.43359375 l 2,13,14
 198.00390625 384.040835716 198.00390625 384.040835716 198.00390625 410 c 128,-1,15
 198.00390625 435.959164284 198.00390625 435.959164284 221.216796875 447.56640625 c 2,16,-1
 957.216796875 815.56640625 l 2,17,18
 964.689697165 819.302856395 964.689697165 819.302856395 973.0234375 819.89453125 c 0,0,1
EndSplineSet
EndChar

StartChar: equal
Encoding: 61 61 29
Width: 1229
GlyphClass: 2
Flags: W
LayerCount: 2
Fore
SplineSet
240 268 m 2,0,-1
 976 268 l 2,1,2
 993 268 993 268 1005.5 255.5 c 128,-1,3
 1018 243 1018 243 1018 226 c 128,-1,4
 1018 209 1018 209 1005.5 196.5 c 128,-1,5
 993 184 993 184 976 184 c 2,6,-1
 240 184 l 2,7,8
 223 184 223 184 210.5 196.5 c 128,-1,9
 198 209 198 209 198 226 c 128,-1,10
 198 243 198 243 210.5 255.5 c 128,-1,11
 223 268 223 268 240 268 c 2,0,-1
240 636 m 2,12,-1
 976 636 l 2,13,14
 993 636 993 636 1005.5 623.5 c 128,-1,15
 1018 611 1018 611 1018 594 c 128,-1,16
 1018 577 1018 577 1005.5 564.5 c 128,-1,17
 993 552 993 552 976 552 c 2,18,-1
 240 552 l 2,19,20
 223 552 223 552 210.5 564.5 c 128,-1,21
 198 577 198 577 198 594 c 128,-1,22
 198 611 198 611 210.5 623.5 c 128,-1,23
 223 636 223 636 240 636 c 2,12,-1
EndSplineSet
EndChar

StartChar: greater
Encoding: 62 62 30
Width: 1229
GlyphClass: 2
Flags: W
LayerCount: 2
Fore
SplineSet
242.990234375 819.89453125 m 0,0,1
 251.32397471 819.302856395 251.32397471 819.302856395 258.796875 815.56640625 c 2,2,-1
 994.796875 447.56640625 l 2,3,4
 1018.00976562 435.959960938 1018.00976562 435.959960938 1018.00976562 410 c 128,-1,5
 1018.00976562 384.040039062 1018.00976562 384.040039062 994.796875 372.43359375 c 2,6,-1
 258.796875 4.43359375 l 2,7,8
 243.236504806 -3.34678891525 243.236504806 -3.34678891525 226.732177734 2.15478515625 c 128,-1,9
 210.227850663 7.65635922775 210.227850663 7.65635922775 202.447265625 23.216796875 c 128,-1,10
 194.667413013 38.7770658798 194.667413013 38.7770658798 200.168823242 55.2814941406 c 128,-1,11
 205.670233472 71.7859224014 205.670233472 71.7859224014 221.23046875 79.56640625 c 2,12,-1
 882.09765625 410 l 1,13,-1
 221.23046875 740.43359375 l 2,14,15
 205.670031103 748.214178788 205.670031103 748.214178788 200.168457031 764.718505859 c 128,-1,16
 194.66688296 781.222832931 194.66688296 781.222832931 202.447265625 796.783203125 c 0,17,18
 214.998319645 821.883697918 214.998319645 821.883697918 242.990234375 819.89453125 c 0,0,1
EndSplineSet
EndChar

StartChar: question
Encoding: 63 63 31
Width: 1229
GlyphClass: 2
Flags: W
LayerCount: 2
Fore
SplineSet
608 176 m 128,-1,1
 644 176 644 176 670 150 c 128,-1,2
 696 124 696 124 696 88 c 128,-1,3
 696 52 696 52 670 26 c 128,-1,4
 644 0 644 0 608 0 c 128,-1,5
 572 0 572 0 546 26 c 128,-1,6
 520 52 520 52 520 88 c 128,-1,7
 520 124 520 124 546 150 c 128,-1,0
 572 176 572 176 608 176 c 128,-1,1
608.01953125 1187.97070312 m 128,-1,9
 806.015350947 1187.97070312 806.015350947 1187.97070312 909.2109375 1110.57226562 c 0,10,11
 1018.0078125 1028.97387241 1018.0078125 1028.97387241 1018.0078125 869.9765625 c 128,-1,12
 1018.0078125 710.976664105 1018.0078125 710.976664105 909.208984375 629.380859375 c 0,13,14
 816.996827606 560.224556062 816.996827606 560.224556062 650.0078125 552.927734375 c 1,15,-1
 650 317.998046875 l 2,16,17
 649.999267587 300.601033999 649.999267587 300.601033999 637.697367597 288.300516999 c 128,-1,18
 625.395467607 276 625.395467607 276 607.998046875 276 c 128,-1,19
 590.600865352 276.00073242 590.600865352 276.00073242 578.300066464 288.302716737 c 128,-1,20
 565.999267577 300.604701054 565.999267577 300.604701054 566 318.001953125 c 2,21,-1
 566.009765625 593.9921875 l 2,22,23
 566.010498045 611.388636617 566.010498045 611.388636617 578.312848581 623.689801708 c 128,-1,24
 590.615199117 635.990966798 590.615199117 635.990966798 608.01171875 635.990234375 c 0,25,26
 778.012708782 635.985992657 778.012708782 635.985992657 858.810546875 696.58203125 c 0,27,28
 934.0078125 752.97780269 934.0078125 752.97780269 934.0078125 869.9765625 c 128,-1,29
 934.0078125 986.974734686 934.0078125 986.974734686 858.810546875 1043.37304688 c 0,30,31
 778.01419187 1103.97070312 778.01419187 1103.97070312 608.01953125 1103.97070312 c 128,-1,32
 438.02487063 1103.97070312 438.02487063 1103.97070312 357.228515625 1043.37304688 c 0,33,34
 282.03125 986.974734686 282.03125 986.974734686 282.03125 869.9765625 c 0,35,36
 282.03125 852.579345703 282.03125 852.579345703 269.729858398 840.277954102 c 128,-1,37
 257.428466797 827.9765625 257.428466797 827.9765625 240.03125 827.9765625 c 128,-1,38
 222.634033203 827.9765625 222.634033203 827.9765625 210.332641602 840.277954102 c 128,-1,39
 198.03125 852.579345703 198.03125 852.579345703 198.03125 869.9765625 c 0,40,41
 198.03125 1028.97276693 198.03125 1028.97276693 306.828125 1110.57226562 c 0,42,8
 410.023711553 1187.97070312 410.023711553 1187.97070312 608.01953125 1187.97070312 c 128,-1,9
EndSplineSet
EndChar

StartChar: at
Encoding: 64 64 32
Width: 1229
GlyphClass: 2
Flags: W
LayerCount: 2
Fore
SplineSet
198 778 m 2,0,1
 198 889.11441094 198 889.11441094 252.965801866 983.591428256 c 128,-1,2
 307.931603732 1078.06844557 307.931603732 1078.06844557 402.408872613 1133.03422279 c 128,-1,3
 496.886141494 1188 496.886141494 1188 608.000976562 1188 c 128,-1,4
 719.115811631 1188 719.115811631 1188 813.593080512 1133.03422279 c 128,-1,5
 908.070349393 1078.06844557 908.070349393 1078.06844557 963.036151259 983.591428256 c 128,-1,6
 1018.00195312 889.11441094 1018.00195312 889.11441094 1018.00195312 778 c 2,7,-1
 1018.00195312 456.001953125 l 2,8,9
 1018.00195312 438.604736328 1018.00195312 438.604736328 1005.70056152 426.303344727 c 128,-1,10
 993.399169922 414.001953125 993.399169922 414.001953125 976.001953125 414.001953125 c 128,-1,11
 958.604736328 414.001953125 958.604736328 414.001953125 946.303344727 426.303344727 c 128,-1,12
 934.001953125 438.604736328 934.001953125 438.604736328 934.001953125 456.001953125 c 2,13,-1
 934.001953125 492.44140625 l 1,14,15
 827.986284839 412.98857916 827.986284839 412.98857916 699.673828125 414 c 0,16,17
 551.448250558 415.167644634 551.448250558 415.167644634 474.337890625 453.41796875 c 0,18,19
 431.917928696 474.459501942 431.917928696 474.459501942 406.956004601 511.958907578 c 128,-1,20
 381.994080506 549.458313214 381.994080506 549.458313214 381.98828125 593.998046875 c 128,-1,21
 381.982476031 638.585027632 381.982476031 638.585027632 406.876375452 676.223785655 c 128,-1,22
 431.770274872 713.862543678 431.770274872 713.862543678 474.1953125 735.076171875 c 0,23,24
 552.066239966 774.013671875 552.066239966 774.013671875 699.984375 774.013671875 c 2,25,-1
 934 774.013671875 l 1,26,-1
 934 778 l 2,27,28
 934 913 934 913 838.5 1008.5 c 128,-1,29
 743 1104 743 1104 608 1104 c 128,-1,30
 473 1104 473 1104 377.5 1008.5 c 128,-1,31
 282 913 282 913 282 778 c 2,32,-1
 282 410 l 2,33,34
 282 274.829529814 282 274.829529814 377.198686156 180.015310047 c 128,-1,35
 472.397372311 85.2010902803 472.397372311 85.2010902803 608.3828125 83.994140625 c 0,36,37
 700.899195098 83.1729043915 700.899195098 83.1729043915 794.904551015 129.84727076 c 128,-1,38
 888.909906933 176.521637128 888.909906933 176.521637128 941.86328125 250.447265625 c 0,39,40
 951.994105935 264.590283603 951.994105935 264.590283603 969.157958984 267.427612305 c 128,-1,41
 986.321812034 270.264941006 986.321812034 270.264941006 1000.46484375 260.134765625 c 128,-1,42
 1014.60859084 250.003943306 1014.60859084 250.003943306 1017.44592285 232.839477539 c 128,-1,43
 1020.28325486 215.675011772 1020.28325486 215.675011772 1010.15234375 201.53125 c 0,44,45
 943.366188702 108.294390745 943.366188702 108.294390745 833.289071689 53.6335510223 c 128,-1,46
 723.211954677 -1.02728870031 723.211954677 -1.02728870031 607.63671875 -0.001953125 c 0,47,48
 496.567845978 0.983668877205 496.567845978 0.983668877205 402.297560453 55.8485695537 c 128,-1,49
 308.027274927 110.71347023 308.027274927 110.71347023 253.013637464 204.856508571 c 128,-1,50
 198 298.999546912 198 298.999546912 198 410 c 2,51,-1
 198 778 l 2,0,1
699.986328125 690.013671875 m 2,52,53
 571.895494561 690.013671875 571.895494561 690.013671875 511.763671875 659.9453125 c 0,54,55
 485.164245271 646.644516306 485.164245271 646.644516306 475.574775454 632.516364429 c 128,-1,56
 465.985305638 618.388212552 465.985305638 618.388212552 465.98828125 594.009765625 c 128,-1,57
 465.991253702 569.656470043 465.991253702 569.656470043 475.488506365 555.779353697 c 128,-1,58
 484.985759029 541.902237351 484.985759029 541.902237351 511.666015625 528.66796875 c 0,59,60
 571.450287576 499.013039823 571.450287576 499.013039823 700.3359375 497.998046875 c 0,61,62
 763.454657169 497.500933617 763.454657169 497.500933617 828.878821017 528.351668463 c 128,-1,63
 894.302984866 559.202403309 894.302984866 559.202403309 934.001953125 608.3125 c 1,64,-1
 934 690.013671875 l 1,65,-1
 699.986328125 690.013671875 l 2,52,53
EndSplineSet
EndChar

StartChar: A
Encoding: 65 65 33
Width: 1229
GlyphClass: 2
Flags: W
AnchorPoint: "Anchor-8" 615 -120 basechar 0
LayerCount: 2
Fore
SplineSet
608 1187.99023438 m 128,-1,1
 621.557658269 1187.99023438 621.557658269 1187.99023438 632.55747091 1180.06544186 c 128,-1,2
 643.55728355 1172.14064935 643.55728355 1172.14064935 647.84375 1159.28125 c 2,3,-1
 1015.84375 55.28125 l 2,4,5
 1021.3449707 38.7775878906 1021.3449707 38.7775878906 1013.56494141 23.2175292969 c 128,-1,6
 1005.78491211 7.65747070312 1005.78491211 7.65747070312 989.28125 2.15625 c 128,-1,7
 972.777587891 -3.34497070312 972.777587891 -3.34497070312 957.217529297 4.43505859375 c 128,-1,8
 941.657470703 12.2150878906 941.657470703 12.2150878906 936.15625 28.71875 c 2,9,-1
 823.0625 368 l 1,10,-1
 392.9375 368 l 1,11,-1
 279.84375 28.71875 l 2,12,13
 274.342529297 12.2150878906 274.342529297 12.2150878906 258.782470703 4.43505859375 c 128,-1,14
 243.222412109 -3.34497070312 243.222412109 -3.34497070312 226.71875 2.15625 c 128,-1,15
 210.215087891 7.65747070312 210.215087891 7.65747070312 202.435058594 23.2175292969 c 128,-1,16
 194.655029297 38.7775878906 194.655029297 38.7775878906 200.15625 55.28125 c 2,17,-1
 568.15625 1159.28125 l 2,18,19
 572.44271645 1172.14064935 572.44271645 1172.14064935 583.44252909 1180.06544186 c 128,-1,0
 594.442341731 1187.99023438 594.442341731 1187.99023438 608 1187.99023438 c 128,-1,1
608 1013.1875 m 1,20,-1
 420.9375 452 l 1,21,-1
 795.0625 452 l 1,22,-1
 608 1013.1875 l 1,20,-1
EndSplineSet
EndChar

StartChar: B
Encoding: 66 66 34
Width: 1229
GlyphClass: 2
Flags: W
AnchorPoint: "Anchor-8" 615 -120 basechar 0
LayerCount: 2
Fore
SplineSet
240.001953125 1188 m 2,0,-1
 608.01171875 1187.98632812 l 2,1,2
 806.012133499 1187.97877011 806.012133499 1187.97877011 909.2109375 1110.57617188 c 0,3,4
 1018.0078125 1028.97630473 1018.0078125 1028.97630473 1018.0078125 869.9765625 c 128,-1,5
 1018.0078125 710.978138045 1018.0078125 710.978138045 909.208984375 629.380859375 c 0,6,7
 882.039999087 609.004843835 882.039999087 609.004843835 848.560546875 593.98828125 c 1,8,9
 882.027559362 578.976274276 882.027559362 578.976274276 909.193359375 558.6015625 c 0,10,11
 1017.98828125 477.003897147 1017.98828125 477.003897147 1017.98828125 318.00390625 c 128,-1,12
 1017.98828125 159.010134113 1017.98828125 159.010134113 909.19140625 77.412109375 c 0,13,14
 805.989487263 0.01171875 805.989487263 0.01171875 608.001953125 0.01171875 c 2,15,-1
 240.001953125 0 l 2,16,17
 222.60545113 -0.000732422616841 222.60545113 -0.000732422616841 210.302725565 12.3014004112 c 128,-1,18
 198 24.6035332451 198 24.6035332451 198 42 c 2,19,-1
 198 1146 l 2,20,21
 198 1163.39646675 198 1163.39646675 210.302725565 1175.69859959 c 128,-1,22
 222.60545113 1188.00073242 222.60545113 1188.00073242 240.001953125 1188 c 2,0,-1
282 1103.99804688 m 1,23,-1
 282 635.998046875 l 1,24,-1
 608.01171875 635.990234375 l 2,25,26
 778.010823585 635.984578814 778.010823585 635.984578814 858.810546875 696.58203125 c 0,27,28
 934.0078125 752.97780269 934.0078125 752.97780269 934.0078125 869.9765625 c 128,-1,29
 934.0078125 986.974998303 934.0078125 986.974998303 858.80859375 1043.37695312 c 0,30,31
 778.007274502 1103.9806726 778.007274502 1103.9806726 608.0078125 1103.98632812 c 2,32,-1
 282 1103.99804688 l 1,23,-1
282 551.998046875 m 1,33,-1
 282 84.0009765625 l 1,34,35
 499.545101869 84.01171875 499.545101869 84.01171875 607.998046875 84.01171875 c 0,36,37
 777.997712202 84.0159605761 777.997712202 84.0159605761 858.791015625 144.611328125 c 0,38,39
 933.98828125 201.008188433 933.98828125 201.008188433 933.98828125 318.00390625 c 128,-1,40
 933.98828125 435.002454379 933.98828125 435.002454379 858.79296875 491.400390625 c 0,41,42
 778.014322917 551.984375 778.014322917 551.984375 608.24609375 551.984375 c 2,43,-1
 282 551.998046875 l 1,33,-1
EndSplineSet
EndChar

StartChar: C
Encoding: 67 67 35
Width: 1229
GlyphClass: 2
Flags: W
AnchorPoint: "Anchor-8" 615 -120 basechar 0
LayerCount: 2
Fore
SplineSet
607.62890625 1187.99804688 m 0,0,1
 723.19735501 1189.02116818 723.19735501 1189.02116818 833.271966273 1134.35881085 c 128,-1,2
 943.346577535 1079.69645351 943.346577535 1079.69645351 1010.1328125 986.4609375 c 0,3,4
 1020.26354902 972.317783087 1020.26354902 972.317783087 1017.42663574 955.154052734 c 128,-1,5
 1014.58972246 937.990322382 1014.58972246 937.990322382 1000.44726562 927.859375 c 128,-1,6
 986.304273246 917.727679852 986.304273246 917.727679852 969.139404297 920.564453125 c 128,-1,7
 951.974535347 923.401226398 951.974535347 923.401226398 941.84375 937.544921875 c 0,8,9
 888.890643968 1011.46871771 888.890643968 1011.46871771 794.885626289 1058.1448519 c 128,-1,10
 700.88060861 1104.82098608 700.88060861 1104.82098608 608.37109375 1104.00195312 c 0,11,12
 472.394018508 1102.79866812 472.394018508 1102.79866812 377.197009254 1007.98435447 c 128,-1,13
 282 913.170040818 282 913.170040818 282 778 c 2,14,-1
 282 410 l 2,15,16
 282 274.829959182 282 274.829959182 377.197009254 180.015645531 c 128,-1,17
 472.394018508 85.2013318799 472.394018508 85.2013318799 608.37109375 83.998046875 c 0,18,19
 700.88060861 83.1790139187 700.88060861 83.1790139187 794.885626289 129.855148103 c 128,-1,20
 888.890643968 176.531282288 888.890643968 176.531282288 941.84375 250.455078125 c 0,21,22
 951.974535347 264.598773602 951.974535347 264.598773602 969.139404297 267.435546875 c 128,-1,23
 986.304273246 270.272320148 986.304273246 270.272320148 1000.44726562 260.140625 c 128,-1,24
 1014.58972246 250.009677618 1014.58972246 250.009677618 1017.42663574 232.845947266 c 128,-1,25
 1020.26354902 215.682216913 1020.26354902 215.682216913 1010.1328125 201.5390625 c 0,26,27
 943.346577535 108.303546493 943.346577535 108.303546493 833.271966273 53.641189155 c 128,-1,28
 723.19735501 -1.0211681829 723.19735501 -1.0211681829 607.62890625 0.001953125 c 0,29,30
 496.563937456 0.985169504152 496.563937456 0.985169504152 402.295281239 55.8492320017 c 128,-1,31
 308.026625022 110.713294499 308.026625022 110.713294499 253.013312511 204.856497165 c 128,-1,32
 198 298.999699831 198 298.999699831 198 410 c 2,33,-1
 198 778 l 2,34,35
 198 889.000300169 198 889.000300169 253.013312511 983.143502835 c 128,-1,36
 308.026625022 1077.2867055 308.026625022 1077.2867055 402.295281239 1132.150768 c 128,-1,37
 496.563937456 1187.0148305 496.563937456 1187.0148305 607.62890625 1187.99804688 c 0,0,1
EndSplineSet
EndChar

StartChar: D
Encoding: 68 68 36
Width: 1229
GlyphClass: 2
Flags: W
AnchorPoint: "Anchor-8" 600 -120 basechar 0
LayerCount: 2
Fore
SplineSet
240 1188 m 2,0,-1
 608 1188 l 2,1,2
 777 1188 777 1188 897.5 1067.5 c 128,-1,3
 1018 947 1018 947 1018 778 c 2,4,-1
 1018 410 l 2,5,6
 1018 241 1018 241 897.5 120.5 c 128,-1,7
 777 0 777 0 608 0 c 2,8,-1
 240 0 l 2,9,10
 223 0 223 0 210.5 12.5 c 128,-1,11
 198 25 198 25 198 42 c 2,12,-1
 198 1146 l 2,13,14
 198 1163 198 1163 210.5 1175.5 c 128,-1,15
 223 1188 223 1188 240 1188 c 2,0,-1
282 1104 m 1,16,-1
 282 84 l 1,17,-1
 608 84 l 2,18,19
 743 84 743 84 838.5 179.5 c 128,-1,20
 934 275 934 275 934 410 c 2,21,-1
 934 778 l 2,22,23
 934 913 934 913 838.5 1008.5 c 128,-1,24
 743 1104 743 1104 608 1104 c 2,25,-1
 282 1104 l 1,16,-1
EndSplineSet
EndChar

StartChar: E
Encoding: 69 69 37
Width: 1229
GlyphClass: 2
Flags: W
AnchorPoint: "Anchor-8" 615 -120 basechar 0
LayerCount: 2
Fore
SplineSet
240 1188 m 2,0,-1
 976 1188 l 2,1,2
 993 1188 993 1188 1005.5 1175.5 c 128,-1,3
 1018 1163 1018 1163 1018 1146 c 128,-1,4
 1018 1129 1018 1129 1005.5 1116.5 c 128,-1,5
 993 1104 993 1104 976 1104 c 2,6,-1
 282 1104 l 1,7,-1
 282 636 l 1,8,-1
 792 636 l 2,9,10
 809 636 809 636 821.5 623.5 c 128,-1,11
 834 611 834 611 834 594 c 128,-1,12
 834 577 834 577 821.5 564.5 c 128,-1,13
 809 552 809 552 792 552 c 2,14,-1
 282 552 l 1,15,-1
 282 84 l 1,16,-1
 976 84 l 2,17,18
 993 84 993 84 1005.5 71.5 c 128,-1,19
 1018 59 1018 59 1018 42 c 128,-1,20
 1018 25 1018 25 1005.5 12.5 c 128,-1,21
 993 0 993 0 976 0 c 2,22,-1
 240 0 l 2,23,24
 223 0 223 0 210.5 12.5 c 128,-1,25
 198 25 198 25 198 42 c 2,26,-1
 198 1146 l 2,27,28
 198 1163 198 1163 210.5 1175.5 c 128,-1,29
 223 1188 223 1188 240 1188 c 2,0,-1
EndSplineSet
EndChar

StartChar: F
Encoding: 70 70 38
Width: 1229
GlyphClass: 2
Flags: W
AnchorPoint: "Anchor-8" 480 -120 basechar 0
LayerCount: 2
Fore
SplineSet
240 1188 m 2,0,-1
 976 1188 l 2,1,2
 993 1188 993 1188 1005.5 1175.5 c 128,-1,3
 1018 1163 1018 1163 1018 1146 c 128,-1,4
 1018 1129 1018 1129 1005.5 1116.5 c 128,-1,5
 993 1104 993 1104 976 1104 c 2,6,-1
 282 1104 l 1,7,-1
 282 636 l 1,8,-1
 792 636 l 2,9,10
 809 636 809 636 821.5 623.5 c 128,-1,11
 834 611 834 611 834 594 c 128,-1,12
 834 577 834 577 821.5 564.5 c 128,-1,13
 809 552 809 552 792 552 c 2,14,-1
 282 552 l 1,15,-1
 282 42 l 2,16,17
 282 25 282 25 269.5 12.5 c 128,-1,18
 257 0 257 0 240 0 c 128,-1,19
 223 0 223 0 210.5 12.5 c 128,-1,20
 198 25 198 25 198 42 c 2,21,-1
 198 1146 l 2,22,23
 198 1163 198 1163 210.5 1175.5 c 128,-1,24
 223 1188 223 1188 240 1188 c 2,0,-1
EndSplineSet
EndChar

StartChar: G
Encoding: 71 71 39
Width: 1229
GlyphClass: 2
Flags: W
AnchorPoint: "Anchor-8" 615 -120 basechar 0
LayerCount: 2
Fore
SplineSet
607.62890625 1187.99804688 m 0,0,1
 723.196795579 1189.02116976 723.196795579 1189.02116976 833.271734576 1134.3587446 c 128,-1,2
 943.346673573 1079.69631943 943.346673573 1079.69631943 1010.1328125 986.4609375 c 0,3,4
 1020.26354902 972.317783087 1020.26354902 972.317783087 1017.42663574 955.154052734 c 128,-1,5
 1014.58972246 937.990322382 1014.58972246 937.990322382 1000.44726562 927.859375 c 128,-1,6
 986.304273246 917.727679852 986.304273246 917.727679852 969.139404297 920.564453125 c 128,-1,7
 951.974535347 923.401226398 951.974535347 923.401226398 941.84375 937.544921875 c 0,8,9
 888.890738653 1011.46858553 888.890738653 1011.46858553 794.88539234 1058.14478657 c 128,-1,10
 700.880046028 1104.82098762 700.880046028 1104.82098762 608.37109375 1104.00195312 c 0,11,12
 472.394018508 1102.79866812 472.394018508 1102.79866812 377.197009254 1007.98435447 c 128,-1,13
 282 913.170040818 282 913.170040818 282 778 c 2,14,-1
 282 410 l 2,15,16
 282 275 282 275 377.5 179.5 c 128,-1,17
 473 84 473 84 608 84 c 128,-1,18
 743 84 743 84 838.5 179.5 c 128,-1,19
 934 275 934 275 934 410 c 2,20,-1
 934 552 l 1,21,-1
 608 552 l 2,22,23
 591 552 591 552 578.5 564.5 c 128,-1,24
 566 577 566 577 566 594 c 128,-1,25
 566 611 566 611 578.5 623.5 c 128,-1,26
 591 636 591 636 608 636 c 2,27,-1
 976 636 l 2,28,29
 993 636 993 636 1005.5 623.5 c 128,-1,30
 1018 611 1018 611 1018 594 c 2,31,-1
 1018 42 l 2,32,33
 1018 25 1018 25 1005.5 12.5 c 128,-1,34
 993 0 993 0 976 0 c 128,-1,35
 959 0 959 0 946.5 12.5 c 128,-1,36
 934 25 934 25 934 42 c 2,37,-1
 934 161.8515625 l 1,38,39
 876.634861156 86.6955815311 876.634861156 86.6955815311 791.21853882 43.3477907655 c 128,-1,40
 705.802216484 0 705.802216484 0 608 0 c 0,41,42
 439 0 439 0 318.5 120.5 c 128,-1,43
 198 241 198 241 198 410 c 2,44,-1
 198 778 l 2,45,46
 198 888.999866142 198 888.999866142 253.013292399 983.143068629 c 128,-1,47
 308.026584798 1077.28627112 308.026584798 1077.28627112 402.295301351 1132.15055116 c 128,-1,48
 496.564017905 1187.01483121 496.564017905 1187.01483121 607.62890625 1187.99804688 c 0,0,1
EndSplineSet
EndChar

StartChar: H
Encoding: 72 72 40
Width: 1229
GlyphClass: 2
Flags: W
AnchorPoint: "Anchor-8" 615 -120 basechar 0
LayerCount: 2
Fore
SplineSet
240 1188 m 128,-1,1
 257 1188 257 1188 269.5 1175.5 c 128,-1,2
 282 1163 282 1163 282 1146 c 2,3,-1
 282 636 l 1,4,-1
 934 636 l 1,5,-1
 934 1146 l 2,6,7
 934 1163 934 1163 946.5 1175.5 c 128,-1,8
 959 1188 959 1188 976 1188 c 128,-1,9
 993 1188 993 1188 1005.5 1175.5 c 128,-1,10
 1018 1163 1018 1163 1018 1146 c 2,11,-1
 1018 42 l 2,12,13
 1018 25 1018 25 1005.5 12.5 c 128,-1,14
 993 0 993 0 976 0 c 128,-1,15
 959 0 959 0 946.5 12.5 c 128,-1,16
 934 25 934 25 934 42 c 2,17,-1
 934 552 l 1,18,-1
 282 552 l 1,19,-1
 282 42 l 2,20,21
 282 25 282 25 269.5 12.5 c 128,-1,22
 257 0 257 0 240 0 c 128,-1,23
 223 0 223 0 210.5 12.5 c 128,-1,24
 198 25 198 25 198 42 c 2,25,-1
 198 1146 l 2,26,27
 198 1163 198 1163 210.5 1175.5 c 128,-1,0
 223 1188 223 1188 240 1188 c 128,-1,1
EndSplineSet
EndChar

StartChar: I
Encoding: 73 73 41
Width: 1229
GlyphClass: 2
Flags: W
AnchorPoint: "Anchor-8" 615 -120 basechar 0
LayerCount: 2
Fore
SplineSet
240 1188 m 2,0,-1
 976 1188 l 2,1,2
 993 1188 993 1188 1005.5 1175.5 c 128,-1,3
 1018 1163 1018 1163 1018 1146 c 128,-1,4
 1018 1129 1018 1129 1005.5 1116.5 c 128,-1,5
 993 1104 993 1104 976 1104 c 2,6,-1
 650 1104 l 1,7,-1
 650 84 l 1,8,-1
 976 84 l 2,9,10
 993 84 993 84 1005.5 71.5 c 128,-1,11
 1018 59 1018 59 1018 42 c 128,-1,12
 1018 25 1018 25 1005.5 12.5 c 128,-1,13
 993 0 993 0 976 0 c 2,14,-1
 240 0 l 2,15,16
 223 0 223 0 210.5 12.5 c 128,-1,17
 198 25 198 25 198 42 c 128,-1,18
 198 59 198 59 210.5 71.5 c 128,-1,19
 223 84 223 84 240 84 c 2,20,-1
 566 84 l 1,21,-1
 566 1104 l 1,22,-1
 240 1104 l 2,23,24
 223 1104 223 1104 210.5 1116.5 c 128,-1,25
 198 1129 198 1129 198 1146 c 128,-1,26
 198 1163 198 1163 210.5 1175.5 c 128,-1,27
 223 1188 223 1188 240 1188 c 2,0,-1
EndSplineSet
EndChar

StartChar: J
Encoding: 74 74 42
Width: 1229
GlyphClass: 2
Flags: W
AnchorPoint: "Anchor-8" 615 -120 basechar 0
LayerCount: 2
Fore
SplineSet
608 1188 m 2,0,-1
 976 1188 l 2,1,2
 993 1188 993 1188 1005.5 1175.5 c 128,-1,3
 1018 1163 1018 1163 1018 1146 c 2,4,-1
 1018 410 l 2,5,6
 1018 299.000017006 1018 299.000017006 962.987684385 204.85662546 c 128,-1,7
 907.97536877 110.713233915 907.97536877 110.713233915 813.70958124 55.8484526646 c 128,-1,8
 719.443793709 0.983671414258 719.443793709 0.983671414258 608.3828125 -0.001953125 c 0,9,10
 492.820331838 -1.02729988086 492.820331838 -1.02729988086 382.746263299 53.6340194175 c 128,-1,11
 272.672194761 108.295338716 272.672194761 108.295338716 205.88671875 201.53125 c 0,12,13
 195.75598223 215.674404413 195.75598223 215.674404413 198.592895508 232.838134766 c 128,-1,14
 201.429808786 250.001865118 201.429808786 250.001865118 215.572265625 260.1328125 c 128,-1,15
 229.715258004 270.264507648 229.715258004 270.264507648 246.880126953 267.427734375 c 128,-1,16
 264.044995903 264.590961102 264.044995903 264.590961102 274.17578125 250.447265625 c 0,17,18
 327.128162189 176.523752985 327.128162189 176.523752985 421.132170662 129.848320618 c 128,-1,19
 515.136179136 83.1728882506 515.136179136 83.1728882506 607.63671875 83.994140625 c 0,20,21
 743.607896078 85.2011069569 743.607896078 85.2011069569 838.803948039 180.016235978 c 128,-1,22
 934 274.831364999 934 274.831364999 934 410 c 2,23,-1
 934 1104 l 1,24,-1
 608 1104 l 2,25,26
 591 1104 591 1104 578.5 1116.5 c 128,-1,27
 566 1129 566 1129 566 1146 c 128,-1,28
 566 1163 566 1163 578.5 1175.5 c 128,-1,29
 591 1188 591 1188 608 1188 c 2,0,-1
EndSplineSet
EndChar

StartChar: K
Encoding: 75 75 43
Width: 1229
GlyphClass: 2
Flags: W
AnchorPoint: "Anchor-8" 615 -120 basechar 0
LayerCount: 2
Fore
SplineSet
240 1188 m 128,-1,1
 257 1188 257 1188 269.5 1175.5 c 128,-1,2
 282 1163 282 1163 282 1146 c 2,3,-1
 282 636 l 1,4,-1
 608 636 l 2,5,6
 691.715473187 636 691.715473187 636 749.971273626 665.027911448 c 128,-1,7
 808.227074065 694.055822896 808.227074065 694.055822896 849.0546875 755.296875 c 0,8,9
 934 882.714077994 934 882.714077994 934 1146 c 0,10,11
 934 1163 934 1163 946.5 1175.5 c 128,-1,12
 959 1188 959 1188 976 1188 c 128,-1,13
 993 1188 993 1188 1005.5 1175.5 c 128,-1,14
 1018 1163 1018 1163 1018 1146 c 0,15,16
 1018 857.283744128 1018 857.283744128 918.9453125 708.703125 c 0,17,18
 869.25319403 634.163492608 869.25319403 634.163492608 791.7421875 594 c 1,19,20
 869.25319403 553.836507392 869.25319403 553.836507392 918.9453125 479.296875 c 0,21,22
 1018 330.716255872 1018 330.716255872 1018 42 c 0,23,24
 1018 25 1018 25 1005.5 12.5 c 128,-1,25
 993 0 993 0 976 0 c 128,-1,26
 959 0 959 0 946.5 12.5 c 128,-1,27
 934 25 934 25 934 42 c 0,28,29
 934 305.285922006 934 305.285922006 849.0546875 432.703125 c 0,30,31
 808.227074065 493.944177104 808.227074065 493.944177104 749.971273626 522.972088552 c 128,-1,32
 691.715473187 552 691.715473187 552 608 552 c 2,33,-1
 282 552 l 1,34,-1
 282 42 l 2,35,36
 282 25 282 25 269.5 12.5 c 128,-1,37
 257 0 257 0 240 0 c 128,-1,38
 223 0 223 0 210.5 12.5 c 128,-1,39
 198 25 198 25 198 42 c 2,40,-1
 198 1146 l 2,41,42
 198 1163 198 1163 210.5 1175.5 c 128,-1,0
 223 1188 223 1188 240 1188 c 128,-1,1
EndSplineSet
EndChar

StartChar: L
Encoding: 76 76 44
Width: 1229
GlyphClass: 2
Flags: W
AnchorPoint: "Anchor-8" 615 -120 basechar 0
LayerCount: 2
Fore
SplineSet
240 1188 m 128,-1,1
 257 1188 257 1188 269.5 1175.5 c 128,-1,2
 282 1163 282 1163 282 1146 c 2,3,-1
 282 84 l 1,4,-1
 976 84 l 2,5,6
 993 84 993 84 1005.5 71.5 c 128,-1,7
 1018 59 1018 59 1018 42 c 128,-1,8
 1018 25 1018 25 1005.5 12.5 c 128,-1,9
 993 0 993 0 976 0 c 2,10,-1
 240 0 l 2,11,12
 223 0 223 0 210.5 12.5 c 128,-1,13
 198 25 198 25 198 42 c 2,14,-1
 198 1146 l 2,15,16
 198 1163 198 1163 210.5 1175.5 c 128,-1,0
 223 1188 223 1188 240 1188 c 128,-1,1
EndSplineSet
EndChar

StartChar: M
Encoding: 77 77 45
Width: 1229
GlyphClass: 2
Flags: W
AnchorPoint: "Anchor-8" 615 -120 basechar 0
LayerCount: 2
Fore
SplineSet
245.51171875 1187.62695312 m 128,-1,1
 264.388360596 1185.13076663 264.388360596 1185.13076663 274.9453125 1169.296875 c 2,2,-1
 608 669.71484375 l 1,3,-1
 941.0546875 1169.296875 l 2,4,5
 948.752308387 1180.84294016 948.752308387 1180.84294016 961.818156124 1185.52582226 c 128,-1,6
 974.884003862 1190.20870437 974.884003862 1190.20870437 988.16796875 1186.18652344 c 128,-1,7
 1001.45201346 1182.16431834 1001.45201346 1182.16431834 1009.72600673 1171.02030231 c 128,-1,8
 1018 1159.87628628 1018 1159.87628628 1018 1146 c 2,9,-1
 1018 42 l 2,10,11
 1018 25 1018 25 1005.5 12.5 c 128,-1,12
 993 0 993 0 976 0 c 128,-1,13
 959 0 959 0 946.5 12.5 c 128,-1,14
 934 25 934 25 934 42 c 2,15,-1
 934 1007.28515625 l 1,16,-1
 642.9453125 570.703125 l 2,17,18
 630.478759766 552.002929688 630.478759766 552.002929688 608 552.002929688 c 128,-1,19
 585.521240234 552.002929688 585.521240234 552.002929688 573.0546875 570.703125 c 2,20,-1
 282 1007.28515625 l 1,21,-1
 282 42 l 2,22,23
 282 25 282 25 269.5 12.5 c 128,-1,24
 257 0 257 0 240 0 c 128,-1,25
 223 0 223 0 210.5 12.5 c 128,-1,26
 198 25 198 25 198 42 c 2,27,-1
 198 1146 l 2,28,29
 198 1165.03371111 198 1165.03371111 212.31983902 1177.57845777 c 128,-1,0
 226.63967804 1190.12320442 226.63967804 1190.12320442 245.51171875 1187.62695312 c 128,-1,1
EndSplineSet
EndChar

StartChar: N
Encoding: 78 78 46
Width: 1229
GlyphClass: 2
Flags: W
AnchorPoint: "Anchor-8" 615 -120 basechar 0
LayerCount: 2
Fore
SplineSet
976 1188 m 128,-1,1
 993 1188 993 1188 1005.5 1175.5 c 128,-1,2
 1018 1163 1018 1163 1018 1146 c 0,3,4
 1018 1023 1018 1023 1018 720 c 128,-1,5
 1018 417 1018 417 1018 233 c 128,-1,6
 1018 49 1018 49 1018 42 c 0,7,8
 1017.99487305 28.1220767384 1017.99487305 28.1220767384 1009.72265933 16.9786418393 c 128,-1,9
 1001.4504456 5.8352069403 1001.4504456 5.8352069403 988.16796875 1.8134765625 c 128,-1,10
 974.884003862 -2.20870436937 974.884003862 -2.20870436937 961.818156124 2.47417773528 c 128,-1,11
 948.752308387 7.15705983994 948.752308387 7.15705983994 941.0546875 18.703125 c 2,12,-1
 282 1007.28515625 l 1,13,-1
 282 42 l 2,14,15
 282 25 282 25 269.5 12.5 c 128,-1,16
 257 0 257 0 240 0 c 128,-1,17
 223 0 223 0 210.5 12.5 c 128,-1,18
 198 25 198 25 198 42 c 2,19,-1
 198 1146 l 2,20,21
 198 1159.87628628 198 1159.87628628 206.273993269 1171.02030231 c 128,-1,22
 214.547986538 1182.16431834 214.547986538 1182.16431834 227.83203125 1186.18652344 c 128,-1,23
 241.115996138 1190.20870437 241.115996138 1190.20870437 254.181843876 1185.52582226 c 128,-1,24
 267.247691613 1180.84294016 267.247691613 1180.84294016 274.9453125 1169.296875 c 2,25,-1
 934 180.71484375 l 1,26,-1
 934 1146 l 2,27,28
 934 1163 934 1163 946.5 1175.5 c 128,-1,0
 959 1188 959 1188 976 1188 c 128,-1,1
EndSplineSet
EndChar

StartChar: O
Encoding: 79 79 47
Width: 1229
GlyphClass: 2
Flags: W
AnchorPoint: "Anchor-8" 615 -120 basechar 0
LayerCount: 2
Fore
SplineSet
608 1188 m 128,-1,1
 777 1188 777 1188 897.5 1067.5 c 128,-1,2
 1018 947 1018 947 1018 778 c 2,3,-1
 1018 410 l 2,4,5
 1018 241 1018 241 897.5 120.5 c 128,-1,6
 777 0 777 0 608 0 c 128,-1,7
 439 0 439 0 318.5 120.5 c 128,-1,8
 198 241 198 241 198 410 c 2,9,-1
 198 778 l 2,10,11
 198 947 198 947 318.5 1067.5 c 128,-1,0
 439 1188 439 1188 608 1188 c 128,-1,1
608 1104 m 128,-1,13
 473 1104 473 1104 377.5 1008.5 c 128,-1,14
 282 913 282 913 282 778 c 2,15,-1
 282 410 l 2,16,17
 282 275 282 275 377.5 179.5 c 128,-1,18
 473 84 473 84 608 84 c 128,-1,19
 743 84 743 84 838.5 179.5 c 128,-1,20
 934 275 934 275 934 410 c 2,21,-1
 934 778 l 2,22,23
 934 913 934 913 838.5 1008.5 c 128,-1,12
 743 1104 743 1104 608 1104 c 128,-1,13
EndSplineSet
EndChar

StartChar: P
Encoding: 80 80 48
Width: 1229
GlyphClass: 2
Flags: W
AnchorPoint: "Anchor-8" 480 -120 basechar 0
LayerCount: 2
Fore
SplineSet
240.00390625 1188 m 2,0,-1
 608.0234375 1187.97070312 l 2,1,2
 806.020237596 1187.95558667 806.020237596 1187.95558667 909.2109375 1110.56640625 c 0,3,4
 1018.0078125 1028.97132942 1018.0078125 1028.97132942 1018.0078125 869.9765625 c 128,-1,5
 1018.0078125 710.976820274 1018.0078125 710.976820274 909.2109375 629.376953125 c 0,6,7
 806.000721062 551.965795179 806.000721062 551.965795179 608.017578125 551.982421875 c 2,8,-1
 282 551.998046875 l 1,9,-1
 282 42 l 2,10,11
 282 25 282 25 269.5 12.5 c 128,-1,12
 257 0 257 0 240 0 c 128,-1,13
 223 0 223 0 210.5 12.5 c 128,-1,14
 198 25 198 25 198 42 c 2,15,-1
 198 1146 l 2,16,17
 198 1163.39718156 198 1163.39718156 210.303327107 1175.6993232 c 128,-1,18
 222.606654214 1188.00146485 222.606654214 1188.00146485 240.00390625 1188 c 2,0,-1
282 1103.99609375 m 1,19,-1
 282 635.998046875 l 1,20,21
 499.560742187 635.987295113 499.560742187 635.987295113 608.021484375 635.982421875 c 0,22,23
 778.010169321 635.97393863 778.010169321 635.97393863 858.810546875 696.576171875 c 0,24,25
 934.0078125 752.975935945 934.0078125 752.975935945 934.0078125 869.9765625 c 128,-1,26
 934.0078125 986.969462935 934.0078125 986.969462935 858.810546875 1043.36523438 c 0,27,28
 778.017102753 1103.95797762 778.017102753 1103.95797762 608.015625 1103.97070312 c 2,29,-1
 282 1103.99609375 l 1,19,-1
EndSplineSet
EndChar

StartChar: Q
Encoding: 81 81 49
Width: 1229
GlyphClass: 2
Flags: W
AnchorPoint: "Anchor-8" 615 -330 basechar 0
LayerCount: 2
Fore
SplineSet
608 1188 m 128,-1,1
 777 1188 777 1188 897.5 1067.5 c 128,-1,2
 1018 947 1018 947 1018 778 c 2,3,-1
 1018 410 l 2,4,5
 1018 264.571352317 1018 264.571352317 925.876953125 151.521484375 c 1,6,-1
 1005.69921875 71.69921875 l 2,7,8
 1018.00097656 59.3974609375 1018.00097656 59.3974609375 1018.00097656 42 c 128,-1,9
 1018.00097656 24.6025390625 1018.00097656 24.6025390625 1005.69921875 12.30078125 c 128,-1,10
 993.397460938 -0.0009765625 993.397460938 -0.0009765625 976 -0.0009765625 c 128,-1,11
 958.602539062 -0.0009765625 958.602539062 -0.0009765625 946.30078125 12.30078125 c 2,12,-1
 866.478515625 92.123046875 l 1,13,14
 753.428647683 0 753.428647683 0 608 0 c 0,15,16
 439 0 439 0 318.5 120.5 c 128,-1,17
 198 241 198 241 198 410 c 2,18,-1
 198 778 l 2,19,20
 198 947 198 947 318.5 1067.5 c 128,-1,0
 439 1188 439 1188 608 1188 c 128,-1,1
608 1104 m 128,-1,22
 473 1104 473 1104 377.5 1008.5 c 128,-1,23
 282 913 282 913 282 778 c 2,24,-1
 282 410 l 2,25,26
 282 275 282 275 377.5 179.5 c 128,-1,27
 473 84 473 84 608 84 c 0,28,29
 719.287877721 84 719.287877721 84 807.02734375 151.57421875 c 1,30,-1
 578.30078125 380.30078125 l 2,31,32
 565.998854797 392.602707703 565.998854797 392.602707703 565.998657227 410 c 128,-1,33
 565.998459656 427.397292297 565.998459656 427.397292297 578.30078125 439.69921875 c 128,-1,34
 590.603087705 452 590.603087705 452 608 452 c 128,-1,35
 625.3984375 452 625.3984375 452 637.69921875 439.69921875 c 2,36,-1
 866.42578125 210.97265625 l 1,37,38
 934 298.712122279 934 298.712122279 934 410 c 2,39,-1
 934 778 l 2,40,41
 934 913 934 913 838.5 1008.5 c 128,-1,21
 743 1104 743 1104 608 1104 c 128,-1,22
EndSplineSet
EndChar

StartChar: R
Encoding: 82 82 50
Width: 1229
GlyphClass: 2
Flags: W
AnchorPoint: "Anchor-8" 615 -120 basechar 0
LayerCount: 2
Fore
SplineSet
240 1188 m 2,0,-1
 608 1188 l 2,1,2
 805.995819697 1188 805.995819697 1188 909.19140625 1110.6015625 c 0,3,4
 1017.98828125 1029.00206381 1017.98828125 1029.00206381 1017.98828125 870.00390625 c 128,-1,5
 1017.98828125 711.008180988 1017.98828125 711.008180988 909.19140625 629.41015625 c 0,6,7
 868.827885532 599.136794161 868.827885532 599.136794161 814.818359375 580.8046875 c 1,8,9
 877.134387949 542.013261827 877.134387949 542.013261827 918.9453125 479.296875 c 0,10,11
 1018 330.716255872 1018 330.716255872 1018 42 c 0,12,13
 1018 25 1018 25 1005.5 12.5 c 128,-1,14
 993 0 993 0 976 0 c 128,-1,15
 959 0 959 0 946.5 12.5 c 128,-1,16
 934 25 934 25 934 42 c 0,17,18
 934 305.285922006 934 305.285922006 849.0546875 432.703125 c 0,19,20
 808.227074065 493.944177104 808.227074065 493.944177104 749.971273626 522.972088552 c 128,-1,21
 691.715473187 552 691.715473187 552 608 552 c 2,22,-1
 282 552 l 1,23,-1
 282 42 l 2,24,25
 282 25 282 25 269.5 12.5 c 128,-1,26
 257 0 257 0 240 0 c 128,-1,27
 223 0 223 0 210.5 12.5 c 128,-1,28
 198 25 198 25 198 42 c 2,29,-1
 198 1146 l 2,30,31
 198 1163 198 1163 210.5 1175.5 c 128,-1,32
 223 1188 223 1188 240 1188 c 2,0,-1
282 1104 m 1,33,-1
 282 636 l 1,34,35
 489.457386364 636 489.457386364 636 608 636.01171875 c 0,36,37
 778.01728608 636.028687954 778.01728608 636.028687954 858.791015625 696.609375 c 0,38,39
 933.98828125 753.007687189 933.98828125 753.007687189 933.98828125 870.00390625 c 128,-1,40
 933.98828125 987.004031561 933.98828125 987.004031561 858.791015625 1043.40234375 c 0,41,42
 777.99466062 1104 777.99466062 1104 608 1104 c 2,43,-1
 282 1104 l 1,33,-1
EndSplineSet
EndChar

StartChar: S
Encoding: 83 83 51
Width: 1229
GlyphClass: 2
Flags: W
AnchorPoint: "Anchor-8" 615 -120 basechar 0
LayerCount: 2
Fore
SplineSet
608.01953125 1187.97070312 m 128,-1,1
 806.015350947 1187.97070312 806.015350947 1187.97070312 909.2109375 1110.57226562 c 0,2,3
 1018.0078125 1028.97276693 1018.0078125 1028.97276693 1018.0078125 869.9765625 c 0,4,5
 1018.0078125 852.591064453 1018.0078125 852.591064453 1005.70056152 840.283813477 c 128,-1,6
 993.393310547 827.9765625 993.393310547 827.9765625 976.0078125 827.9765625 c 128,-1,7
 958.622314453 827.9765625 958.622314453 827.9765625 946.315063477 840.283813477 c 128,-1,8
 934.0078125 852.591064453 934.0078125 852.591064453 934.0078125 869.9765625 c 0,9,10
 934.0078125 986.974734686 934.0078125 986.974734686 858.810546875 1043.37304688 c 0,11,12
 778.01419187 1103.97070312 778.01419187 1103.97070312 608.01953125 1103.97070312 c 128,-1,13
 438.02487063 1103.97070312 438.02487063 1103.97070312 357.228515625 1043.37304688 c 0,14,15
 282.03125 986.974734686 282.03125 986.974734686 282.03125 869.9765625 c 128,-1,16
 282.03125 752.978014371 282.03125 752.978014371 357.2265625 696.580078125 c 0,17,18
 438.021357519 635.982421875 438.021357519 635.982421875 608.009765625 635.982421875 c 0,19,20
 805.997306833 635.982421875 805.997306833 635.982421875 909.193359375 558.583984375 c 0,21,22
 1017.98828125 476.986319022 1017.98828125 476.986319022 1017.98828125 317.990234375 c 128,-1,23
 1017.98828125 158.996462238 1017.98828125 158.996462238 909.19140625 77.3984375 c 0,24,25
 805.993955614 0 805.993955614 0 608 0 c 128,-1,26
 410.006044386 0 410.006044386 0 306.80859375 77.3984375 c 0,27,28
 198.01171875 158.996462238 198.01171875 158.996462238 198.01171875 317.994140625 c 0,29,30
 198.01171875 335.379638672 198.01171875 335.379638672 210.318969727 347.686889648 c 128,-1,31
 222.626220703 359.994140625 222.626220703 359.994140625 240.01171875 359.994140625 c 128,-1,32
 257.397216797 359.994140625 257.397216797 359.994140625 269.704467773 347.686889648 c 128,-1,33
 282.01171875 335.379638672 282.01171875 335.379638672 282.01171875 317.994140625 c 0,34,35
 282.01171875 200.995968439 282.01171875 200.995968439 357.208984375 144.59765625 c 0,36,37
 438.00533938 84 438.00533938 84 608 84 c 128,-1,38
 777.99466062 84 777.99466062 84 858.791015625 144.59765625 c 0,39,40
 933.98828125 200.995968439 933.98828125 200.995968439 933.98828125 317.990234375 c 128,-1,41
 933.98828125 434.986829379 933.98828125 434.986829379 858.79296875 491.384765625 c 0,42,43
 777.998173731 551.982421875 777.998173731 551.982421875 608.009765625 551.982421875 c 0,44,45
 410.022224417 551.982421875 410.022224417 551.982421875 306.826171875 629.380859375 c 0,46,47
 198.03125 710.978524728 198.03125 710.978524728 198.03125 869.9765625 c 128,-1,48
 198.03125 1028.97276693 198.03125 1028.97276693 306.828125 1110.57226562 c 0,49,0
 410.023711553 1187.97070312 410.023711553 1187.97070312 608.01953125 1187.97070312 c 128,-1,1
EndSplineSet
EndChar

StartChar: T
Encoding: 84 84 52
Width: 1229
GlyphClass: 2
Flags: W
AnchorPoint: "Anchor-8" 615 -120 basechar 0
LayerCount: 2
Fore
SplineSet
240 1188 m 2,0,-1
 976 1188 l 2,1,2
 993 1188 993 1188 1005.5 1175.5 c 128,-1,3
 1018 1163 1018 1163 1018 1146 c 128,-1,4
 1018 1129 1018 1129 1005.5 1116.5 c 128,-1,5
 993 1104 993 1104 976 1104 c 2,6,-1
 650 1104 l 1,7,-1
 650 42 l 2,8,9
 650 25 650 25 637.5 12.5 c 128,-1,10
 625 0 625 0 608 0 c 128,-1,11
 591 0 591 0 578.5 12.5 c 128,-1,12
 566 25 566 25 566 42 c 2,13,-1
 566 1104 l 1,14,-1
 240 1104 l 2,15,16
 223 1104 223 1104 210.5 1116.5 c 128,-1,17
 198 1129 198 1129 198 1146 c 128,-1,18
 198 1163 198 1163 210.5 1175.5 c 128,-1,19
 223 1188 223 1188 240 1188 c 2,0,-1
EndSplineSet
EndChar

StartChar: U
Encoding: 85 85 53
Width: 1229
GlyphClass: 2
Flags: W
AnchorPoint: "Anchor-8" 615 -120 basechar 0
LayerCount: 2
Fore
SplineSet
240 1188 m 128,-1,1
 257 1188 257 1188 269.5 1175.5 c 128,-1,2
 282 1163 282 1163 282 1146 c 2,3,-1
 282 410 l 2,4,5
 282 275 282 275 377.5 179.5 c 128,-1,6
 473 84 473 84 608 84 c 128,-1,7
 743 84 743 84 838.5 179.5 c 128,-1,8
 934 275 934 275 934 410 c 2,9,-1
 934 1146 l 2,10,11
 934 1163 934 1163 946.5 1175.5 c 128,-1,12
 959 1188 959 1188 976 1188 c 128,-1,13
 993 1188 993 1188 1005.5 1175.5 c 128,-1,14
 1018 1163 1018 1163 1018 1146 c 2,15,-1
 1018 410 l 2,16,17
 1018 241 1018 241 897.5 120.5 c 128,-1,18
 777 0 777 0 608 0 c 128,-1,19
 439 0 439 0 318.5 120.5 c 128,-1,20
 198 241 198 241 198 410 c 2,21,-1
 198 1146 l 2,22,23
 198 1163 198 1163 210.5 1175.5 c 128,-1,0
 223 1188 223 1188 240 1188 c 128,-1,1
EndSplineSet
EndChar

StartChar: V
Encoding: 86 86 54
Width: 1229
GlyphClass: 2
Flags: W
AnchorPoint: "Anchor-8" 615 -120 basechar 0
LayerCount: 2
Fore
SplineSet
242.9765625 1187.89453125 m 0,0,1
 270.969058918 1185.90532325 270.969058918 1185.90532325 279.84375 1159.28125 c 2,2,-1
 608 174.8125 l 1,3,-1
 936.15625 1159.28125 l 2,4,5
 941.657470703 1175.78491211 941.657470703 1175.78491211 957.217529297 1183.56494141 c 128,-1,6
 972.777587891 1191.3449707 972.777587891 1191.3449707 989.28125 1185.84375 c 128,-1,7
 1005.78491211 1180.3425293 1005.78491211 1180.3425293 1013.56494141 1164.7824707 c 128,-1,8
 1021.3449707 1149.22241211 1021.3449707 1149.22241211 1015.84375 1132.71875 c 2,9,-1
 647.84375 28.71875 l 2,10,11
 643.557353395 15.8602925261 643.557353395 15.8602925261 632.55725015 7.93600563807 c 128,-1,12
 621.557146906 0.01171875 621.557146906 0.01171875 608 0.01171875 c 128,-1,13
 594.442853094 0.01171875 594.442853094 0.01171875 583.44274985 7.93600563807 c 128,-1,14
 572.442646605 15.8602925261 572.442646605 15.8602925261 568.15625 28.71875 c 2,15,-1
 200.15625 1132.71875 l 2,16,17
 194.655063025 1149.22231093 194.655063025 1149.22231093 202.435024864 1164.78203703 c 128,-1,18
 210.214986704 1180.34176314 210.214986704 1180.34176314 226.71875 1185.84375 c 0,19,20
 234.645799223 1188.48609974 234.645799223 1188.48609974 242.9765625 1187.89453125 c 0,0,1
EndSplineSet
EndChar

StartChar: W
Encoding: 87 87 55
Width: 1229
GlyphClass: 2
Flags: W
AnchorPoint: "Anchor-8" 615 -120 basechar 0
LayerCount: 2
Fore
SplineSet
240 1188 m 128,-1,1
 257 1188 257 1188 269.5 1175.5 c 128,-1,2
 282 1163 282 1163 282 1146 c 2,3,-1
 282 594 l 2,4,5
 282 324.821416742 282 324.821416742 325.845703125 193.28125 c 0,6,7
 345.709268393 133.689169107 345.709268393 133.689169107 373.19921875 106.19921875 c 0,8,9
 395.3984375 84 395.3984375 84 424 84 c 128,-1,10
 452.6015625 84 452.6015625 84 474.80078125 106.19921875 c 0,11,12
 502.293661261 133.692098761 502.293661261 133.692098761 522.15625 193.28125 c 0,13,14
 565.571079561 323.524225074 565.571079561 323.524225074 566 594 c 0,15,16
 566.027021786 611.175631394 566.027021786 611.175631394 578.375795297 623.292893822 c 128,-1,17
 590.724568808 635.41015625 590.724568808 635.41015625 608 635.41015625 c 128,-1,18
 625.275431192 635.41015625 625.275431192 635.41015625 637.624204703 623.292893822 c 128,-1,19
 649.972978214 611.175631394 649.972978214 611.175631394 650 594 c 0,20,21
 650.428920439 323.524225074 650.428920439 323.524225074 693.84375 193.28125 c 0,22,23
 713.706338739 133.692098761 713.706338739 133.692098761 741.19921875 106.19921875 c 0,24,25
 763.3984375 84 763.3984375 84 792 84 c 128,-1,26
 820.6015625 84 820.6015625 84 842.80078125 106.19921875 c 0,27,28
 870.290731607 133.689169107 870.290731607 133.689169107 890.154296875 193.28125 c 0,29,30
 934 324.821416742 934 324.821416742 934 594 c 2,31,-1
 934 1146 l 2,32,33
 934 1163 934 1163 946.5 1175.5 c 128,-1,34
 959 1188 959 1188 976 1188 c 128,-1,35
 993 1188 993 1188 1005.5 1175.5 c 128,-1,36
 1018 1163 1018 1163 1018 1146 c 2,37,-1
 1018 594 l 2,38,39
 1018 311.186088745 1018 311.186088745 969.84375 166.71875 c 0,40,41
 943.707797206 88.3093597061 943.707797206 88.3093597061 902.19921875 46.80078125 c 0,42,43
 855.3984375 0 855.3984375 0 792 0 c 128,-1,44
 728.6015625 0 728.6015625 0 681.80078125 46.80078125 c 0,45,46
 640.292202794 88.3093597061 640.292202794 88.3093597061 614.15625 166.71875 c 0,47,48
 611.018283029 176.134091009 611.018283029 176.134091009 608 186.38671875 c 1,49,50
 604.981716971 176.134091009 604.981716971 176.134091009 601.84375 166.71875 c 0,51,52
 575.707797206 88.3093597061 575.707797206 88.3093597061 534.19921875 46.80078125 c 0,53,54
 487.3984375 0 487.3984375 0 424 0 c 128,-1,55
 360.6015625 0 360.6015625 0 313.80078125 46.80078125 c 0,56,57
 272.292202794 88.3093597061 272.292202794 88.3093597061 246.15625 166.71875 c 0,58,59
 198 311.186088745 198 311.186088745 198 594 c 2,60,-1
 198 1146 l 2,61,62
 198 1163 198 1163 210.5 1175.5 c 128,-1,0
 223 1188 223 1188 240 1188 c 128,-1,1
EndSplineSet
EndChar

StartChar: X
Encoding: 88 88 56
Width: 1229
GlyphClass: 2
Flags: W
AnchorPoint: "Anchor-8" 615 -120 basechar 0
LayerCount: 2
Fore
SplineSet
231.849609375 1187.20117188 m 0,0,1
 259.378687789 1192.64600542 259.378687789 1192.64600542 274.9453125 1169.296875 c 2,2,-1
 608 669.71484375 l 1,3,-1
 941.0546875 1169.296875 l 2,4,5
 956.621312211 1192.64600542 956.621312211 1192.64600542 984.150390625 1187.20117188 c 0,6,7
 992.345205453 1185.580252 992.345205453 1185.580252 999.296875 1180.9453125 c 0,8,9
 1013.7716896 1171.29494782 1013.7716896 1171.29494782 1017.18334961 1154.2364502 c 128,-1,10
 1020.59500962 1137.17795257 1020.59500962 1137.17795257 1010.9453125 1122.703125 c 2,11,-1
 658.4765625 594 l 1,12,-1
 1010.9453125 65.296875 l 2,13,14
 1020.59504854 50.8220733713 1020.59504854 50.8220733713 1017.18334961 33.7631835938 c 128,-1,15
 1013.77165068 16.7042938162 1013.77165068 16.7042938162 999.296875 7.0546875 c 128,-1,16
 984.822073371 -2.59504853549 984.822073371 -2.59504853549 967.763183594 0.816650390625 c 128,-1,17
 950.704293816 4.22834931674 950.704293816 4.22834931674 941.0546875 18.703125 c 2,18,-1
 608 518.28515625 l 1,19,-1
 274.9453125 18.703125 l 2,20,21
 265.295706184 4.22834931674 265.295706184 4.22834931674 248.236816406 0.816650390625 c 128,-1,22
 231.177926629 -2.59504853549 231.177926629 -2.59504853549 216.703125 7.0546875 c 128,-1,23
 202.228349317 16.7042938162 202.228349317 16.7042938162 198.816650391 33.7631835938 c 128,-1,24
 195.404951465 50.8220733713 195.404951465 50.8220733713 205.0546875 65.296875 c 2,25,-1
 557.5234375 594 l 1,26,-1
 205.0546875 1122.703125 l 2,27,28
 195.405184968 1137.17808231 195.405184968 1137.17808231 198.817016602 1154.2364502 c 128,-1,29
 202.228848235 1171.29481808 202.228848235 1171.29481808 216.703125 1180.9453125 c 0,30,31
 223.654794547 1185.580252 223.654794547 1185.580252 231.849609375 1187.20117188 c 0,0,1
EndSplineSet
EndChar

StartChar: Y
Encoding: 89 89 57
Width: 1229
GlyphClass: 2
Flags: W
AnchorPoint: "Anchor-8" 615 -120 basechar 0
LayerCount: 2
Fore
SplineSet
231.849609375 1187.20117188 m 0,0,1
 259.378687789 1192.64600542 259.378687789 1192.64600542 274.9453125 1169.296875 c 2,2,-1
 608 669.71484375 l 1,3,-1
 941.0546875 1169.296875 l 2,4,5
 950.704293816 1183.77165068 950.704293816 1183.77165068 967.763183594 1187.18334961 c 128,-1,6
 984.822073371 1190.59504854 984.822073371 1190.59504854 999.296875 1180.9453125 c 128,-1,7
 1013.77165068 1171.29570618 1013.77165068 1171.29570618 1017.18334961 1154.23681641 c 128,-1,8
 1020.59504854 1137.17792663 1020.59504854 1137.17792663 1010.9453125 1122.703125 c 2,9,-1
 650 581.28515625 l 1,10,-1
 650 42 l 2,11,12
 650 25 650 25 637.5 12.5 c 128,-1,13
 625 0 625 0 608 0 c 128,-1,14
 591 0 591 0 578.5 12.5 c 128,-1,15
 566 25 566 25 566 42 c 2,16,-1
 566 581.28515625 l 1,17,-1
 205.0546875 1122.703125 l 2,18,19
 195.405184968 1137.17808231 195.405184968 1137.17808231 198.817016602 1154.2364502 c 128,-1,20
 202.228848235 1171.29481808 202.228848235 1171.29481808 216.703125 1180.9453125 c 0,21,22
 223.654794547 1185.580252 223.654794547 1185.580252 231.849609375 1187.20117188 c 0,0,1
EndSplineSet
EndChar

StartChar: Z
Encoding: 90 90 58
Width: 1229
GlyphClass: 2
Flags: W
AnchorPoint: "Anchor-8" 615 -120 basechar 0
LayerCount: 2
Fore
SplineSet
240 1188 m 2,0,-1
 976 1188 l 2,1,2
 1001.15571842 1188 1001.15571842 1188 1013.02758789 1165.81677246 c 128,-1,3
 1024.89945736 1143.63354492 1024.89945736 1143.63354492 1010.9453125 1122.703125 c 2,4,-1
 318.4765625 84 l 1,5,-1
 976 84 l 2,6,7
 993 84 993 84 1005.5 71.5 c 128,-1,8
 1018 59 1018 59 1018 42 c 128,-1,9
 1018 25 1018 25 1005.5 12.5 c 128,-1,10
 993 0 993 0 976 0 c 2,11,-1
 240 0 l 2,12,13
 214.844281578 0 214.844281578 0 202.972412109 22.1832275391 c 128,-1,14
 191.10054264 44.3664550781 191.10054264 44.3664550781 205.0546875 65.296875 c 2,15,-1
 897.5234375 1104 l 1,16,-1
 240 1104 l 2,17,18
 223 1104 223 1104 210.5 1116.5 c 128,-1,19
 198 1129 198 1129 198 1146 c 128,-1,20
 198 1163 198 1163 210.5 1175.5 c 128,-1,21
 223 1188 223 1188 240 1188 c 2,0,-1
EndSplineSet
EndChar

StartChar: bracketleft
Encoding: 91 91 59
Width: 1229
GlyphClass: 2
Flags: W
LayerCount: 2
Fore
SplineSet
700 1372 m 2,0,1
 717 1372 717 1372 729.5 1359.5 c 128,-1,2
 742 1347 742 1347 742 1330 c 128,-1,3
 742 1313 742 1313 729.5 1300.5 c 128,-1,4
 717 1288 717 1288 700 1288 c 2,5,-1
 558 1288 l 1,6,-1
 558 -100 l 1,7,-1
 700 -100 l 2,8,9
 717 -100 717 -100 729.5 -112.5 c 128,-1,10
 742 -125 742 -125 742 -142 c 128,-1,11
 742 -159 742 -159 729.5 -171.5 c 128,-1,12
 717 -184 717 -184 700 -184 c 2,13,-1
 516 -184 l 2,14,15
 499 -184 499 -184 486.5 -171.5 c 128,-1,16
 474 -159 474 -159 474 -142 c 2,17,-1
 474 1330 l 2,18,19
 474 1347 474 1347 486.5 1359.5 c 128,-1,20
 499 1372 499 1372 516 1372 c 2,21,-1
 700 1372 l 2,0,1
EndSplineSet
EndChar

StartChar: backslash
Encoding: 92 92 60
Width: 1229
GlyphClass: 2
Flags: W
LayerCount: 2
Fore
SplineSet
231.849609375 1187.20117188 m 0,0,1
 236.100771776 1188.04199219 236.100771776 1188.04199219 239.974609375 1188.04199219 c 0,2,3
 262.448567708 1188.04199219 262.448567708 1188.04199219 274.9453125 1169.296875 c 0,4,5
 321.497184753 1099.4743369 321.497184753 1099.4743369 397.713082631 985.157404945 c 128,-1,6
 473.928980509 870.840472993 473.928980509 870.840472993 635.212286631 628.927281334 c 128,-1,7
 796.495592753 387.014089675 796.495592753 387.014089675 903.732034047 226.152461097 c 128,-1,8
 1010.96847534 65.2908325195 1010.96847534 65.2908325195 1010.9453125 65.296875 c 1,9,10
 1018.04101562 54.6517594451 1018.04101562 54.6517594451 1018.04101562 42.025390625 c 0,11,12
 1018.04101562 19.5518615728 1018.04101562 19.5518615728 999.296875 7.0546875 c 0,13,14
 988.651759445 -0.041015625 988.651759445 -0.041015625 976.025390625 -0.041015625 c 0,15,16
 953.551861573 -0.041015625 953.551861573 -0.041015625 941.0546875 18.703125 c 0,17,18
 894.502815247 88.5256631029 894.502815247 88.5256631029 818.286917369 202.842595055 c 128,-1,19
 742.071019491 317.159527007 742.071019491 317.159527007 580.787713369 559.072718666 c 128,-1,20
 419.504407247 800.985910325 419.504407247 800.985910325 312.267965953 961.847538903 c 128,-1,21
 205.031524658 1122.70916748 205.031524658 1122.70916748 205.0546875 1122.703125 c 1,22,23
 197.958984375 1133.34824055 197.958984375 1133.34824055 197.958984375 1145.97460938 c 0,24,25
 197.958984375 1168.44813843 197.958984375 1168.44813843 216.703125 1180.9453125 c 0,26,27
 223.653484001 1185.57888517 223.653484001 1185.57888517 231.849609375 1187.20117188 c 0,0,1
EndSplineSet
EndChar

StartChar: bracketright
Encoding: 93 93 61
Width: 1229
GlyphClass: 2
Flags: W
LayerCount: 2
Fore
SplineSet
516 1372 m 2,0,-1
 700 1372 l 2,1,2
 717 1372 717 1372 729.5 1359.5 c 128,-1,3
 742 1347 742 1347 742 1330 c 2,4,-1
 742 -142 l 2,5,6
 742 -159 742 -159 729.5 -171.5 c 128,-1,7
 717 -184 717 -184 700 -184 c 2,8,-1
 516 -184 l 2,9,10
 499 -184 499 -184 486.5 -171.5 c 128,-1,11
 474 -159 474 -159 474 -142 c 128,-1,12
 474 -125 474 -125 486.5 -112.5 c 128,-1,13
 499 -100 499 -100 516 -100 c 2,14,-1
 658 -100 l 1,15,-1
 658 1288 l 1,16,-1
 516 1288 l 2,17,18
 499 1288 499 1288 486.5 1300.5 c 128,-1,19
 474 1313 474 1313 474 1330 c 128,-1,20
 474 1347 474 1347 486.5 1359.5 c 128,-1,21
 499 1372 499 1372 516 1372 c 2,0,-1
EndSplineSet
EndChar

StartChar: asciicircum
Encoding: 94 94 62
Width: 1229
GlyphClass: 2
Flags: W
LayerCount: 2
Fore
SplineSet
608 1187.99804688 m 128,-1,1
 625.400390625 1187.99804688 625.400390625 1187.99804688 637.69921875 1175.69921875 c 2,2,-1
 821.69921875 991.69921875 l 2,3,4
 834.000976562 979.397460938 834.000976562 979.397460938 834.000976562 962 c 128,-1,5
 834.000976562 944.602539062 834.000976562 944.602539062 821.69921875 932.30078125 c 128,-1,6
 809.397460938 919.999023438 809.397460938 919.999023438 792 919.999023438 c 128,-1,7
 774.602539062 919.999023438 774.602539062 919.999023438 762.30078125 932.30078125 c 2,8,-1
 608 1086.6015625 l 1,9,-1
 453.69921875 932.30078125 l 2,10,11
 441.397460938 919.999023438 441.397460938 919.999023438 424 919.999023438 c 128,-1,12
 406.602539062 919.999023438 406.602539062 919.999023438 394.30078125 932.30078125 c 128,-1,13
 381.999023438 944.602539062 381.999023438 944.602539062 381.999023438 962 c 128,-1,14
 381.999023438 979.397460938 381.999023438 979.397460938 394.30078125 991.69921875 c 2,15,-1
 578.30078125 1175.69921875 l 2,16,0
 590.599609375 1187.99804688 590.599609375 1187.99804688 608 1187.99804688 c 128,-1,1
EndSplineSet
EndChar

StartChar: underscore
Encoding: 95 95 63
Width: 1229
GlyphClass: 2
Flags: W
LayerCount: 2
Fore
SplineSet
240 -284 m 2,0,-1
 976 -284 l 2,1,2
 993 -284 993 -284 1005.5 -296.5 c 128,-1,3
 1018 -309 1018 -309 1018 -326 c 128,-1,4
 1018 -343 1018 -343 1005.5 -355.5 c 128,-1,5
 993 -368 993 -368 976 -368 c 2,6,-1
 240 -368 l 2,7,8
 223 -368 223 -368 210.5 -355.5 c 128,-1,9
 198 -343 198 -343 198 -326 c 128,-1,10
 198 -309 198 -309 210.5 -296.5 c 128,-1,11
 223 -284 223 -284 240 -284 c 2,0,-1
EndSplineSet
EndChar

StartChar: grave
Encoding: 96 96 64
Width: 1229
GlyphClass: 2
Flags: W
LayerCount: 2
Fore
SplineSet
426.9765625 1187.89453125 m 0,0,1
 435.310302835 1187.30285639 435.310302835 1187.30285639 442.783203125 1183.56640625 c 2,2,-1
 810.783203125 999.56640625 l 2,3,4
 826.343640772 991.785821212 826.343640772 991.785821212 831.845214844 975.281494141 c 128,-1,5
 837.346788915 958.777167069 837.346788915 958.777167069 829.56640625 943.216796875 c 128,-1,6
 821.785821212 927.656359228 821.785821212 927.656359228 805.281494141 922.154785156 c 128,-1,7
 788.777167069 916.653211085 788.777167069 916.653211085 773.216796875 924.43359375 c 2,8,-1
 405.216796875 1108.43359375 l 2,9,10
 389.656359228 1116.21417879 389.656359228 1116.21417879 384.154785156 1132.71850586 c 128,-1,11
 378.653211085 1149.22283293 378.653211085 1149.22283293 386.43359375 1164.78320312 c 0,12,13
 398.983868823 1189.88375327 398.983868823 1189.88375327 426.9765625 1187.89453125 c 0,0,1
EndSplineSet
EndChar

StartChar: a
Encoding: 97 97 65
Width: 1229
GlyphClass: 2
Flags: W
AnchorPoint: "Anchor-8" 615 -120 basechar 0
LayerCount: 2
Fore
SplineSet
608.015625 819.978515625 m 0,0,-1
 608.01953125 819.978515625 l 2,1,2
 801.839386016 819.978515625 801.839386016 819.978515625 902.7578125 769.625 c 0,3,4
 956.67350011 742.723625166 956.67350011 742.723625166 987.336750055 696.574940113 c 128,-1,5
 1018 650.42625506 1018 650.42625506 1018 594.498046875 c 2,6,-1
 1018 42 l 2,7,8
 1018 25 1018 25 1005.5 12.5 c 128,-1,9
 993 0 993 0 976 0 c 128,-1,10
 959 0 959 0 946.5 12.5 c 128,-1,11
 934 25 934 25 934 42 c 2,12,-1
 934 119.48046875 l 1,13,14
 865.730777174 61.5505226012 865.730777174 61.5505226012 779.839959525 29.8452232052 c 128,-1,15
 693.949141877 -1.86007619085 693.949141877 -1.86007619085 607.259765625 0.005859375 c 0,16,17
 413.899784927 0.0989356617004 413.899784927 0.0989356617004 313.2421875 50.427734375 c 0,18,19
 259.319788003 77.3893031364 259.319788003 77.3893031364 228.670978288 123.647536288 c 128,-1,20
 198.022168573 169.90576944 198.022168573 169.90576944 198.015625 225.9921875 c 128,-1,21
 198.008354467 282.079262241 198.008354467 282.079262241 228.651700818 328.34049771 c 128,-1,22
 259.295047169 374.601733179 259.295047169 374.601733179 313.216796875 401.564453125 c 0,23,24
 414.080987887 452 414.080987887 452 607.994140625 452 c 2,25,-1
 934.001953125 452 l 1,26,-1
 934.00390625 594.501953125 l 2,27,28
 934.005387757 630.163317374 934.005387757 630.163317374 918.676126171 652.810768095 c 128,-1,29
 903.346864585 675.458218815 903.346864585 675.458218815 865.2578125 694.462890625 c 0,30,31
 782.052439697 735.978515625 782.052439697 735.978515625 608.01953125 735.978515625 c 128,-1,32
 433.937871103 735.978515625 433.937871103 735.978515625 350.810546875 694.4140625 c 0,33,34
 312.718789872 675.367821531 312.718789872 675.367821531 297.375019936 652.617900603 c 128,-1,35
 282.03125 629.867979675 282.03125 629.867979675 282.03125 593.982421875 c 0,36,37
 282.03125 576.585205078 282.03125 576.585205078 269.729858398 564.283813477 c 128,-1,38
 257.428466797 551.982421875 257.428466797 551.982421875 240.03125 551.982421875 c 128,-1,39
 222.634033203 551.982421875 222.634033203 551.982421875 210.332641602 564.283813477 c 128,-1,40
 198.03125 576.585205078 198.03125 576.585205078 198.03125 593.982421875 c 0,41,42
 198.03125 650.067693083 198.03125 650.067693083 228.677016112 696.325783371 c 128,-1,43
 259.322782225 742.583873659 259.322782225 742.583873659 313.244140625 769.544921875 c 0,44,45
 414.109947555 819.978515625 414.109947555 819.978515625 608.015625 819.978515625 c 0,0,-1
607.994140625 368 m 2,46,47
 433.911269337 368 433.911269337 368 350.783203125 326.43359375 c 0,48,49
 312.692510254 307.3871599 312.692510254 307.3871599 297.351846461 284.638244091 c 128,-1,50
 282.011182668 261.889328281 282.011182668 261.889328281 282.015625 226.001953125 c 128,-1,51
 282.020067406 190.113236828 282.020067406 190.113236828 297.367458714 167.359713687 c 128,-1,52
 312.714850022 144.606190546 312.714850022 144.606190546 350.80859375 125.55859375 c 0,53,54
 433.9375 83.994140625 433.9375 83.994140625 608.01953125 83.994140625 c 0,55,56
 608.6328125 83.9921875 608.6328125 83.9921875 608.939453125 83.982421875 c 0,57,58
 697.022416255 82.0535818658 697.022416255 82.0535818658 788.030327518 125.935188231 c 128,-1,59
 879.038238781 169.816794597 879.038238781 169.816794597 934.001953125 240.28125 c 1,60,-1
 934.001953125 368 l 1,61,-1
 607.994140625 368 l 2,46,47
EndSplineSet
EndChar

StartChar: b
Encoding: 98 98 66
Width: 1229
GlyphClass: 2
Flags: W
AnchorPoint: "Anchor-8" 615 -120 basechar 0
LayerCount: 2
Fore
SplineSet
240 1188 m 128,-1,1
 257 1188 257 1188 269.5 1175.5 c 128,-1,2
 282 1163 282 1163 282 1146 c 2,3,-1
 282 700.203125 l 1,4,5
 349.958407671 757.548932362 349.958407671 757.548932362 435.769879831 789.150108039 c 128,-1,6
 521.58135199 820.751283716 521.58135199 820.751283716 608.37890625 819.98828125 c 0,7,8
 719.439779776 819.012286654 719.439779776 819.012286654 813.707275673 764.149856285 c 128,-1,9
 907.97477157 709.287425916 907.97477157 709.287425916 962.987385785 615.143763507 c 128,-1,10
 1018 521.000101098 1018 521.000101098 1018 410 c 128,-1,11
 1018 299.000095473 1018 299.000095473 962.987467191 204.856644971 c 128,-1,12
 907.974934382 110.713194469 907.974934382 110.713194469 813.709147392 55.8484331536 c 128,-1,13
 719.443360402 0.983671837761 719.443360402 0.983671837761 608.3828125 -0.001953125 c 0,14,15
 521.583796165 -0.772257066262 521.583796165 -0.772257066262 435.771468569 30.824757456 c 128,-1,16
 349.959140972 62.4217719782 349.959140972 62.4217719782 282 119.767578125 c 1,17,-1
 282 42 l 2,18,19
 282 25 282 25 269.5 12.5 c 128,-1,20
 257 0 257 0 240 0 c 128,-1,21
 223 0 223 0 210.5 12.5 c 128,-1,22
 198 25 198 25 198 42 c 2,23,-1
 198 1146 l 2,24,25
 198 1163 198 1163 210.5 1175.5 c 128,-1,0
 223 1188 223 1188 240 1188 c 128,-1,1
607.640625 735.990234375 m 0,26,27
 518.584862892 736.772635661 518.584862892 736.772635661 427.604082264 693.190197968 c 128,-1,28
 336.623301636 649.607760274 336.623301636 649.607760274 282 579.634765625 c 1,29,-1
 282 240.337890625 l 1,30,31
 336.623034516 170.362840039 336.623034516 170.362840039 427.60274858 126.783256336 c 128,-1,32
 518.582462645 83.2036726329 518.582462645 83.2036726329 607.63671875 83.994140625 c 0,33,34
 743.607896078 85.2011069569 743.607896078 85.2011069569 838.803948039 180.016235978 c 128,-1,35
 934 274.831364999 934 274.831364999 934 410 c 128,-1,36
 934 545.169707329 934 545.169707329 838.804251695 639.982362256 c 128,-1,37
 743.608503391 734.795017183 743.608503391 734.795017183 607.640625 735.990234375 c 0,26,27
EndSplineSet
EndChar

StartChar: c
Encoding: 99 99 67
Width: 1229
GlyphClass: 2
Flags: W
AnchorPoint: "Anchor-8" 615 -120 basechar 0
LayerCount: 2
Fore
SplineSet
607.640625 819.98828125 m 0,0,1
 723.214860356 821.004031528 723.214860356 821.004031528 833.29065243 766.339265994 c 128,-1,2
 943.366444503 711.67450046 943.366444503 711.67450046 1010.15234375 618.439453125 c 0,3,4
 1018.046875 607.419319188 1018.046875 607.419319188 1018.046875 594.00390625 c 0,5,6
 1018.046875 572.432428973 1018.046875 572.432428973 1000.46679688 559.837890625 c 0,7,8
 989.445299734 551.942382812 989.445299734 551.942382812 976.030273438 551.942382812 c 0,9,10
 954.455749988 551.942382812 954.455749988 551.942382812 941.86328125 569.5234375 c 0,11,12
 888.910120081 643.44731031 888.910120081 643.44731031 794.903635406 690.125344863 c 128,-1,13
 700.897150731 736.803379415 700.897150731 736.803379415 608.37890625 735.990234375 c 0,14,15
 472.396203371 734.795035209 472.396203371 734.795035209 377.198101685 639.983372952 c 128,-1,16
 282 545.171710694 282 545.171710694 282 410 c 128,-1,17
 282 274.829529814 282 274.829529814 377.198686156 180.015310047 c 128,-1,18
 472.397372311 85.2010902803 472.397372311 85.2010902803 608.3828125 83.994140625 c 0,19,20
 700.899195098 83.1729043915 700.899195098 83.1729043915 794.904551015 129.84727076 c 128,-1,21
 888.909906933 176.521637128 888.909906933 176.521637128 941.86328125 250.447265625 c 0,22,23
 954.412383157 267.967773438 954.412383157 267.967773438 976.045898438 267.967773438 c 0,24,25
 989.529818327 267.967773438 989.529818327 267.967773438 1000.46679688 260.1328125 c 0,26,27
 1017.98632812 247.58165052 1017.98632812 247.58165052 1017.98632812 225.950195312 c 0,28,29
 1017.98632812 212.466865345 1017.98632812 212.466865345 1010.15234375 201.53125 c 0,30,31
 943.366188702 108.294390745 943.366188702 108.294390745 833.289071689 53.6335510223 c 128,-1,32
 723.211954677 -1.02728870031 723.211954677 -1.02728870031 607.63671875 -0.001953125 c 0,33,34
 496.567845978 0.983668877205 496.567845978 0.983668877205 402.297560453 55.8485695537 c 128,-1,35
 308.027274927 110.71347023 308.027274927 110.71347023 253.013637464 204.856508571 c 128,-1,36
 198 298.999546912 198 298.999546912 198 410 c 128,-1,37
 198 521.001083683 198 521.001083683 253.01373898 615.144334118 c 128,-1,38
 308.02747796 709.287584553 308.02747796 709.287584553 402.299412062 764.149936715 c 128,-1,39
 496.571346163 819.012288878 496.571346163 819.012288878 607.640625 819.98828125 c 0,0,1
EndSplineSet
EndChar

StartChar: d
Encoding: 100 100 68
Width: 1229
GlyphClass: 2
Flags: W
AnchorPoint: "Anchor-8" 615 -120 basechar 0
LayerCount: 2
Fore
SplineSet
976 1188 m 128,-1,1
 993 1188 993 1188 1005.5 1175.5 c 128,-1,2
 1018 1163 1018 1163 1018 1146 c 2,3,-1
 1018 42 l 2,4,5
 1018 25 1018 25 1005.5 12.5 c 128,-1,6
 993 0 993 0 976 0 c 128,-1,7
 959 0 959 0 946.5 12.5 c 128,-1,8
 934 25 934 25 934 42 c 2,9,-1
 934 119.734375 l 1,10,11
 866.043145287 62.4034477694 866.043145287 62.4034477694 780.237941029 30.8155989364 c 128,-1,12
 694.432736772 -0.772249896533 694.432736772 -0.772249896533 607.63671875 -0.001953125 c 0,13,14
 496.567845978 0.983668877205 496.567845978 0.983668877205 402.297560453 55.8485695537 c 128,-1,15
 308.027274927 110.71347023 308.027274927 110.71347023 253.013637464 204.856508571 c 128,-1,16
 198 298.999546912 198 298.999546912 198 410 c 128,-1,17
 198 521.000649655 198 521.000649655 253.013718869 615.143899913 c 128,-1,18
 308.027437739 709.287150172 308.027437739 709.287150172 402.299432172 764.149719878 c 128,-1,19
 496.571426606 819.012289584 496.571426606 819.012289584 607.640625 819.98828125 c 0,20,21
 694.435478939 820.751279234 694.435478939 820.751279234 780.239431771 789.159533719 c 128,-1,22
 866.043384604 757.567788204 866.043384604 757.567788204 934 700.236328125 c 1,23,-1
 934 1146 l 2,24,25
 934 1163 934 1163 946.5 1175.5 c 128,-1,0
 959 1188 959 1188 976 1188 c 128,-1,1
608.37890625 735.990234375 m 0,26,27
 472.396764879 734.795033696 472.396764879 734.795033696 377.19838244 639.983288086 c 128,-1,28
 282 545.171542477 282 545.171542477 282 410 c 128,-1,29
 282 274.829529814 282 274.829529814 377.198686156 180.015310047 c 128,-1,30
 472.397372311 85.2010902803 472.397372311 85.2010902803 608.3828125 83.994140625 c 0,31,32
 697.435062322 83.2036969557 697.435062322 83.2036969557 788.401901467 126.767056288 c 128,-1,33
 879.368740613 170.330415619 879.368740613 170.330415619 934 240.287109375 c 1,34,-1
 934 579.68359375 l 1,35,36
 879.369164525 649.63901375 879.369164525 649.63901375 788.401246901 693.205812375 c 128,-1,37
 697.433329277 736.772611 697.433329277 736.772611 608.37890625 735.990234375 c 0,26,27
EndSplineSet
EndChar

StartChar: e
Encoding: 101 101 69
Width: 1229
GlyphClass: 2
Flags: W
AnchorPoint: "Anchor-8" 615 -120 basechar 0
LayerCount: 2
Fore
SplineSet
608 820 m 128,-1,1
 777 820 777 820 897.5 699.5 c 128,-1,2
 1018 579 1018 579 1018 410 c 0,3,4
 1018 393 1018 393 1005.5 380.5 c 128,-1,5
 993 368 993 368 976 368 c 2,6,-1
 284.765625 368 l 1,7,8
 300.221929065 247.170973831 300.221929065 247.170973831 392.052674984 166.019001538 c 128,-1,9
 483.883420904 84.8670292437 483.883420904 84.8670292437 608.3046875 83.994140625 c 0,10,11
 672.300092157 83.5451169999 672.300092157 83.5451169999 738.630324919 105.648167109 c 128,-1,12
 804.960557681 127.751217218 804.960557681 127.751217218 859.126953125 167.7265625 c 0,13,14
 873.124258721 178.056652627 873.124258721 178.056652627 890.326782227 175.463500977 c 128,-1,15
 907.529305732 172.870349327 907.529305732 172.870349327 917.859375 158.873046875 c 128,-1,16
 928.190171937 144.874989955 928.190171937 144.874989955 925.597045898 127.672241211 c 128,-1,17
 923.00391986 110.469492466 923.00391986 110.469492466 909.005859375 100.138671875 c 0,18,19
 843.389049841 51.7127247574 843.389049841 51.7127247574 764.976361451 25.5779017732 c 128,-1,20
 686.563673061 -0.556921211024 686.563673061 -0.556921211024 607.71484375 -0.00390625 c 0,21,22
 496.634941887 0.775573150176 496.634941887 0.775573150176 402.320519326 55.6625375728 c 128,-1,23
 308.006096765 110.549501995 308.006096765 110.549501995 253.003048382 204.762592636 c 128,-1,24
 198 298.975683276 198 298.975683276 198 410 c 0,25,26
 198 579 198 579 318.5 699.5 c 128,-1,0
 439 820 439 820 608 820 c 128,-1,1
608 736 m 128,-1,28
 483.986919188 736 483.986919188 736 392.112769663 654.564475571 c 128,-1,29
 300.238620138 573.128951141 300.238620138 573.128951141 284.763671875 452 c 1,30,-1
 931.236328125 452 l 1,31,32
 915.761379862 573.128951141 915.761379862 573.128951141 823.887230337 654.564475571 c 128,-1,27
 732.013080812 736 732.013080812 736 608 736 c 128,-1,28
EndSplineSet
EndChar

StartChar: f
Encoding: 102 102 70
Width: 1229
GlyphClass: 2
Flags: W
AnchorPoint: "Anchor-8" 615 -120 basechar 0
LayerCount: 2
Fore
SplineSet
791.693359375 1187.99804688 m 0,0,1
 895.252858139 1188.75496016 895.252858139 1188.75496016 992.939453125 1145.74023438 c 0,2,3
 1008.86077456 1138.72952093 1008.86077456 1138.72952093 1015.16137695 1122.51391602 c 128,-1,4
 1021.46197935 1106.2983111 1021.46197935 1106.2983111 1014.45117188 1090.37695312 c 128,-1,5
 1007.44035948 1074.45540697 1007.44035948 1074.45540697 991.224853516 1068.15405273 c 128,-1,6
 975.009347551 1061.8526985 975.009347551 1061.8526985 959.087890625 1068.86328125 c 0,7,8
 877.868819403 1104.62629547 877.868819403 1104.62629547 792.306640625 1104.00195312 c 0,9,10
 756.295034835 1103.73902982 756.295034835 1103.73902982 733.443377331 1088.29754136 c 128,-1,11
 710.591719826 1072.8560529 710.591719826 1072.8560529 691.556640625 1034.85546875 c 0,12,13
 655.58090244 963.03654278 655.58090244 963.03654278 650.71875 820 c 1,14,-1
 976 820 l 2,15,16
 993 820 993 820 1005.5 807.5 c 128,-1,17
 1018 795 1018 795 1018 778 c 128,-1,18
 1018 761 1018 761 1005.5 748.5 c 128,-1,19
 993 736 993 736 976 736 c 2,20,-1
 650.00390625 736 l 1,21,-1
 650 42 l 2,22,23
 650 25 650 25 637.5 12.5 c 128,-1,24
 625 0 625 0 608 0 c 128,-1,25
 591 0 591 0 578.5 12.5 c 128,-1,26
 566 25 566 25 566 42 c 2,27,-1
 566.00390625 736 l 1,28,-1
 240 736 l 2,29,30
 223 736 223 736 210.5 748.5 c 128,-1,31
 198 761 198 761 198 778 c 128,-1,32
 198 795 198 795 210.5 807.5 c 128,-1,33
 223 820 223 820 240 820 c 2,34,-1
 566.6484375 820 l 1,35,36
 571.340718228 982.417613641 571.340718228 982.417613641 616.453125 1072.4765625 c 0,37,38
 643.393654803 1126.25882542 643.393654803 1126.25882542 689.532731814 1156.92394075 c 128,-1,39
 735.671808826 1187.58905608 735.671808826 1187.58905608 791.693359375 1187.99804688 c 0,0,1
EndSplineSet
EndChar

StartChar: g
Encoding: 103 103 71
Width: 1229
GlyphClass: 2
Flags: W
AnchorPoint: "Anchor-8" 615 -450 basechar 0
LayerCount: 2
Fore
SplineSet
976 820 m 128,-1,1
 993 820 993 820 1005.5 807.5 c 128,-1,2
 1018 795 1018 795 1018 778 c 2,3,-1
 1018 42 l 2,4,5
 1018 -69.0005257491 1018 -69.0005257491 962.986309844 -163.14396922 c 128,-1,6
 907.972619689 -257.287412692 907.972619689 -257.287412692 813.702492239 -312.151603696 c 128,-1,7
 719.43236479 -367.015794701 719.43236479 -367.015794701 608.365234375 -367.998046875 c 0,8,9
 492.794269789 -369.020433212 492.794269789 -369.020433212 382.717905149 -314.35710372 c 128,-1,10
 272.641540509 -259.693774229 272.641540509 -259.693774229 205.85546875 -166.45703125 c 0,11,12
 195.725293369 -152.313999534 195.725293369 -152.313999534 198.56262207 -135.150146484 c 128,-1,13
 201.399950772 -117.986293435 201.399950772 -117.986293435 215.54296875 -107.85546875 c 128,-1,14
 229.68597782 -97.7252617478 229.68597782 -97.7252617478 246.850219727 -100.56262207 c 128,-1,15
 264.014461633 -103.399982393 264.014461633 -103.399982393 274.14453125 -117.54296875 c 0,16,17
 327.097310762 -191.467037814 327.097310762 -191.467037814 421.103650807 -238.142670089 c 128,-1,18
 515.109990851 -284.818302364 515.109990851 -284.818302364 607.623046875 -284 c 0,19,20
 743.60408295 -282.797452609 743.60408295 -282.797452609 838.802041475 -187.983962309 c 128,-1,21
 934 -93.1704720094 934 -93.1704720094 934 42 c 2,22,-1
 934 119.734375 l 1,23,24
 866.043145287 62.4034477694 866.043145287 62.4034477694 780.237941029 30.8155989364 c 128,-1,25
 694.432736772 -0.772249896533 694.432736772 -0.772249896533 607.63671875 -0.001953125 c 0,26,27
 496.567845978 0.983668877205 496.567845978 0.983668877205 402.297560453 55.8485695537 c 128,-1,28
 308.027274927 110.71347023 308.027274927 110.71347023 253.013637464 204.856508571 c 128,-1,29
 198 298.999546912 198 298.999546912 198 410 c 128,-1,30
 198 521.000649655 198 521.000649655 253.013718869 615.143899913 c 128,-1,31
 308.027437739 709.287150172 308.027437739 709.287150172 402.299432172 764.149719878 c 128,-1,32
 496.571426606 819.012289584 496.571426606 819.012289584 607.640625 819.98828125 c 0,33,34
 694.435478939 820.751279234 694.435478939 820.751279234 780.239431771 789.159533719 c 128,-1,35
 866.043384604 757.567788204 866.043384604 757.567788204 934 700.236328125 c 1,36,-1
 934 778 l 2,37,38
 934 795 934 795 946.5 807.5 c 128,-1,0
 959 820 959 820 976 820 c 128,-1,1
608.37890625 735.990234375 m 0,39,40
 472.396764879 734.795033696 472.396764879 734.795033696 377.19838244 639.983288086 c 128,-1,41
 282 545.171542477 282 545.171542477 282 410 c 128,-1,42
 282 274.829529814 282 274.829529814 377.198686156 180.015310047 c 128,-1,43
 472.397372311 85.2010902803 472.397372311 85.2010902803 608.3828125 83.994140625 c 0,44,45
 697.435062322 83.2036969557 697.435062322 83.2036969557 788.401901467 126.767056288 c 128,-1,46
 879.368740613 170.330415619 879.368740613 170.330415619 934 240.287109375 c 1,47,-1
 934 579.68359375 l 1,48,49
 879.369164525 649.63901375 879.369164525 649.63901375 788.401246901 693.205812375 c 128,-1,50
 697.433329277 736.772611 697.433329277 736.772611 608.37890625 735.990234375 c 0,39,40
EndSplineSet
EndChar

StartChar: h
Encoding: 104 104 72
Width: 1229
GlyphClass: 2
Flags: W
AnchorPoint: "Anchor-8" 615 -120 basechar 0
LayerCount: 2
Fore
SplineSet
240 1188 m 128,-1,1
 257 1188 257 1188 269.5 1175.5 c 128,-1,2
 282 1163 282 1163 282 1146 c 2,3,-1
 282 700.203125 l 1,4,5
 349.958407671 757.548932362 349.958407671 757.548932362 435.769879831 789.150108039 c 128,-1,6
 521.58135199 820.751283716 521.58135199 820.751283716 608.37890625 819.98828125 c 0,7,8
 719.439779776 819.012286654 719.439779776 819.012286654 813.707275673 764.149856285 c 128,-1,9
 907.97477157 709.287425916 907.97477157 709.287425916 962.987385785 615.143763507 c 128,-1,10
 1018 521.000101098 1018 521.000101098 1018 410 c 2,11,-1
 1018 42 l 2,12,13
 1018 25 1018 25 1005.5 12.5 c 128,-1,14
 993 0 993 0 976 0 c 128,-1,15
 959 0 959 0 946.5 12.5 c 128,-1,16
 934 25 934 25 934 42 c 2,17,-1
 934 410 l 2,18,19
 934 545.169707329 934 545.169707329 838.804251695 639.982362256 c 128,-1,20
 743.608503391 734.795017183 743.608503391 734.795017183 607.640625 735.990234375 c 0,21,22
 518.584862892 736.772635661 518.584862892 736.772635661 427.604082264 693.190197968 c 128,-1,23
 336.623301636 649.607760274 336.623301636 649.607760274 282 579.634765625 c 1,24,-1
 282 42 l 2,25,26
 282 25 282 25 269.5 12.5 c 128,-1,27
 257 0 257 0 240 0 c 128,-1,28
 223 0 223 0 210.5 12.5 c 128,-1,29
 198 25 198 25 198 42 c 2,30,-1
 198 1146 l 2,31,32
 198 1163 198 1163 210.5 1175.5 c 128,-1,0
 223 1188 223 1188 240 1188 c 128,-1,1
EndSplineSet
EndChar

StartChar: i
Encoding: 105 105 73
Width: 1229
GlyphClass: 2
Flags: W
AnchorPoint: "Anchor-8" 615 -120 basechar 0
LayerCount: 2
Fore
SplineSet
608 1096 m 128,-1,1
 644 1096 644 1096 670 1070 c 128,-1,2
 696 1044 696 1044 696 1008 c 128,-1,3
 696 972 696 972 670 946 c 128,-1,4
 644 920 644 920 608 920 c 128,-1,5
 572 920 572 920 546 946 c 128,-1,6
 520 972 520 972 520 1008 c 128,-1,7
 520 1044 520 1044 546 1070 c 128,-1,0
 572 1096 572 1096 608 1096 c 128,-1,1
240 820 m 2,8,-1
 608 820 l 2,9,10
 625 820 625 820 637.5 807.5 c 128,-1,11
 650 795 650 795 650 778 c 2,12,-1
 650 84 l 1,13,-1
 976 84 l 2,14,15
 993 84 993 84 1005.5 71.5 c 128,-1,16
 1018 59 1018 59 1018 42 c 128,-1,17
 1018 25 1018 25 1005.5 12.5 c 128,-1,18
 993 0 993 0 976 0 c 2,19,-1
 240 0 l 2,20,21
 223 0 223 0 210.5 12.5 c 128,-1,22
 198 25 198 25 198 42 c 128,-1,23
 198 59 198 59 210.5 71.5 c 128,-1,24
 223 84 223 84 240 84 c 2,25,-1
 566 84 l 1,26,-1
 566 736 l 1,27,-1
 240 736 l 2,28,29
 223 736 223 736 210.5 748.5 c 128,-1,30
 198 761 198 761 198 778 c 128,-1,31
 198 795 198 795 210.5 807.5 c 128,-1,32
 223 820 223 820 240 820 c 2,8,-1
EndSplineSet
EndChar

StartChar: j
Encoding: 106 106 74
Width: 1229
GlyphClass: 2
Flags: W
AnchorPoint: "Anchor-8" 515 -450 basechar 0
LayerCount: 2
Fore
SplineSet
792 1096 m 132,-1,1
 828 1096 828 1096 854 1070 c 132,-1,2
 880 1044 880 1044 880 1008 c 132,-1,3
 880 972 880 972 854 946 c 132,-1,4
 828 920 828 920 792 920 c 132,-1,5
 756 920 756 920 730 946 c 132,-1,6
 704 972 704 972 704 1008 c 132,-1,7
 704 1044 704 1044 730 1070 c 132,-1,0
 756 1096 756 1096 792 1096 c 132,-1,1
608 820 m 6,8,-1
 976 820 l 6,9,10
 993 820 993 820 1005.5 807.5 c 132,-1,11
 1018 795 1018 795 1018 778 c 6,12,-1
 1018 42 l 6,13,14
 1018 -127 1018 -127 897.5 -247.5 c 132,-1,15
 777 -368 777 -368 608 -368 c 132,-1,16
 439 -368 439 -368 318.5 -247.5 c 132,-1,17
 198 -127 198 -127 198 42 c 4,18,19
 198 59 198 59 210.5 71.5 c 132,-1,20
 223 84 223 84 240 84 c 132,-1,21
 257 84 257 84 269.5 71.5 c 132,-1,22
 282 59 282 59 282 42 c 4,23,24
 282 -93 282 -93 377.5 -188.5 c 132,-1,25
 473 -284 473 -284 608 -284 c 132,-1,26
 743 -284 743 -284 838.5 -188.5 c 132,-1,27
 934 -93 934 -93 934 42 c 6,28,-1
 934 736 l 5,29,-1
 608 736 l 6,30,31
 591 736 591 736 578.5 748.5 c 132,-1,32
 566 761 566 761 566 778 c 132,-1,33
 566 795 566 795 578.5 807.5 c 132,-1,34
 591 820 591 820 608 820 c 6,8,-1
EndSplineSet
EndChar

StartChar: k
Encoding: 107 107 75
Width: 1229
GlyphClass: 2
Flags: W
AnchorPoint: "Anchor-8" 655 -120 basechar 0
LayerCount: 2
Fore
SplineSet
240 1188 m 128,-1,1
 257 1188 257 1188 269.5 1175.5 c 128,-1,2
 282 1163 282 1163 282 1146 c 2,3,-1
 282 452 l 1,4,-1
 608 452 l 2,5,6
 743 452 743 452 838.5 547.5 c 128,-1,7
 934 643 934 643 934 778 c 0,8,9
 934 795 934 795 946.5 807.5 c 128,-1,10
 959 820 959 820 976 820 c 128,-1,11
 993 820 993 820 1005.5 807.5 c 128,-1,12
 1018 795 1018 795 1018 778 c 0,13,14
 1018 658.927995596 1018 658.927995596 955.000391966 559.978897544 c 128,-1,15
 892.000783931 461.029799492 892.000783931 461.029799492 788.427734375 410 c 1,16,17
 892.000783931 358.970200508 892.000783931 358.970200508 955.000391966 260.021102456 c 128,-1,18
 1018 161.072004404 1018 161.072004404 1018 42 c 0,19,20
 1018 25 1018 25 1005.5 12.5 c 128,-1,21
 993 0 993 0 976 0 c 128,-1,22
 959 0 959 0 946.5 12.5 c 128,-1,23
 934 25 934 25 934 42 c 0,24,25
 934 177 934 177 838.5 272.5 c 128,-1,26
 743 368 743 368 608 368 c 2,27,-1
 282 368 l 1,28,-1
 282 42 l 2,29,30
 282 25 282 25 269.5 12.5 c 128,-1,31
 257 0 257 0 240 0 c 128,-1,32
 223 0 223 0 210.5 12.5 c 128,-1,33
 198 25 198 25 198 42 c 2,34,-1
 198 1146 l 2,35,36
 198 1163 198 1163 210.5 1175.5 c 128,-1,0
 223 1188 223 1188 240 1188 c 128,-1,1
EndSplineSet
EndChar

StartChar: l
Encoding: 108 108 76
Width: 1229
GlyphClass: 2
Flags: W
AnchorPoint: "Anchor-8" 615 -120 basechar 0
LayerCount: 2
Fore
SplineSet
240 1188 m 0,0,1
 409 1188 409 1188 529.5 1067.5 c 128,-1,2
 650 947 650 947 650 778 c 2,3,-1
 650 84 l 1,4,-1
 976 84 l 2,5,6
 993 84 993 84 1005.5 71.5 c 128,-1,7
 1018 59 1018 59 1018 42 c 128,-1,8
 1018 25 1018 25 1005.5 12.5 c 128,-1,9
 993 0 993 0 976 0 c 2,10,-1
 608 0 l 2,11,12
 591 0 591 0 578.5 12.5 c 128,-1,13
 566 25 566 25 566 42 c 2,14,-1
 566 778 l 2,15,16
 566 913 566 913 470.5 1008.5 c 128,-1,17
 375 1104 375 1104 240 1104 c 0,18,19
 223 1104 223 1104 210.5 1116.5 c 128,-1,20
 198 1129 198 1129 198 1146 c 128,-1,21
 198 1163 198 1163 210.5 1175.5 c 128,-1,22
 223 1188 223 1188 240 1188 c 0,0,1
EndSplineSet
EndChar

StartChar: m
Encoding: 109 109 77
Width: 1229
GlyphClass: 2
Flags: W
AnchorPoint: "Anchor-8" 615 -120 basechar 0
LayerCount: 2
Fore
SplineSet
240 820 m 128,-1,1
 257 820 257 820 269.5 807.5 c 128,-1,2
 282 795 282 795 282 778 c 2,3,-1
 282 754.697265625 l 1,4,5
 339.865508543 820 339.865508543 820 424 820 c 0,6,7
 480.085207539 820 480.085207539 820 526.343313168 789.353659328 c 128,-1,8
 572.601418797 758.707318656 572.601418797 758.707318656 599.5625 704.78515625 c 0,9,10
 603.451707911 697.008017253 603.451707911 697.008017253 608 686.328125 c 1,11,12
 612.548292089 697.008017253 612.548292089 697.008017253 616.4375 704.78515625 c 0,13,14
 643.398581203 758.707318656 643.398581203 758.707318656 689.656686832 789.353659328 c 128,-1,15
 735.914792461 820 735.914792461 820 792 820 c 128,-1,16
 848.085186052 820 848.085186052 820 894.343904404 789.353062915 c 128,-1,17
 940.602622756 758.70612583 940.602622756 758.70612583 967.564453125 704.783203125 c 0,18,19
 1018 603.914870546 1018 603.914870546 1018 410.00390625 c 2,20,-1
 1018 42 l 2,21,22
 1018 25 1018 25 1005.5 12.5 c 128,-1,23
 993 0 993 0 976 0 c 128,-1,24
 959 0 959 0 946.5 12.5 c 128,-1,25
 934 25 934 25 934 42 c 2,26,-1
 933.998046875 410.001953125 l 2,27,28
 933.996620283 584.083302319 933.996620283 584.083302319 892.4296875 667.21875 c 0,29,30
 873.383474599 705.311900737 873.383474599 705.311900737 850.634175384 720.655950368 c 128,-1,31
 827.884876169 736 827.884876169 736 792 736 c 128,-1,32
 756.114833312 736 756.114833312 736 733.364633418 720.655811614 c 128,-1,33
 710.614433524 705.311623227 710.614433524 705.311623227 691.568359375 667.21875 c 0,34,35
 650.40272519 584.88748163 650.40272519 584.88748163 650 410.005859375 c 0,36,37
 649.960556425 392.827451871 649.960556425 392.827451871 637.616558067 380.711577498 c 128,-1,38
 625.272559709 368.595703125 625.272559709 368.595703125 608 368.595703125 c 128,-1,39
 590.727440291 368.595703125 590.727440291 368.595703125 578.383441933 380.711577498 c 128,-1,40
 566.039443575 392.827451871 566.039443575 392.827451871 566 410.005859375 c 0,41,42
 565.59727481 584.88748163 565.59727481 584.88748163 524.431640625 667.21875 c 0,43,44
 505.385566476 705.311623227 505.385566476 705.311623227 482.635366582 720.655811614 c 128,-1,45
 459.885166688 736 459.885166688 736 424 736 c 128,-1,46
 388.115123831 736 388.115123831 736 365.365824616 720.655950368 c 128,-1,47
 342.616525401 705.311900737 342.616525401 705.311900737 323.5703125 667.21875 c 0,48,49
 282.005332887 584.088790775 282.005332887 584.088790775 282.00390625 410.001953125 c 0,50,-1
 282 42 l 2,51,52
 282 25 282 25 269.5 12.5 c 128,-1,53
 257 0 257 0 240 0 c 128,-1,54
 223 0 223 0 210.5 12.5 c 128,-1,55
 198 25 198 25 198 42 c 2,56,-1
 198 778 l 2,57,58
 198 795 198 795 210.5 807.5 c 128,-1,0
 223 820 223 820 240 820 c 128,-1,1
EndSplineSet
EndChar

StartChar: n
Encoding: 110 110 78
Width: 1229
GlyphClass: 2
Flags: W
AnchorPoint: "Anchor-8" 615 -120 basechar 0
LayerCount: 2
Fore
SplineSet
240 820 m 128,-1,1
 257 820 257 820 269.5 807.5 c 128,-1,2
 282 795 282 795 282 778 c 2,3,-1
 282 700.203125 l 1,4,5
 349.958407671 757.548932362 349.958407671 757.548932362 435.769879831 789.150108039 c 128,-1,6
 521.58135199 820.751283716 521.58135199 820.751283716 608.37890625 819.98828125 c 0,7,8
 719.439779776 819.012286654 719.439779776 819.012286654 813.707275673 764.149856285 c 128,-1,9
 907.97477157 709.287425916 907.97477157 709.287425916 962.987385785 615.143763507 c 128,-1,10
 1018 521.000101098 1018 521.000101098 1018 410 c 2,11,-1
 1018 42 l 2,12,13
 1018 25 1018 25 1005.5 12.5 c 128,-1,14
 993 0 993 0 976 0 c 128,-1,15
 959 0 959 0 946.5 12.5 c 128,-1,16
 934 25 934 25 934 42 c 2,17,-1
 934 410 l 2,18,19
 934 545.169707329 934 545.169707329 838.804251695 639.982362256 c 128,-1,20
 743.608503391 734.795017183 743.608503391 734.795017183 607.640625 735.990234375 c 0,21,22
 518.584862892 736.772635661 518.584862892 736.772635661 427.604082264 693.190197968 c 128,-1,23
 336.623301636 649.607760274 336.623301636 649.607760274 282 579.634765625 c 1,24,-1
 282 42 l 2,25,26
 282 25 282 25 269.5 12.5 c 128,-1,27
 257 0 257 0 240 0 c 128,-1,28
 223 0 223 0 210.5 12.5 c 128,-1,29
 198 25 198 25 198 42 c 2,30,-1
 198 778 l 2,31,32
 198 795 198 795 210.5 807.5 c 128,-1,0
 223 820 223 820 240 820 c 128,-1,1
EndSplineSet
EndChar

StartChar: o
Encoding: 111 111 79
Width: 1229
GlyphClass: 2
Flags: W
AnchorPoint: "Anchor-8" 615 -120 basechar 0
LayerCount: 2
Fore
SplineSet
608 820 m 128,-1,1
 777 820 777 820 897.5 699.5 c 128,-1,2
 1018 579 1018 579 1018 410 c 128,-1,3
 1018 241 1018 241 897.5 120.5 c 128,-1,4
 777 0 777 0 608 0 c 128,-1,5
 439 0 439 0 318.5 120.5 c 128,-1,6
 198 241 198 241 198 410 c 128,-1,7
 198 579 198 579 318.5 699.5 c 128,-1,0
 439 820 439 820 608 820 c 128,-1,1
608 736 m 128,-1,9
 473 736 473 736 377.5 640.5 c 128,-1,10
 282 545 282 545 282 410 c 128,-1,11
 282 275 282 275 377.5 179.5 c 128,-1,12
 473 84 473 84 608 84 c 128,-1,13
 743 84 743 84 838.5 179.5 c 128,-1,14
 934 275 934 275 934 410 c 128,-1,15
 934 545 934 545 838.5 640.5 c 128,-1,8
 743 736 743 736 608 736 c 128,-1,9
EndSplineSet
EndChar

StartChar: p
Encoding: 112 112 80
Width: 1229
GlyphClass: 2
Flags: W
AnchorPoint: "Anchor-8" 300 -450 basechar 0
LayerCount: 2
Fore
SplineSet
240 820 m 128,-1,1
 257 820 257 820 269.5 807.5 c 128,-1,2
 282 795 282 795 282 778 c 2,3,-1
 282 700.203125 l 1,4,5
 349.958407671 757.548932362 349.958407671 757.548932362 435.769879831 789.150108039 c 128,-1,6
 521.58135199 820.751283716 521.58135199 820.751283716 608.37890625 819.98828125 c 0,7,8
 719.439779776 819.012286654 719.439779776 819.012286654 813.707275673 764.149856285 c 128,-1,9
 907.97477157 709.287425916 907.97477157 709.287425916 962.987385785 615.143763507 c 128,-1,10
 1018 521.000101098 1018 521.000101098 1018 410 c 128,-1,11
 1018 299.000095473 1018 299.000095473 962.987467191 204.856644971 c 128,-1,12
 907.974934382 110.713194469 907.974934382 110.713194469 813.709147392 55.8484331536 c 128,-1,13
 719.443360402 0.983671837761 719.443360402 0.983671837761 608.3828125 -0.001953125 c 0,14,15
 521.583796165 -0.772257066262 521.583796165 -0.772257066262 435.771468569 30.824757456 c 128,-1,16
 349.959140972 62.4217719782 349.959140972 62.4217719782 282 119.767578125 c 1,17,-1
 282 -326 l 2,18,19
 282 -343 282 -343 269.5 -355.5 c 128,-1,20
 257 -368 257 -368 240 -368 c 128,-1,21
 223 -368 223 -368 210.5 -355.5 c 128,-1,22
 198 -343 198 -343 198 -326 c 2,23,-1
 198 778 l 2,24,25
 198 795 198 795 210.5 807.5 c 128,-1,0
 223 820 223 820 240 820 c 128,-1,1
607.640625 735.990234375 m 0,26,27
 518.584862892 736.772635661 518.584862892 736.772635661 427.604082264 693.190197968 c 128,-1,28
 336.623301636 649.607760274 336.623301636 649.607760274 282 579.634765625 c 1,29,-1
 282 240.337890625 l 1,30,31
 336.623034516 170.362840039 336.623034516 170.362840039 427.60274858 126.783256336 c 128,-1,32
 518.582462645 83.2036726329 518.582462645 83.2036726329 607.63671875 83.994140625 c 0,33,34
 743.607896078 85.2011069569 743.607896078 85.2011069569 838.803948039 180.016235978 c 128,-1,35
 934 274.831364999 934 274.831364999 934 410 c 128,-1,36
 934 545.169707329 934 545.169707329 838.804251695 639.982362256 c 128,-1,37
 743.608503391 734.795017183 743.608503391 734.795017183 607.640625 735.990234375 c 0,26,27
EndSplineSet
EndChar

StartChar: q
Encoding: 113 113 81
Width: 1229
GlyphClass: 2
Flags: W
AnchorPoint: "Anchor-8" 915 -450 basechar 0
LayerCount: 2
Fore
SplineSet
976 820 m 128,-1,1
 993 820 993 820 1005.5 807.5 c 128,-1,2
 1018 795 1018 795 1018 778 c 2,3,-1
 1018 -326 l 2,4,5
 1018 -343 1018 -343 1005.5 -355.5 c 128,-1,6
 993 -368 993 -368 976 -368 c 128,-1,7
 959 -368 959 -368 946.5 -355.5 c 128,-1,8
 934 -343 934 -343 934 -326 c 2,9,-1
 934 119.767578125 l 1,10,11
 866.040859028 62.4217719782 866.040859028 62.4217719782 780.228531431 30.824757456 c 128,-1,12
 694.416203835 -0.772257066262 694.416203835 -0.772257066262 607.6171875 -0.001953125 c 0,13,14
 496.556639598 0.983671837761 496.556639598 0.983671837761 402.290852608 55.8484331536 c 128,-1,15
 308.025065618 110.713194469 308.025065618 110.713194469 253.012532809 204.856644971 c 128,-1,16
 198 299.000095473 198 299.000095473 198 410 c 128,-1,17
 198 521.000101098 198 521.000101098 253.012614215 615.143763507 c 128,-1,18
 308.02522843 709.287425916 308.02522843 709.287425916 402.292724327 764.149856285 c 128,-1,19
 496.560220224 819.012286654 496.560220224 819.012286654 607.62109375 819.98828125 c 0,20,21
 694.41864801 820.751283716 694.41864801 820.751283716 780.230120169 789.150108039 c 128,-1,22
 866.041592329 757.548932362 866.041592329 757.548932362 934 700.203125 c 1,23,-1
 934 778 l 2,24,25
 934 795 934 795 946.5 807.5 c 128,-1,0
 959 820 959 820 976 820 c 128,-1,1
608.359375 735.990234375 m 0,26,27
 472.391496609 734.795017183 472.391496609 734.795017183 377.195748305 639.982362256 c 128,-1,28
 282 545.169707329 282 545.169707329 282 410 c 128,-1,29
 282 274.831364999 282 274.831364999 377.196051961 180.016235978 c 128,-1,30
 472.392103922 85.2011069569 472.392103922 85.2011069569 608.36328125 83.994140625 c 0,31,32
 697.417537355 83.2036726329 697.417537355 83.2036726329 788.39725142 126.783256336 c 128,-1,33
 879.376965484 170.362840039 879.376965484 170.362840039 934 240.337890625 c 1,34,-1
 934 579.634765625 l 1,35,36
 879.376698364 649.607760274 879.376698364 649.607760274 788.395917736 693.190197968 c 128,-1,37
 697.415137108 736.772635661 697.415137108 736.772635661 608.359375 735.990234375 c 0,26,27
EndSplineSet
EndChar

StartChar: r
Encoding: 114 114 82
Width: 1229
GlyphClass: 2
Flags: W
AnchorPoint: "Anchor-8" 555 -120 basechar 0
LayerCount: 2
Fore
SplineSet
240 820 m 128,-1,1
 257 820 257 820 269.5 807.5 c 128,-1,2
 282 795 282 795 282 778 c 2,3,-1
 282 700.11328125 l 1,4,5
 349.705581277 757.004263384 349.705581277 757.004263384 435.430463813 788.491389505 c 128,-1,6
 521.155346349 819.978515625 521.155346349 819.978515625 608.01953125 819.978515625 c 0,7,8
 723.791807118 819.978515625 723.791807118 819.978515625 833.702630759 765.65370837 c 128,-1,9
 943.613454399 711.328901116 943.613454399 711.328901116 1010.15234375 618.439453125 c 0,10,11
 1020.28308027 604.296298712 1020.28308027 604.296298712 1017.44616699 587.132568359 c 128,-1,12
 1014.60925371 569.968838007 1014.60925371 569.968838007 1000.46679688 559.837890625 c 128,-1,13
 986.323804496 549.706195477 986.323804496 549.706195477 969.158935547 552.54296875 c 128,-1,14
 951.994066597 555.379742023 951.994066597 555.379742023 941.86328125 569.5234375 c 0,15,16
 889.141011213 643.125749723 889.141011213 643.125749723 795.188921386 689.552132674 c 128,-1,17
 701.236831559 735.978515625 701.236831559 735.978515625 608.01953125 735.978515625 c 0,18,19
 518.291716956 735.978515625 518.291716956 735.978515625 427.343524958 692.616578307 c 128,-1,20
 336.395332959 649.254640989 336.395332959 649.254640989 282 579.62890625 c 1,21,-1
 282 42 l 2,22,23
 282 25 282 25 269.5 12.5 c 128,-1,24
 257 0 257 0 240 0 c 128,-1,25
 223 0 223 0 210.5 12.5 c 128,-1,26
 198 25 198 25 198 42 c 2,27,-1
 198 778 l 2,28,29
 198 795 198 795 210.5 807.5 c 128,-1,0
 223 820 223 820 240 820 c 128,-1,1
EndSplineSet
EndChar

StartChar: s
Encoding: 115 115 83
Width: 1229
GlyphClass: 2
Flags: W
AnchorPoint: "Anchor-8" 615 -120 basechar 0
LayerCount: 2
Fore
SplineSet
608.01953125 819.978515625 m 128,-1,1
 801.92716182 819.978515625 801.92716182 819.978515625 902.79296875 769.544921875 c 0,2,3
 956.714669686 742.583702389 956.714669686 742.583702389 987.361241093 696.325532454 c 128,-1,4
 1018.0078125 650.06736252 1018.0078125 650.06736252 1018.0078125 593.982421875 c 0,5,6
 1018.0078125 576.585205078 1018.0078125 576.585205078 1005.7064209 564.283813477 c 128,-1,7
 993.405029297 551.982421875 993.405029297 551.982421875 976.0078125 551.982421875 c 128,-1,8
 958.610595703 551.982421875 958.610595703 551.982421875 946.309204102 564.283813477 c 128,-1,9
 934.0078125 576.585205078 934.0078125 576.585205078 934.0078125 593.982421875 c 0,10,11
 934.0078125 629.867979675 934.0078125 629.867979675 918.664042564 652.617900603 c 128,-1,12
 903.320272628 675.367821531 903.320272628 675.367821531 865.228515625 694.4140625 c 0,13,14
 782.101191397 735.978515625 782.101191397 735.978515625 608.01953125 735.978515625 c 128,-1,15
 433.942617289 735.978515625 433.942617289 735.978515625 350.810546875 694.4140625 c 0,16,17
 312.718384644 675.368706314 312.718384644 675.368706314 297.374817322 652.620565587 c 128,-1,18
 282.03125 629.87242486 282.03125 629.87242486 282.03125 593.990234375 c 128,-1,19
 282.03125 558.108815895 282.03125 558.108815895 297.375173495 535.360836016 c 128,-1,20
 312.719096989 512.612856137 312.719096989 512.612856137 350.810546875 493.56640625 c 0,21,22
 433.936289082 452.001953125 433.936289082 452.001953125 608.009765625 452.001953125 c 0,23,24
 801.910391756 452.001953125 801.910391756 452.001953125 902.77734375 401.56640625 c 0,25,26
 956.697475254 374.605233475 956.697475254 374.605233475 987.344125696 328.346571522 c 128,-1,27
 1017.99077614 282.08790957 1017.99077614 282.08790957 1017.99804688 226 c 128,-1,28
 1018.00386331 169.912849822 1018.00386331 169.912849822 987.359251798 123.650655965 c 128,-1,29
 956.714640287 77.3884621091 956.714640287 77.3884621091 902.79296875 50.42578125 c 0,30,31
 801.932683721 -0.0078125 801.932683721 -0.0078125 608.01953125 -0.0078125 c 128,-1,32
 414.109947555 -0.0078125 414.109947555 -0.0078125 313.244140625 50.42578125 c 0,33,34
 259.323009144 77.3867160049 259.323009144 77.3867160049 228.677129572 123.645730085 c 128,-1,35
 198.03125 169.904744165 198.03125 169.904744165 198.03125 225.990234375 c 0,36,37
 198.03125 243.387451172 198.03125 243.387451172 210.332641602 255.688842773 c 128,-1,38
 222.634033203 267.990234375 222.634033203 267.990234375 240.03125 267.990234375 c 128,-1,39
 257.428466797 267.990234375 257.428466797 267.990234375 269.729858398 255.688842773 c 128,-1,40
 282.03125 243.387451172 282.03125 243.387451172 282.03125 225.990234375 c 0,41,42
 282.03125 190.104386061 282.03125 190.104386061 297.375158683 167.353564453 c 128,-1,43
 312.719067366 144.602742845 312.719067366 144.602742845 350.810546875 125.556640625 c 0,44,45
 433.937871103 83.9921875 433.937871103 83.9921875 608.01953125 83.9921875 c 128,-1,46
 782.103612932 83.9921875 782.103612932 83.9921875 865.224609375 125.556640625 c 0,47,48
 903.315509663 144.603903137 903.315509663 144.603903137 918.658259037 167.355072673 c 128,-1,49
 934.001008411 190.106242209 934.001008411 190.106242209 933.998046875 225.994140625 c 128,-1,50
 933.995085303 261.883950338 933.995085303 261.883950338 918.649343335 284.63622017 c 128,-1,51
 903.303601366 307.388490003 903.303601366 307.388490003 865.2109375 326.435546875 c 0,52,53
 782.081289071 368.001953125 782.081289071 368.001953125 608.009765625 368.001953125 c 0,54,55
 414.107421875 368.001953125 414.107421875 368.001953125 313.244140625 418.43359375 c 0,56,57
 259.323279121 445.394024502 259.323279121 445.394024502 228.67726456 491.650700774 c 128,-1,58
 198.03125 537.907377046 198.03125 537.907377046 198.03125 593.990234375 c 128,-1,59
 198.03125 650.073028042 198.03125 650.073028042 228.67783912 696.329719653 c 128,-1,60
 259.324428239 742.586411263 259.324428239 742.586411263 313.24609375 769.546875 c 0,61,0
 414.110755554 819.978515625 414.110755554 819.978515625 608.01953125 819.978515625 c 128,-1,1
EndSplineSet
EndChar

StartChar: t
Encoding: 116 116 84
Width: 1229
GlyphClass: 2
Flags: W
AnchorPoint: "Anchor-8" 700 -120 basechar 0
LayerCount: 2
Fore
SplineSet
607.998046875 1188.00195312 m 128,-1,1
 625.395263672 1188.00195312 625.395263672 1188.00195312 637.696655273 1175.70056152 c 128,-1,2
 649.998046875 1163.39916992 649.998046875 1163.39916992 649.998046875 1146.00195312 c 2,3,-1
 650 820 l 1,4,-1
 976 820 l 2,5,6
 993 820 993 820 1005.5 807.5 c 128,-1,7
 1018 795 1018 795 1018 778 c 128,-1,8
 1018 761 1018 761 1005.5 748.5 c 128,-1,9
 993 736 993 736 976 736 c 2,10,-1
 650 736 l 1,11,-1
 650.001953125 409.998046875 l 2,12,13
 650.003378238 236.09723061 650.003378238 236.09723061 691.5546875 153.146484375 c 0,14,15
 710.589766701 115.145900221 710.589766701 115.145900221 733.441424206 99.704411765 c 128,-1,16
 756.29308171 84.262923309 756.29308171 84.262923309 792.3046875 84 c 0,17,18
 877.875998893 83.3755910118 877.875998893 83.3755910118 959.0859375 119.13671875 c 0,19,20
 975.007934678 126.147737927 975.007934678 126.147737927 991.224243164 119.847290039 c 128,-1,21
 1007.44055165 113.546842151 1007.44055165 113.546842151 1014.45117188 97.625 c 128,-1,22
 1021.46249531 81.7028142968 1021.46249531 81.7028142968 1015.16113281 65.4866943359 c 128,-1,23
 1008.85977031 49.270574375 1008.85977031 49.270574375 992.9375 42.259765625 c 0,24,25
 895.247592198 -0.754935941729 895.247592198 -0.754935941729 791.69140625 0.001953125 c 0,26,27
 735.670190425 0.410941476439 735.670190425 0.410941476439 689.531031957 31.0768630957 c 128,-1,28
 643.391873489 61.7427847149 643.391873489 61.7427847149 616.451171875 115.525390625 c 0,29,30
 566.003452902 216.235825989 566.003452902 216.235825989 566.001953125 409.998046875 c 2,31,-1
 566 736 l 1,32,-1
 240 736 l 2,33,34
 223 736 223 736 210.5 748.5 c 128,-1,35
 198 761 198 761 198 778 c 128,-1,36
 198 795 198 795 210.5 807.5 c 128,-1,37
 223 820 223 820 240 820 c 2,38,-1
 566 820 l 1,39,-1
 565.998046875 1146.00195312 l 2,40,41
 565.998046875 1163.39916992 565.998046875 1163.39916992 578.299438477 1175.70056152 c 128,-1,0
 590.600830078 1188.00195312 590.600830078 1188.00195312 607.998046875 1188.00195312 c 128,-1,1
EndSplineSet
EndChar

StartChar: u
Encoding: 117 117 85
Width: 1229
GlyphClass: 2
Flags: W
AnchorPoint: "Anchor-8" 615 -120 basechar 0
LayerCount: 2
Fore
SplineSet
976 0.005859375 m 128,-1,1
 958.614501953 0.005859375 958.614501953 0.005859375 946.307250977 12.3131103516 c 128,-1,2
 934 24.6203613281 934 24.6203613281 934 42.005859375 c 2,3,-1
 934 119.802734375 l 1,4,5
 866.042112164 62.4566309338 866.042112164 62.4566309338 780.230336746 30.8556004679 c 128,-1,6
 694.418561327 -0.745429997902 694.418561327 -0.745429997902 607.62109375 0.017578125 c 0,7,8
 496.560139785 0.993573428271 496.560139785 0.993573428271 402.292704217 55.8557862532 c 128,-1,9
 308.025268649 110.717999078 308.025268649 110.717999078 253.012634325 204.861661664 c 128,-1,10
 198 299.005324249 198 299.005324249 198 410.005859375 c 2,11,-1
 198 778.005859375 l 2,12,13
 198 795.390793596 198 795.390793596 210.307335273 807.698326486 c 128,-1,14
 222.614670547 820.005859375 222.614670547 820.005859375 240 820.005859375 c 128,-1,15
 257.385329453 820.005859375 257.385329453 820.005859375 269.692664727 807.698326486 c 128,-1,16
 282 795.390793596 282 795.390793596 282 778.005859375 c 2,17,-1
 282 410.005859375 l 2,18,19
 282 274.835983147 282 274.835983147 377.195834754 180.023045054 c 128,-1,20
 472.391669508 85.2101069607 472.391669508 85.2101069607 608.359375 84.015625 c 0,21,22
 697.414988736 83.2324910591 697.414988736 83.2324910591 788.395798986 126.814749712 c 128,-1,23
 879.376609237 170.397008365 879.376609237 170.397008365 934 240.370117188 c 1,24,-1
 934 778.005859375 l 2,25,26
 934 795.390793596 934 795.390793596 946.307335273 807.698326486 c 128,-1,27
 958.614670547 820.005859375 958.614670547 820.005859375 976 820.005859375 c 128,-1,28
 993.385329453 820.005859375 993.385329453 820.005859375 1005.69266473 807.698326486 c 128,-1,29
 1018 795.390793596 1018 795.390793596 1018 778.005859375 c 2,30,-1
 1018 42.005859375 l 2,31,32
 1018 24.6203613281 1018 24.6203613281 1005.69274902 12.3131103516 c 128,-1,0
 993.385498047 0.005859375 993.385498047 0.005859375 976 0.005859375 c 128,-1,1
EndSplineSet
EndChar

StartChar: v
Encoding: 118 118 86
Width: 1229
GlyphClass: 2
Flags: W
AnchorPoint: "Anchor-8" 615 -120 basechar 0
LayerCount: 2
Fore
SplineSet
237.31640625 819.92578125 m 0,0,1
 265.111110338 821.693794949 265.111110338 821.693794949 277.56640625 796.783203125 c 2,2,-1
 608 135.916015625 l 1,3,-1
 938.43359375 796.783203125 l 2,4,5
 946.214178788 812.343640772 946.214178788 812.343640772 962.718505859 817.845214844 c 128,-1,6
 979.222832931 823.346788915 979.222832931 823.346788915 994.783203125 815.56640625 c 128,-1,7
 1010.34364077 807.785821212 1010.34364077 807.785821212 1015.84521484 791.281494141 c 128,-1,8
 1021.34678892 774.777167069 1021.34678892 774.777167069 1013.56640625 759.216796875 c 2,9,-1
 645.56640625 23.216796875 l 2,10,11
 633.959164284 0.00390625 633.959164284 0.00390625 608 0.00390625 c 128,-1,12
 582.040835716 0.00390625 582.040835716 0.00390625 570.43359375 23.216796875 c 2,13,-1
 202.43359375 759.216796875 l 2,14,15
 194.653211085 774.777167069 194.653211085 774.777167069 200.154785156 791.281494141 c 128,-1,16
 205.656359228 807.785821212 205.656359228 807.785821212 221.216796875 815.56640625 c 0,17,18
 228.856954288 819.387204233 228.856954288 819.387204233 237.31640625 819.92578125 c 0,0,1
EndSplineSet
EndChar

StartChar: w
Encoding: 119 119 87
Width: 1229
GlyphClass: 2
Flags: W
AnchorPoint: "Anchor-8" 615 -120 basechar 0
LayerCount: 2
Fore
SplineSet
792 0 m 128,-1,1
 735.914792461 0 735.914792461 0 689.656686832 30.6463406719 c 128,-1,2
 643.398581203 61.2926813437 643.398581203 61.2926813437 616.4375 115.21484375 c 0,3,4
 612.548292089 122.991982747 612.548292089 122.991982747 608 133.671875 c 1,5,6
 603.451707911 122.991982747 603.451707911 122.991982747 599.5625 115.21484375 c 0,7,8
 572.601418797 61.2926813437 572.601418797 61.2926813437 526.343313168 30.6463406719 c 128,-1,9
 480.085207539 0 480.085207539 0 424 0 c 128,-1,10
 367.914813948 0 367.914813948 0 321.656095596 30.6469370852 c 128,-1,11
 275.397377244 61.2938741704 275.397377244 61.2938741704 248.435546875 115.216796875 c 0,12,13
 198 216.085129454 198 216.085129454 198 409.99609375 c 2,14,-1
 198 778 l 2,15,16
 198 795 198 795 210.5 807.5 c 128,-1,17
 223 820 223 820 240 820 c 128,-1,18
 257 820 257 820 269.5 807.5 c 128,-1,19
 282 795 282 795 282 778 c 2,20,-1
 282.001953125 409.998046875 l 2,21,22
 282.003379717 235.916697681 282.003379717 235.916697681 323.5703125 152.78125 c 0,23,24
 342.616525401 114.688099263 342.616525401 114.688099263 365.365824616 99.3440496316 c 128,-1,25
 388.115123831 84 388.115123831 84 424 84 c 128,-1,26
 459.885166688 84 459.885166688 84 482.635366582 99.3441883863 c 128,-1,27
 505.385566476 114.688376773 505.385566476 114.688376773 524.431640625 152.78125 c 0,28,29
 565.59727481 235.11251837 565.59727481 235.11251837 566 409.994140625 c 0,30,31
 566.039443575 427.172548129 566.039443575 427.172548129 578.383441933 439.288422502 c 128,-1,32
 590.727440291 451.404296875 590.727440291 451.404296875 608 451.404296875 c 128,-1,33
 625.272559709 451.404296875 625.272559709 451.404296875 637.616558067 439.288422502 c 128,-1,34
 649.960556425 427.172548129 649.960556425 427.172548129 650 409.994140625 c 0,35,36
 650.40272519 235.11251837 650.40272519 235.11251837 691.568359375 152.78125 c 0,37,38
 710.614433524 114.688376773 710.614433524 114.688376773 733.364633418 99.3441883863 c 128,-1,39
 756.114833312 84 756.114833312 84 792 84 c 128,-1,40
 827.884777288 84 827.884777288 84 850.634353955 99.3440024018 c 128,-1,41
 873.383930622 114.688004804 873.383930622 114.688004804 892.431640625 152.78125 c 0,42,43
 933.998573408 235.916697681 933.998573408 235.916697681 934 409.998046875 c 2,44,-1
 934 778 l 2,45,46
 934 795 934 795 946.5 807.5 c 128,-1,47
 959 820 959 820 976 820 c 128,-1,48
 993 820 993 820 1005.5 807.5 c 128,-1,49
 1018 795 1018 795 1018 778 c 2,50,-1
 1018 409.99609375 l 2,51,52
 1018 216.085129454 1018 216.085129454 967.564453125 115.216796875 c 0,53,54
 940.602622756 61.2938741704 940.602622756 61.2938741704 894.343904404 30.6469370852 c 128,-1,0
 848.085186052 0 848.085186052 0 792 0 c 128,-1,1
EndSplineSet
EndChar

StartChar: x
Encoding: 120 120 88
Width: 1229
GlyphClass: 2
Flags: W
AnchorPoint: "Anchor-8" 615 -120 basechar 0
LayerCount: 2
Fore
SplineSet
240 820 m 128,-1,1
 257.3984375 820 257.3984375 820 269.69921875 807.69921875 c 2,2,-1
 608 469.3984375 l 1,3,-1
 946.30078125 807.69921875 l 2,4,5
 958.6015625 820 958.6015625 820 976 820 c 128,-1,6
 993.396912295 820 993.396912295 820 1005.69921875 807.69921875 c 128,-1,7
 1018.00154034 795.397292297 1018.00154034 795.397292297 1018.00134277 778 c 128,-1,8
 1018.0011452 760.602707703 1018.0011452 760.602707703 1005.69921875 748.30078125 c 2,9,-1
 667.3984375 410 l 1,10,-1
 1005.69921875 71.69921875 l 2,11,12
 1018.00170898 59.3974609375 1018.00170898 59.3974609375 1018.00170898 42 c 128,-1,13
 1018.00170898 24.6025390625 1018.00170898 24.6025390625 1005.69921875 12.30078125 c 128,-1,14
 993.397460938 -0.001708984375 993.397460938 -0.001708984375 976 -0.001708984375 c 128,-1,15
 958.602539062 -0.001708984375 958.602539062 -0.001708984375 946.30078125 12.30078125 c 2,16,-1
 608 350.6015625 l 1,17,-1
 269.69921875 12.30078125 l 2,18,19
 257.397460938 -0.001708984375 257.397460938 -0.001708984375 240 -0.001708984375 c 128,-1,20
 222.602539062 -0.001708984375 222.602539062 -0.001708984375 210.30078125 12.30078125 c 128,-1,21
 197.998291016 24.6025390625 197.998291016 24.6025390625 197.998291016 42 c 128,-1,22
 197.998291016 59.3974609375 197.998291016 59.3974609375 210.30078125 71.69921875 c 2,23,-1
 548.6015625 410 l 1,24,-1
 210.30078125 748.30078125 l 2,25,26
 197.998854797 760.602707703 197.998854797 760.602707703 197.998657227 778 c 128,-1,27
 197.998459656 795.397292297 197.998459656 795.397292297 210.30078125 807.69921875 c 128,-1,0
 222.603087705 820 222.603087705 820 240 820 c 128,-1,1
EndSplineSet
EndChar

StartChar: y
Encoding: 121 121 89
Width: 1229
GlyphClass: 2
Flags: W
AnchorPoint: "Anchor-8" 445 -450 basechar 0
LayerCount: 2
Fore
SplineSet
240 820 m 128,-1,1
 257 820 257 820 269.5 807.5 c 128,-1,2
 282 795 282 795 282 778 c 2,3,-1
 282 410 l 2,4,5
 282 275 282 275 377.5 179.5 c 128,-1,6
 473 84 473 84 608 84 c 128,-1,7
 743 84 743 84 838.5 179.5 c 128,-1,8
 934 275 934 275 934 410 c 2,9,-1
 934 778 l 2,10,11
 934 795 934 795 946.5 807.5 c 128,-1,12
 959 820 959 820 976 820 c 128,-1,13
 993 820 993 820 1005.5 807.5 c 128,-1,14
 1018 795 1018 795 1018 778 c 2,15,-1
 1018 42 l 2,16,17
 1018 -69.0005257491 1018 -69.0005257491 962.986309844 -163.14396922 c 128,-1,18
 907.972619689 -257.287412692 907.972619689 -257.287412692 813.702492239 -312.151603696 c 128,-1,19
 719.43236479 -367.015794701 719.43236479 -367.015794701 608.365234375 -367.998046875 c 0,20,21
 492.794269789 -369.020433212 492.794269789 -369.020433212 382.717905149 -314.35710372 c 128,-1,22
 272.641540509 -259.693774229 272.641540509 -259.693774229 205.85546875 -166.45703125 c 0,23,24
 195.724752239 -152.313862509 195.724752239 -152.313862509 198.562255859 -135.150146484 c 128,-1,25
 201.39975948 -117.98643046 201.39975948 -117.98643046 215.54296875 -107.85546875 c 128,-1,26
 229.686000466 -97.7252933685 229.686000466 -97.7252933685 246.849853516 -100.56262207 c 128,-1,27
 264.013706565 -103.399950772 264.013706565 -103.399950772 274.14453125 -117.54296875 c 0,28,29
 327.096301951 -191.46737631 327.096301951 -191.46737631 421.102890351 -238.142841602 c 128,-1,30
 515.109478752 -284.818306894 515.109478752 -284.818306894 607.623046875 -284 c 0,31,32
 743.60408295 -282.797452609 743.60408295 -282.797452609 838.802041475 -187.983962309 c 128,-1,33
 934 -93.1704720094 934 -93.1704720094 934 42 c 2,34,-1
 934 161.8515625 l 1,35,36
 876.634861156 86.6955815311 876.634861156 86.6955815311 791.21853882 43.3477907655 c 128,-1,37
 705.802216484 0 705.802216484 0 608 0 c 0,38,39
 439 0 439 0 318.5 120.5 c 128,-1,40
 198 241 198 241 198 410 c 2,41,-1
 198 778 l 2,42,43
 198 795 198 795 210.5 807.5 c 128,-1,0
 223 820 223 820 240 820 c 128,-1,1
EndSplineSet
EndChar

StartChar: z
Encoding: 122 122 90
Width: 1229
GlyphClass: 2
Flags: W
AnchorPoint: "Anchor-8" 615 -120 basechar 0
LayerCount: 2
Fore
SplineSet
240 820 m 2,0,-1
 976 820 l 2,1,2
 1004.05741968 820 1004.05741968 820 1014.79785156 794.0703125 c 128,-1,3
 1025.53803901 768.139601513 1025.53803901 768.139601513 1005.69921875 748.30078125 c 2,4,-1
 341.3984375 84 l 1,5,-1
 976 84 l 2,6,7
 993 84 993 84 1005.5 71.5 c 128,-1,8
 1018 59 1018 59 1018 42 c 128,-1,9
 1018 25 1018 25 1005.5 12.5 c 128,-1,10
 993 0 993 0 976 0 c 2,11,-1
 240 0 l 2,12,13
 211.941911972 0 211.941911972 0 201.202148438 25.9296875 c 128,-1,14
 190.460347377 51.8587848771 190.460347377 51.8587848771 210.30078125 71.69921875 c 2,15,-1
 874.6015625 736 l 1,16,-1
 240 736 l 2,17,18
 223 736 223 736 210.5 748.5 c 128,-1,19
 198 761 198 761 198 778 c 128,-1,20
 198 795 198 795 210.5 807.5 c 128,-1,21
 223 820 223 820 240 820 c 2,0,-1
EndSplineSet
EndChar

StartChar: braceleft
Encoding: 123 123 91
Width: 1229
GlyphClass: 2
Flags: W
LayerCount: 2
Fore
SplineSet
791.998046875 1371.99804688 m 0,0,1
 809.383544922 1371.99804688 809.383544922 1371.99804688 821.690795898 1359.6907959 c 128,-1,2
 833.998046875 1347.38354492 833.998046875 1347.38354492 833.998046875 1329.99804688 c 128,-1,3
 833.998046875 1312.61254883 833.998046875 1312.61254883 821.690795898 1300.30529785 c 128,-1,4
 809.383544922 1287.99804688 809.383544922 1287.99804688 791.998046875 1287.99804688 c 0,5,6
 756.113601413 1287.99804688 756.113601413 1287.99804688 733.364189709 1272.65322641 c 128,-1,7
 710.614778006 1257.30840595 710.614778006 1257.30840595 691.568359375 1219.21484375 c 0,8,9
 650.004806388 1136.08615579 650.004806388 1136.08615579 650.001953125 962 c 2,10,-1
 650.001953125 778 l 2,11,12
 650.001233696 722.241387585 650.001233696 722.241387585 624.372719963 673.826473659 c 128,-1,13
 598.744206231 625.411559732 598.744206231 625.411559732 554.732421875 593.998046875 c 1,14,15
 598.743031424 562.585586353 598.743031424 562.585586353 624.37053915 514.170628079 c 128,-1,16
 649.998046875 465.755669805 649.998046875 465.755669805 649.998046875 409.998046875 c 2,17,-1
 650.001953125 226 l 2,18,19
 650.004806388 51.9138442107 650.004806388 51.9138442107 691.568359375 -31.21484375 c 0,20,21
 710.614778006 -69.3084059546 710.614778006 -69.3084059546 733.364189709 -84.6532264148 c 128,-1,22
 756.113601413 -99.998046875 756.113601413 -99.998046875 791.998046875 -99.998046875 c 0,23,24
 809.383544922 -99.998046875 809.383544922 -99.998046875 821.690795898 -112.305297852 c 128,-1,25
 833.998046875 -124.612548828 833.998046875 -124.612548828 833.998046875 -141.998046875 c 128,-1,26
 833.998046875 -159.383544922 833.998046875 -159.383544922 821.690795898 -171.690795898 c 128,-1,27
 809.383544922 -183.998046875 809.383544922 -183.998046875 791.998046875 -183.998046875 c 0,28,29
 735.913388887 -183.998046875 735.913388887 -183.998046875 689.656127416 -153.351014383 c 128,-1,30
 643.398865945 -122.70398189 643.398865945 -122.70398189 616.4375 -68.78125 c 0,31,32
 566.004955063 32.0838398749 566.004955063 32.0838398749 566.001953125 226 c 2,33,-1
 565.998046875 409.998046875 l 2,34,35
 565.998046875 469.188326376 565.998046875 469.188326376 524.593580954 510.593186626 c 128,-1,36
 483.189115033 551.998046875 483.189115033 551.998046875 423.998046875 551.998046875 c 0,37,38
 406.808044531 552.241377683 406.808044531 552.241377683 394.703338672 564.507921715 c 128,-1,39
 382.598632812 576.774465747 382.598632812 576.774465747 382.598632812 593.998046875 c 128,-1,40
 382.598632812 611.221628003 382.598632812 611.221628003 394.703338672 623.488172035 c 128,-1,41
 406.808044531 635.754716067 406.808044531 635.754716067 423.998046875 635.998046875 c 0,42,43
 483.189979143 635.998046875 483.189979143 635.998046875 524.595233719 677.402118477 c 128,-1,44
 566.000488294 718.806190079 566.000488294 718.806190079 566.001953125 778 c 2,45,-1
 566.001953125 962 l 2,46,47
 566.004955063 1155.91616013 566.004955063 1155.91616013 616.4375 1256.78125 c 0,48,49
 643.398865945 1310.70398189 643.398865945 1310.70398189 689.656127416 1341.35101438 c 128,-1,50
 735.913388887 1371.99804688 735.913388887 1371.99804688 791.998046875 1371.99804688 c 0,0,1
EndSplineSet
EndChar

StartChar: bar
Encoding: 124 124 92
Width: 1229
GlyphClass: 2
Flags: W
LayerCount: 2
Fore
SplineSet
608 1372 m 128,-1,1
 625 1372 625 1372 637.5 1359.5 c 128,-1,2
 650 1347 650 1347 650 1330 c 2,3,-1
 650 -142 l 2,4,5
 650 -159 650 -159 637.5 -171.5 c 128,-1,6
 625 -184 625 -184 608 -184 c 128,-1,7
 591 -184 591 -184 578.5 -171.5 c 128,-1,8
 566 -159 566 -159 566 -142 c 2,9,-1
 566 1330 l 2,10,11
 566 1347 566 1347 578.5 1359.5 c 128,-1,0
 591 1372 591 1372 608 1372 c 128,-1,1
EndSplineSet
EndChar

StartChar: braceright
Encoding: 125 125 93
Width: 1229
GlyphClass: 2
Flags: W
LayerCount: 2
Fore
SplineSet
424.587890625 1371.99804688 m 0,0,1
 480.672548613 1371.99804688 480.672548613 1371.99804688 526.929810084 1341.35101438 c 128,-1,2
 573.187071555 1310.70398189 573.187071555 1310.70398189 600.1484375 1256.78125 c 0,3,4
 650.580982437 1155.91616013 650.580982437 1155.91616013 650.583984375 962 c 2,5,-1
 650.583984375 778 l 2,6,7
 650.585449206 718.806190079 650.585449206 718.806190079 691.990703781 677.402118477 c 128,-1,8
 733.395958357 635.998046875 733.395958357 635.998046875 792.587890625 635.998046875 c 0,9,10
 809.777892969 635.754716067 809.777892969 635.754716067 821.882598828 623.488172035 c 128,-1,11
 833.987304688 611.221628003 833.987304688 611.221628003 833.987304688 593.998046875 c 128,-1,12
 833.987304688 576.774465747 833.987304688 576.774465747 821.882598828 564.507921715 c 128,-1,13
 809.777892969 552.241377683 809.777892969 552.241377683 792.587890625 551.998046875 c 0,14,15
 733.396822467 551.998046875 733.396822467 551.998046875 691.992356546 510.593186626 c 128,-1,16
 650.587890625 469.188326376 650.587890625 469.188326376 650.587890625 409.998046875 c 2,17,-1
 650.583984375 226 l 2,18,19
 650.580982437 32.0838398749 650.580982437 32.0838398749 600.1484375 -68.78125 c 0,20,21
 573.187071555 -122.70398189 573.187071555 -122.70398189 526.929810084 -153.351014383 c 128,-1,22
 480.672548613 -183.998046875 480.672548613 -183.998046875 424.587890625 -183.998046875 c 0,23,24
 407.202392578 -183.998046875 407.202392578 -183.998046875 394.895141602 -171.690795898 c 128,-1,25
 382.587890625 -159.383544922 382.587890625 -159.383544922 382.587890625 -141.998046875 c 128,-1,26
 382.587890625 -124.612548828 382.587890625 -124.612548828 394.895141602 -112.305297852 c 128,-1,27
 407.202392578 -99.998046875 407.202392578 -99.998046875 424.587890625 -99.998046875 c 0,28,29
 460.472336087 -99.998046875 460.472336087 -99.998046875 483.221747791 -84.6532264148 c 128,-1,30
 505.971159494 -69.3084059546 505.971159494 -69.3084059546 525.017578125 -31.21484375 c 0,31,32
 566.581131112 51.9138442107 566.581131112 51.9138442107 566.583984375 226 c 2,33,-1
 566.587890625 409.998046875 l 2,34,35
 566.587890625 465.755669805 566.587890625 465.755669805 592.21539835 514.170628079 c 128,-1,36
 617.842906076 562.585586353 617.842906076 562.585586353 661.853515625 593.998046875 c 1,37,38
 617.841731269 625.411559732 617.841731269 625.411559732 592.213217537 673.826473659 c 128,-1,39
 566.584703804 722.241387585 566.584703804 722.241387585 566.583984375 778 c 2,40,-1
 566.583984375 962 l 2,41,42
 566.581131112 1136.08615579 566.581131112 1136.08615579 525.017578125 1219.21484375 c 0,43,44
 505.971159494 1257.30840595 505.971159494 1257.30840595 483.221747791 1272.65322641 c 128,-1,45
 460.472336087 1287.99804688 460.472336087 1287.99804688 424.587890625 1287.99804688 c 0,46,47
 407.202392578 1287.99804688 407.202392578 1287.99804688 394.895141602 1300.30529785 c 128,-1,48
 382.587890625 1312.61254883 382.587890625 1312.61254883 382.587890625 1329.99804688 c 128,-1,49
 382.587890625 1347.38354492 382.587890625 1347.38354492 394.895141602 1359.6907959 c 128,-1,50
 407.202392578 1371.99804688 407.202392578 1371.99804688 424.587890625 1371.99804688 c 0,0,1
EndSplineSet
EndChar

StartChar: asciitilde
Encoding: 126 126 94
Width: 1229
GlyphClass: 2
Flags: W
LayerCount: 2
Fore
SplineSet
424 544.001953125 m 128,-1,1
 487.526517584 544.001953125 487.526517584 544.001953125 546.472270579 514.865285019 c 128,-1,2
 605.418023575 485.728616914 605.418023575 485.728616914 642.140625 434.462890625 c 0,3,4
 665.046262442 402.485944488 665.046262442 402.485944488 708.034817272 381.246878494 c 128,-1,5
 751.023372101 360.0078125 751.023372101 360.0078125 791.994140625 360.0078125 c 128,-1,6
 832.964795705 360.0078125 832.964795705 360.0078125 875.953091773 381.247240716 c 128,-1,7
 918.941387842 402.486668933 918.941387842 402.486668933 941.849609375 434.466796875 c 0,8,9
 951.980397085 448.609763235 951.980397085 448.609763235 969.14465332 451.446533203 c 128,-1,10
 986.308909555 454.283303172 986.308909555 454.283303172 1000.45117188 444.15234375 c 128,-1,11
 1014.59362871 434.021396368 1014.59362871 434.021396368 1017.43054199 416.857666016 c 128,-1,12
 1020.26745527 399.693935663 1020.26745527 399.693935663 1010.13671875 385.55078125 c 0,13,14
 973.412155732 334.282452519 973.412155732 334.282452519 914.466240776 305.14513251 c 128,-1,15
 855.520325821 276.0078125 855.520325821 276.0078125 791.994140625 276.0078125 c 128,-1,16
 728.467623041 276.0078125 728.467623041 276.0078125 669.521870046 305.144480606 c 128,-1,17
 610.57611705 334.281148711 610.57611705 334.281148711 573.853515625 385.546875 c 0,18,19
 550.947878183 417.523821137 550.947878183 417.523821137 507.959323353 438.762887131 c 128,-1,20
 464.970768524 460.001953125 464.970768524 460.001953125 424 460.001953125 c 128,-1,21
 383.028998015 460.001953125 383.028998015 460.001953125 340.040783265 438.762760648 c 128,-1,22
 297.052568514 417.52356817 297.052568514 417.52356817 274.14453125 385.54296875 c 0,23,24
 264.013706565 371.399950772 264.013706565 371.399950772 246.849853516 368.56262207 c 128,-1,25
 229.686000466 365.725293369 229.686000466 365.725293369 215.54296875 375.85546875 c 128,-1,26
 201.39975948 385.98643046 201.39975948 385.98643046 198.562255859 403.150146484 c 128,-1,27
 195.724752239 420.313862509 195.724752239 420.313862509 205.85546875 434.45703125 c 0,28,29
 242.579335198 485.725396972 242.579335198 485.725396972 301.526601175 514.863675048 c 128,-1,0
 360.473867152 544.001953125 360.473867152 544.001953125 424 544.001953125 c 128,-1,1
EndSplineSet
EndChar

StartChar: dagger
Encoding: 8224 8224 127
Width: 1229
GlyphClass: 2
Flags: W
LayerCount: 2
Fore
SplineSet
608 1188 m 128,-1,1
 625 1188 625 1188 637.5 1175.5 c 128,-1,2
 650 1163 650 1163 650 1146 c 2,3,-1
 650 820 l 1,4,-1
 976 820 l 2,5,6
 993 820 993 820 1005.5 807.5 c 128,-1,7
 1018 795 1018 795 1018 778 c 128,-1,8
 1018 761 1018 761 1005.5 748.5 c 128,-1,9
 993 736 993 736 976 736 c 2,10,-1
 650 736 l 1,11,-1
 650 -326 l 2,12,13
 650 -343 650 -343 637.5 -355.5 c 128,-1,14
 625 -368 625 -368 608 -368 c 128,-1,15
 591 -368 591 -368 578.5 -355.5 c 128,-1,16
 566 -343 566 -343 566 -326 c 2,17,-1
 566 736 l 1,18,-1
 240 736 l 2,19,20
 223 736 223 736 210.5 748.5 c 128,-1,21
 198 761 198 761 198 778 c 128,-1,22
 198 795 198 795 210.5 807.5 c 128,-1,23
 223 820 223 820 240 820 c 2,24,-1
 566 820 l 1,25,-1
 566 1146 l 2,26,27
 566 1163 566 1163 578.5 1175.5 c 128,-1,0
 591 1188 591 1188 608 1188 c 128,-1,1
EndSplineSet
EndChar

StartChar: degree
Encoding: 176 176 128
Width: 1229
GlyphClass: 2
Flags: W
LayerCount: 2
Fore
SplineSet
608 1188 m 128,-1,1
 701 1188 701 1188 767.5 1121.5 c 128,-1,2
 834 1055 834 1055 834 962 c 128,-1,3
 834 869 834 869 767.5 802.5 c 128,-1,4
 701 736 701 736 608 736 c 128,-1,5
 515 736 515 736 448.5 802.5 c 128,-1,6
 382 869 382 869 382 962 c 128,-1,7
 382 1055 382 1055 448.5 1121.5 c 128,-1,0
 515 1188 515 1188 608 1188 c 128,-1,1
608 1104 m 128,-1,9
 549 1104 549 1104 507.5 1062.5 c 128,-1,10
 466 1021 466 1021 466 962 c 128,-1,11
 466 903 466 903 507.5 861.5 c 128,-1,12
 549 820 549 820 608 820 c 128,-1,13
 667 820 667 820 708.5 861.5 c 128,-1,14
 750 903 750 903 750 962 c 128,-1,15
 750 1021 750 1021 708.5 1062.5 c 128,-1,8
 667 1104 667 1104 608 1104 c 128,-1,9
EndSplineSet
EndChar

StartChar: cent
Encoding: 162 162 129
Width: 1229
GlyphClass: 2
Flags: W
LayerCount: 2
Fore
SplineSet
608 1188 m 128,-1,1
 625 1188 625 1188 637.5 1175.5 c 128,-1,2
 650 1163 650 1163 650 1146 c 2,3,-1
 650 1001.85742188 l 1,4,5
 754.896545948 992.255332932 754.896545948 992.255332932 850.861205934 939.181590079 c 128,-1,6
 946.825865919 886.107847227 946.825865919 886.107847227 1006.76171875 802.435546875 c 0,7,8
 1016.89245527 788.292392462 1016.89245527 788.292392462 1014.05554199 771.128662109 c 128,-1,9
 1011.21862871 753.964931757 1011.21862871 753.964931757 997.076171875 743.833984375 c 128,-1,10
 982.933909555 733.703024953 982.933909555 733.703024953 965.76965332 736.539794922 c 128,-1,11
 948.605397085 739.37656489 948.605397085 739.37656489 938.474609375 753.51953125 c 0,12,13
 892.16661917 818.166860157 892.16661917 818.166860157 812.9615216 862.716987924 c 128,-1,14
 733.75642403 907.267115691 733.75642403 907.267115691 650 917.359375 c 1,15,-1
 650 270.61328125 l 1,16,17
 733.755615965 280.699609715 733.755615965 280.699609715 812.96073821 325.247071561 c 128,-1,18
 892.165860455 369.794533407 892.165860455 369.794533407 938.474609375 434.443359375 c 0,19,20
 948.605419731 448.586357348 948.605419731 448.586357348 965.769287109 451.423095703 c 128,-1,21
 982.933154488 454.259834058 982.933154488 454.259834058 997.076171875 444.12890625 c 128,-1,22
 1011.21862871 433.997958868 1011.21862871 433.997958868 1014.05554199 416.834228516 c 128,-1,23
 1016.89245527 399.670498163 1016.89245527 399.670498163 1006.76171875 385.52734375 c 0,24,25
 946.825586865 301.853928983 946.825586865 301.853928983 850.861164944 248.783245599 c 128,-1,26
 754.896743022 195.712562216 754.896743022 195.712562216 650 186.1171875 c 1,27,-1
 650 42 l 2,28,29
 650 25 650 25 637.5 12.5 c 128,-1,30
 625 0 625 0 608 0 c 128,-1,31
 591 0 591 0 578.5 12.5 c 128,-1,32
 566 25 566 25 566 42 c 2,33,-1
 566 186.150390625 l 1,34,35
 463.265739954 196.483571408 463.265739954 196.483571408 378.239286551 252.799900061 c 128,-1,36
 293.212833148 309.116228713 293.212833148 309.116228713 243.911104074 399.263250981 c 128,-1,37
 194.609375 489.410273248 194.609375 489.410273248 194.609375 593.99609375 c 128,-1,38
 194.609375 698.581952509 194.609375 698.581952509 243.910684802 788.728740643 c 128,-1,39
 293.211994604 878.875528778 293.211994604 878.875528778 378.239054782 935.189879148 c 128,-1,40
 463.266114959 991.504229518 463.266114959 991.504229518 566 1001.83007812 c 1,41,-1
 566 1146 l 2,42,43
 566 1163 566 1163 578.5 1175.5 c 128,-1,0
 591 1188 591 1188 608 1188 c 128,-1,1
566 917.318359375 m 1,44,45
 443.329868289 902.059269447 443.329868289 902.059269447 360.969621645 810.367875675 c 128,-1,46
 278.609375 718.676481902 278.609375 718.676481902 278.609375 593.99609375 c 128,-1,47
 278.609375 469.317666181 278.609375 469.317666181 360.968971974 377.625045209 c 128,-1,48
 443.328568948 285.932424237 443.328568948 285.932424237 566 270.662109375 c 1,49,-1
 566 917.318359375 l 1,44,45
EndSplineSet
EndChar

StartChar: sterling
Encoding: 163 163 130
Width: 1229
GlyphClass: 2
Flags: W
LayerCount: 2
Fore
SplineSet
607.994140625 1187.99804688 m 128,-1,1
 801.907154338 1187.99954783 801.907154338 1187.99954783 902.7734375 1137.56640625 c 0,2,3
 956.695599906 1110.60532505 956.695599906 1110.60532505 987.341940578 1064.34721942 c 128,-1,4
 1017.98828125 1018.08911379 1017.98828125 1018.08911379 1017.98828125 962.00390625 c 0,5,6
 1017.98828125 944.606689453 1017.98828125 944.606689453 1005.68688965 932.305297852 c 128,-1,7
 993.385498047 920.00390625 993.385498047 920.00390625 975.98828125 920.00390625 c 128,-1,8
 958.591064453 920.00390625 958.591064453 920.00390625 946.289672852 932.305297852 c 128,-1,9
 933.98828125 944.606689453 933.98828125 944.606689453 933.98828125 962.00390625 c 0,10,11
 933.98828125 997.889321992 933.98828125 997.889321992 918.643965071 1020.63928002 c 128,-1,12
 903.299648893 1043.38923805 903.299648893 1043.38923805 865.20703125 1062.43554688 c 0,13,14
 782.079177982 1103.99947351 782.079177982 1103.99947351 607.994140625 1103.99804688 c 128,-1,15
 433.911209266 1103.99662026 433.911209266 1103.99662026 350.78125 1062.43164062 c 0,16,17
 312.688632357 1043.3853318 312.688632357 1043.3853318 297.344316179 1020.63537377 c 128,-1,18
 282 997.885415742 282 997.885415742 282 962 c 0,19,20
 282 933.871582754 282 933.871582754 286.775406815 912.848779503 c 128,-1,21
 291.55081363 891.825976253 291.55081363 891.825976253 305.80845549 871.453832801 c 128,-1,22
 320.06609735 851.08168935 320.06609735 851.08168935 328.631119706 841.641992394 c 128,-1,23
 337.196142062 832.202295438 337.196142062 832.202295438 361.69921875 807.69921875 c 0,24,25
 387.670191093 781.728246407 387.670191093 781.728246407 403.813641123 762.683231978 c 128,-1,26
 419.957091153 743.63821755 419.957091153 743.63821755 438.314614085 708.599320105 c 128,-1,27
 456.672137018 673.560422661 456.672137018 673.560422661 462.646484375 636 c 1,28,-1
 608 636 l 2,29,30
 625 636 625 636 637.5 623.5 c 128,-1,31
 650 611 650 611 650 594 c 128,-1,32
 650 577 650 577 637.5 564.5 c 128,-1,33
 625 552 625 552 608 552 c 2,34,-1
 464.3359375 552 l 1,35,36
 460.266621306 494.202547269 460.266621306 494.202547269 446.676136883 435.782226067 c 128,-1,37
 433.08565246 377.361904865 433.08565246 377.361904865 406.292796223 309.784424324 c 128,-1,38
 379.499939985 242.206943783 379.499939985 242.206943783 361.482899578 202.089965325 c 128,-1,39
 343.465859171 161.972986867 343.465859171 161.972986867 306.328125 84.009765625 c 1,40,-1
 976 84 l 2,41,42
 993 84 993 84 1005.5 71.5 c 128,-1,43
 1018 59 1018 59 1018 42 c 128,-1,44
 1018 25 1018 25 1005.5 12.5 c 128,-1,45
 993 0 993 0 976 0 c 2,46,-1
 240.00390625 0.01171875 l 2,47,48
 216.960537984 0.01171875 216.960537984 0.01171875 204.580225811 19.4505213028 c 128,-1,49
 192.199913639 38.8893238556 192.199913639 38.8893238556 201.943359375 59.771484375 c 0,50,51
 207.082549585 70.7859678012 207.082549585 70.7859678012 235.081524669 130.178296267 c 128,-1,52
 263.080499754 189.570624733 263.080499754 189.570624733 270.58528815 206.535197947 c 128,-1,53
 278.090076546 223.499771161 278.090076546 223.499771161 300.064265422 273.376193953 c 128,-1,54
 322.038454298 323.252616745 322.038454298 323.252616745 330.208614043 348.230430728 c 128,-1,55
 338.378773788 373.208244711 338.378773788 373.208244711 351.622580154 413.432236683 c 128,-1,56
 364.86638652 453.656228655 364.86638652 453.656228655 370.996321313 486.510758261 c 128,-1,57
 377.126256106 519.365287867 377.126256106 519.365287867 379.939453125 552 c 1,58,-1
 240 552 l 2,59,60
 223 552 223 552 210.5 564.5 c 128,-1,61
 198 577 198 577 198 594 c 128,-1,62
 198 611 198 611 210.5 623.5 c 128,-1,63
 223 636 223 636 240 636 c 2,64,-1
 377.962890625 636 l 1,65,66
 373.178233003 658.937469817 373.178233003 658.937469817 360.286065658 680.262065776 c 128,-1,67
 347.393898314 701.586661734 347.393898314 701.586661734 337.635809342 712.155251933 c 128,-1,68
 327.877720369 722.723842131 327.877720369 722.723842131 302.30078125 748.30078125 c 0,69,70
 279.815573715 770.785988785 279.815573715 770.785988785 265.724999591 787.419300292 c 128,-1,71
 251.634425466 804.052611799 251.634425466 804.052611799 233.772925214 831.422374513 c 128,-1,72
 215.911424962 858.792137226 215.911424962 858.792137226 206.955712481 891.587513183 c 128,-1,73
 198 924.38288914 198 924.38288914 198 962 c 0,74,75
 198 1018.08542654 198 1018.08542654 228.646454134 1064.34445596 c 128,-1,76
 259.292908269 1110.60348538 259.292908269 1110.60348538 313.21484375 1137.56445312 c 0,77,0
 414.079029305 1187.9965459 414.079029305 1187.9965459 607.994140625 1187.99804688 c 128,-1,1
EndSplineSet
EndChar

StartChar: section
Encoding: 167 167 131
Width: 1229
GlyphClass: 2
Flags: W
LayerCount: 2
Fore
SplineSet
700.0078125 1188 m 128,-1,1
 852.005668342 1188 852.005668342 1188 932.203125 1127.8515625 c 0,2,3
 1018 1063.50353715 1018 1063.50353715 1018 939.00390625 c 0,4,5
 1018 921.618408203 1018 921.618408203 1005.69274902 909.311157227 c 128,-1,6
 993.385498047 897.00390625 993.385498047 897.00390625 976 897.00390625 c 128,-1,7
 958.614501953 897.00390625 958.614501953 897.00390625 946.307250977 909.311157227 c 128,-1,8
 934 921.618408203 934 921.618408203 934 939.00390625 c 0,9,10
 934 1021.50099518 934 1021.50099518 881.802734375 1060.65039062 c 0,11,12
 824.005390394 1104 824.005390394 1104 700.0078125 1104 c 128,-1,13
 576.012187731 1104 576.012187731 1104 518.21484375 1060.65039062 c 0,14,15
 466.017578125 1021.50099518 466.017578125 1021.50099518 466.017578125 939.00390625 c 128,-1,16
 466.017578125 856.505371094 466.017578125 856.505371094 518.21484375 817.357421875 c 0,17,18
 576.014322917 774.0078125 576.014322917 774.0078125 700.001953125 774.0078125 c 0,19,20
 851.992916516 774.0078125 851.992916516 774.0078125 932.189453125 713.859375 c 0,21,22
 1017.98632812 649.510611427 1017.98632812 649.510611427 1017.98632812 525.013671875 c 0,23,24
 1017.98632812 421.084323085 1017.98632812 421.084323085 957.484375 358.44921875 c 0,25,26
 911.218447068 310.553195948 911.218447068 310.553195948 831.1171875 290.4375 c 1,27,28
 834 270.059100116 834 270.059100116 834 248.9921875 c 0,29,30
 834 124.497558594 834 124.497558594 748.201171875 60.1484375 c 0,31,32
 668.003255208 0 668.003255208 0 516.0078125 0 c 128,-1,33
 364.011909783 0 364.011909783 0 283.814453125 60.1484375 c 0,34,35
 198.017578125 124.496462845 198.017578125 124.496462845 198.017578125 248.99609375 c 0,36,37
 198.017578125 266.381591797 198.017578125 266.381591797 210.324829102 278.688842773 c 128,-1,38
 222.632080078 290.99609375 222.632080078 290.99609375 240.017578125 290.99609375 c 128,-1,39
 257.403076172 290.99609375 257.403076172 290.99609375 269.710327148 278.688842773 c 128,-1,40
 282.017578125 266.381591797 282.017578125 266.381591797 282.017578125 248.99609375 c 0,41,42
 282.017578125 166.495605469 282.017578125 166.495605469 334.21484375 127.34765625 c 0,43,44
 392.01171875 84 392.01171875 84 516.0078125 84 c 128,-1,45
 640.004257999 84 640.004257999 84 697.802734375 127.34765625 c 0,46,47
 750 166.494520828 750 166.494520828 750 248.9921875 c 128,-1,48
 750 331.490722656 750 331.490722656 697.802734375 370.638671875 c 0,49,50
 640.005859375 413.986328125 640.005859375 413.986328125 516.015625 413.986328125 c 0,51,52
 364.022821606 413.986328125 364.022821606 413.986328125 283.828125 474.134765625 c 0,53,54
 198.03125 538.485005629 198.03125 538.485005629 198.03125 662.982421875 c 0,55,56
 198.03125 766.912277586 198.03125 766.912277586 258.533203125 829.548828125 c 0,57,58
 304.795471117 877.443931812 304.795471117 877.443931812 384.900390625 897.560546875 c 1,59,60
 382.017578125 917.937463831 382.017578125 917.937463831 382.017578125 939.00390625 c 0,61,62
 382.017578125 1063.50353715 382.017578125 1063.50353715 467.814453125 1127.8515625 c 0,63,0
 548.011909783 1188 548.011909783 1188 700.0078125 1188 c 128,-1,1
410.46875 817.345703125 m 1,64,65
 349.928144496 803.263361728 349.928144496 803.263361728 318.94921875 771.19140625 c 0,66,67
 282.03125 732.971506701 282.03125 732.971506701 282.03125 662.982421875 c 0,68,69
 282.03125 580.481933594 282.03125 580.481933594 334.228515625 541.333984375 c 0,70,71
 392.025390625 497.986328125 392.025390625 497.986328125 516.015625 497.986328125 c 0,72,73
 668.006588391 497.986328125 668.006588391 497.986328125 748.203125 437.837890625 c 0,74,75
 783.965851222 411.015485229 783.965851222 411.015485229 805.544921875 370.654296875 c 1,76,77
 866.087640112 384.736803512 866.087640112 384.736803512 897.06640625 416.80859375 c 0,78,79
 933.986328125 455.030515302 933.986328125 455.030515302 933.986328125 525.013671875 c 0,80,81
 933.986328125 607.510742188 933.986328125 607.510742188 881.787109375 646.66015625 c 0,82,83
 823.990234375 690.0078125 823.990234375 690.0078125 700.001953125 690.0078125 c 0,84,85
 548.011753793 690.0078125 548.011753793 690.0078125 467.814453125 750.158203125 c 0,86,87
 432.045687617 776.985498807 432.045687617 776.985498807 410.46875 817.345703125 c 1,64,65
EndSplineSet
EndChar

StartChar: bullet
Encoding: 8226 8226 132
Width: 1229
GlyphClass: 2
Flags: W
LayerCount: 2
Fore
SplineSet
440 410.5 m 128,-1,1
 440 480.088134766 440 480.088134766 489.205932617 529.294067383 c 128,-1,2
 538.411865234 578.5 538.411865234 578.5 608 578.5 c 128,-1,3
 677.588134766 578.5 677.588134766 578.5 726.794067383 529.294067383 c 128,-1,4
 776 480.088134766 776 480.088134766 776 410.5 c 128,-1,5
 776 340.911865234 776 340.911865234 726.794067383 291.705932617 c 128,-1,6
 677.588134766 242.5 677.588134766 242.5 608 242.5 c 128,-1,7
 538.411865234 242.5 538.411865234 242.5 489.205932617 291.705932617 c 128,-1,0
 440 340.911865234 440 340.911865234 440 410.5 c 128,-1,1
EndSplineSet
EndChar

StartChar: paragraph
Encoding: 182 182 133
Width: 1229
GlyphClass: 2
Flags: W
LayerCount: 2
Fore
SplineSet
976.00390625 1188 m 2,0,1
 993.401530848 1188.00146488 993.401530848 1188.00146488 1005.70467167 1175.70109009 c 128,-1,2
 1018.0078125 1163.4007153 1018.0078125 1163.4007153 1018.0078125 1146.00390625 c 128,-1,3
 1018.00927735 1128.6066189 1018.00927735 1128.6066189 1005.70907117 1116.30404187 c 128,-1,4
 993.408864999 1104.00146484 993.408864999 1104.00146484 976.01171875 1104 c 2,5,-1
 834 1103.98828125 l 1,6,-1
 834 41.986328125 l 2,7,8
 834 24.5891113281 834 24.5891113281 821.698608398 12.2877197266 c 128,-1,9
 809.397216797 -0.013671875 809.397216797 -0.013671875 792 -0.013671875 c 128,-1,10
 774.602783203 -0.013671875 774.602783203 -0.013671875 762.301391602 12.2877197266 c 128,-1,11
 750 24.5891113281 750 24.5891113281 750 41.986328125 c 2,12,-1
 750 1103.98242188 l 1,13,-1
 650 1103.97460938 l 1,14,-1
 650 42 l 2,15,16
 650 25 650 25 637.5 12.5 c 128,-1,17
 625 0 625 0 608 0 c 128,-1,18
 591 0 591 0 578.5 12.5 c 128,-1,19
 566 25 566 25 566 42 c 2,20,-1
 566 552.919921875 l 1,21,22
 399.007594334 560.221412764 399.007594334 560.221412764 306.796875 629.380859375 c 0,23,24
 198 710.978884113 198 710.978884113 198 869.9765625 c 128,-1,25
 198 1028.97276693 198 1028.97276693 306.796875 1110.57226562 c 0,26,27
 409.974168894 1187.9555855 409.974168894 1187.9555855 607.986328125 1187.97070312 c 2,28,-1
 976.00390625 1188 l 2,0,1
566 1102.9375 m 1,29,30
 427.281209673 1095.93639096 427.281209673 1095.93639096 357.197265625 1043.37304688 c 0,31,32
 282 986.974734686 282 986.974734686 282 869.9765625 c 128,-1,33
 282 752.978390314 282 752.978390314 357.197265625 696.580078125 c 0,34,35
 427.281209673 644.016734037 427.281209673 644.016734037 566 637.015625 c 1,36,-1
 566 1102.9375 l 1,29,30
EndSplineSet
EndChar

StartChar: germandbls
Encoding: 223 223 134
Width: 1229
GlyphClass: 2
Flags: W
LayerCount: 2
Fore
SplineSet
608.01171875 1187.98632812 m 128,-1,1
 806.012587584 1187.97423527 806.012587584 1187.97423527 909.2109375 1110.57617188 c 0,2,3
 1018.0078125 1028.97630473 1018.0078125 1028.97630473 1018.0078125 869.978515625 c 128,-1,4
 1018.0078125 710.980837238 1018.0078125 710.980837238 909.2109375 629.3828125 c 0,5,6
 882.038371519 609.003026235 882.038371519 609.003026235 848.564453125 593.98828125 c 1,7,8
 882.02657518 578.977138927 882.02657518 578.977138927 909.19140625 558.603515625 c 0,9,10
 1017.98828125 477.004016934 1017.98828125 477.004016934 1017.98828125 318.005859375 c 128,-1,11
 1017.98828125 159.055312269 1017.98828125 159.055312269 909.294921875 77.419921875 c 0,12,13
 806.214243868 0 806.214243868 0 608.6484375 0 c 2,14,-1
 424 0 l 2,15,16
 407 0 407 0 394.5 12.5 c 128,-1,17
 382 25 382 25 382 42 c 128,-1,18
 382 59 382 59 394.5 71.5 c 128,-1,19
 407 84 407 84 424 84 c 2,20,-1
 608.650390625 84 l 2,21,22
 778.17845361 83.9971717748 778.17845361 83.9971717748 858.849609375 144.5859375 c 0,23,24
 933.98828125 201.019483592 933.98828125 201.019483592 933.98828125 318.005859375 c 128,-1,25
 933.98828125 435.00562173 933.98828125 435.00562173 858.791015625 491.404296875 c 0,26,27
 778.043148916 551.965494786 778.043148916 551.965494786 608.009765625 551.986328125 c 2,28,-1
 424.74609375 552.001953125 l 2,29,30
 407.348947504 552.004150382 407.348947504 552.004150382 395.048741327 564.306727416 c 128,-1,31
 382.74853515 576.60930445 382.74853515 576.60930445 382.75 594.005859375 c 128,-1,32
 382.751464809 611.402668318 382.751464809 611.402668318 395.053873176 623.702310721 c 128,-1,33
 407.356281542 636.001953125 407.356281542 636.001953125 424.75390625 636.001953125 c 0,34,35
 524.708500211 635.985972407 524.708500211 635.985972407 608 636.001953125 c 0,36,37
 778.085005998 636.035326848 778.085005998 636.035326848 858.810546875 696.580078125 c 0,38,39
 934.0078125 752.978390314 934.0078125 752.978390314 934.0078125 869.9765625 c 128,-1,40
 934.0078125 986.974497041 934.0078125 986.974497041 858.80859375 1043.375 c 0,41,42
 778.008245889 1103.9764309 778.008245889 1103.9764309 608.0078125 1103.98632812 c 128,-1,43
 438.011627912 1103.99622519 438.011627912 1103.99622519 357.2109375 1043.3984375 c 0,44,45
 282.013100909 987.003689717 282.013100909 987.003689717 282.01171875 870.00390625 c 2,46,-1
 282 42 l 2,47,48
 282 25 282 25 269.5 12.5 c 128,-1,49
 257 0 257 0 240 0 c 128,-1,50
 223 0 223 0 210.5 12.5 c 128,-1,51
 198 25 198 25 198 42 c 2,52,-1
 198.01171875 870.005859375 l 2,53,54
 198.013251051 1029.00348904 198.013251051 1029.00348904 306.8125 1110.59960938 c 0,55,0
 410.01510938 1187.99842063 410.01510938 1187.99842063 608.01171875 1187.98632812 c 128,-1,1
EndSplineSet
EndChar

StartChar: registered
Encoding: 174 174 135
Width: 1229
GlyphClass: 2
Flags: W
LayerCount: 2
Fore
SplineSet
608 1004 m 132,-1,1
 719.118164062 1004 719.118164062 1004 813.59765625 949.037109375 c 132,-1,2
 908.076171875 894.07421875 908.076171875 894.07421875 963.04296875 799.599609375 c 132,-1,3
 1018.00976562 705.125 1018.00976562 705.125 1018.00976562 594.009765625 c 132,-1,4
 1018.00976562 482.89453125 1018.00976562 482.89453125 963.043945312 388.416992188 c 132,-1,5
 908.077148438 293.939453125 908.077148438 293.939453125 813.598632812 238.97265625 c 132,-1,6
 719.119140625 184.005859375 719.119140625 184.005859375 608 184.005859375 c 132,-1,7
 496.880859375 184.005859375 496.880859375 184.005859375 402.401367188 238.97265625 c 132,-1,8
 307.922851562 293.939453125 307.922851562 293.939453125 252.956054688 388.416992188 c 132,-1,9
 197.990234375 482.89453125 197.990234375 482.89453125 197.990234375 594.009765625 c 132,-1,10
 197.990234375 705.125 197.990234375 705.125 252.95703125 799.599609375 c 132,-1,11
 307.923828125 894.07421875 307.923828125 894.07421875 402.40234375 949.037109375 c 132,-1,0
 496.881835938 1004 496.881835938 1004 608 1004 c 132,-1,1
608 920 m 132,-1,13
 519.174804688 920 519.174804688 920 444.106445312 876.478515625 c 132,-1,14
 369.038085938 832.95703125 369.038085938 832.95703125 325.513671875 757.892578125 c 132,-1,15
 281.990234375 682.829101562 281.990234375 682.829101562 281.990234375 594.009765625 c 132,-1,16
 281.990234375 505.190429688 281.990234375 505.190429688 325.514648438 430.123046875 c 132,-1,17
 369.038085938 355.056640625 369.038085938 355.056640625 444.107421875 311.53125 c 132,-1,18
 519.176757812 268.005859375 519.176757812 268.005859375 608 268.005859375 c 132,-1,19
 696.823242188 268.005859375 696.823242188 268.005859375 771.892578125 311.53125 c 132,-1,20
 846.961914062 355.056640625 846.961914062 355.056640625 890.485351562 430.123046875 c 132,-1,21
 934.009765625 505.190429688 934.009765625 505.190429688 934.009765625 594.009765625 c 132,-1,22
 934.009765625 682.829101562 934.009765625 682.829101562 890.486328125 757.892578125 c 132,-1,23
 846.961914062 832.95703125 846.961914062 832.95703125 771.893554688 876.478515625 c 132,-1,12
 696.825195312 920 696.825195312 920 608 920 c 132,-1,13
482.333984375 824.5 m 6,24,-1
 608 824.5 l 6,25,26
 684.83203125 824.5 684.83203125 824.5 727.447265625 792.537109375 c 4,27,28
 775.662109375 756.374023438 775.662109375 756.374023438 775.662109375 688.251953125 c 4,29,30
 775.662109375 659.481445312 775.662109375 659.481445312 765.040039062 634.891601562 c 132,-1,31
 754.41796875 610.302734375 754.41796875 610.302734375 745.330078125 600.407226562 c 132,-1,32
 736.2421875 590.51171875 736.2421875 590.51171875 726.951171875 583.61328125 c 5,33,34
 732.736328125 576.861328125 732.736328125 576.861328125 737.1953125 570.171875 c 4,35,36
 775.666015625 512.46484375 775.666015625 512.46484375 775.666015625 405.5 c 4,37,38
 775.666015625 388.102539062 775.666015625 388.102539062 763.364257812 375.801757812 c 132,-1,39
 751.063476562 363.5 751.063476562 363.5 733.666015625 363.5 c 132,-1,40
 716.268554688 363.5 716.268554688 363.5 703.967773438 375.801757812 c 132,-1,41
 691.666015625 388.102539062 691.666015625 388.102539062 691.666015625 405.5 c 4,42,43
 691.666015625 487.037109375 691.666015625 487.037109375 667.3046875 523.578125 c 4,44,45
 656.775390625 539.37109375 656.775390625 539.37109375 643.958007812 545.685546875 c 132,-1,46
 631.139648438 552 631.139648438 552 608 552 c 6,47,-1
 524.333984375 552 l 5,48,-1
 524.333984375 405.5 l 6,49,50
 524.333984375 388.102539062 524.333984375 388.102539062 512.032226562 375.801757812 c 132,-1,51
 499.731445312 363.5 499.731445312 363.5 482.333984375 363.5 c 132,-1,52
 464.936523438 363.5 464.936523438 363.5 452.635742188 375.801757812 c 132,-1,53
 440.333984375 388.102539062 440.333984375 388.102539062 440.333984375 405.5 c 6,54,-1
 440.333984375 782.5 l 6,55,56
 440.3359375 799.896484375 440.3359375 799.896484375 452.63671875 812.197265625 c 132,-1,57
 464.9375 824.498046875 464.9375 824.498046875 482.333984375 824.5 c 6,24,-1
524.333984375 740.5 m 5,58,-1
 524.333984375 636.00390625 l 5,59,-1
 607.974609375 636.00390625 l 6,60,61
 656.831054688 636.00390625 656.831054688 636.00390625 677.046875 651.166015625 c 4,62,63
 691.662109375 662.126953125 691.662109375 662.126953125 691.662109375 688.251953125 c 132,-1,64
 691.662109375 714.376953125 691.662109375 714.376953125 677.046875 725.337890625 c 4,65,66
 656.831054688 740.5 656.831054688 740.5 608 740.5 c 6,67,-1
 524.333984375 740.5 l 5,58,-1
EndSplineSet
EndChar

StartChar: copyright
Encoding: 169 169 136
Width: 1229
GlyphClass: 2
Flags: W
LayerCount: 2
Fore
SplineSet
607.630859375 819.998046875 m 4,0,1
 671.182617188 820.556640625 671.182617188 820.556640625 730.23828125 791.227539062 c 132,-1,2
 789.29296875 761.8984375 789.29296875 761.8984375 826.14453125 710.453125 c 4,3,4
 836.275390625 696.309570312 836.275390625 696.309570312 833.438476562 679.146484375 c 132,-1,5
 830.6015625 661.982421875 830.6015625 661.982421875 816.458984375 651.8515625 c 132,-1,6
 802.31640625 641.720703125 802.31640625 641.720703125 785.15234375 644.557617188 c 132,-1,7
 767.98828125 647.39453125 767.98828125 647.39453125 757.857421875 661.537109375 c 4,8,9
 734.838867188 693.671875 734.838867188 693.671875 691.8515625 715.014648438 c 132,-1,10
 648.865234375 736.357421875 648.865234375 736.357421875 608.369140625 736.001953125 c 4,11,12
 548.758789062 735.478515625 548.758789062 735.478515625 507.375 694.296875 c 132,-1,13
 465.9921875 653.116210938 465.9921875 653.116210938 465.9921875 594.00390625 c 132,-1,14
 465.9921875 534.891601562 465.9921875 534.891601562 507.375976562 493.708984375 c 132,-1,15
 548.760742188 452.526367188 548.760742188 452.526367188 608.373046875 451.998046875 c 4,16,17
 648.8671875 451.638671875 648.8671875 451.638671875 691.852539062 472.979492188 c 132,-1,18
 734.838867188 494.3203125 734.838867188 494.3203125 757.857421875 526.455078125 c 4,19,20
 767.98828125 540.59765625 767.98828125 540.59765625 785.15234375 543.434570312 c 132,-1,21
 802.31640625 546.271484375 802.31640625 546.271484375 816.458984375 536.140625 c 132,-1,22
 830.6015625 526.009765625 830.6015625 526.009765625 833.438476562 508.845703125 c 132,-1,23
 836.275390625 491.682617188 836.275390625 491.682617188 826.14453125 477.5390625 c 4,24,25
 789.29296875 426.091796875 789.29296875 426.091796875 730.236328125 396.763671875 c 132,-1,26
 671.178710938 367.435546875 671.178710938 367.435546875 607.626953125 368 c 4,27,28
 514.490234375 368.827148438 514.490234375 368.827148438 448.241210938 434.911132812 c 132,-1,29
 381.9921875 500.995117188 381.9921875 500.995117188 381.9921875 594.00390625 c 132,-1,30
 381.9921875 687.013671875 381.9921875 687.013671875 448.243164062 753.096679688 c 132,-1,31
 514.493164062 819.1796875 514.493164062 819.1796875 607.630859375 819.998046875 c 4,0,1
608 1004 m 132,-1,33
 719.118164062 1004 719.118164062 1004 813.59765625 949.037109375 c 132,-1,34
 908.076171875 894.07421875 908.076171875 894.07421875 963.04296875 799.599609375 c 132,-1,35
 1018.00976562 705.125 1018.00976562 705.125 1018.00976562 594.009765625 c 132,-1,36
 1018.00976562 482.89453125 1018.00976562 482.89453125 963.043945312 388.416992188 c 132,-1,37
 908.077148438 293.939453125 908.077148438 293.939453125 813.598632812 238.97265625 c 132,-1,38
 719.119140625 184.005859375 719.119140625 184.005859375 608 184.005859375 c 132,-1,39
 496.880859375 184.005859375 496.880859375 184.005859375 402.401367188 238.97265625 c 132,-1,40
 307.922851562 293.939453125 307.922851562 293.939453125 252.956054688 388.416992188 c 132,-1,41
 197.990234375 482.89453125 197.990234375 482.89453125 197.990234375 594.009765625 c 132,-1,42
 197.990234375 705.125 197.990234375 705.125 252.95703125 799.599609375 c 132,-1,43
 307.923828125 894.07421875 307.923828125 894.07421875 402.40234375 949.037109375 c 132,-1,32
 496.881835938 1004 496.881835938 1004 608 1004 c 132,-1,33
608 920 m 132,-1,45
 519.174804688 920 519.174804688 920 444.106445312 876.478515625 c 132,-1,46
 369.038085938 832.95703125 369.038085938 832.95703125 325.513671875 757.892578125 c 132,-1,47
 281.990234375 682.829101562 281.990234375 682.829101562 281.990234375 594.009765625 c 132,-1,48
 281.990234375 505.190429688 281.990234375 505.190429688 325.514648438 430.123046875 c 132,-1,49
 369.038085938 355.056640625 369.038085938 355.056640625 444.107421875 311.53125 c 132,-1,50
 519.176757812 268.005859375 519.176757812 268.005859375 608 268.005859375 c 132,-1,51
 696.823242188 268.005859375 696.823242188 268.005859375 771.892578125 311.53125 c 132,-1,52
 846.961914062 355.056640625 846.961914062 355.056640625 890.485351562 430.123046875 c 132,-1,53
 934.009765625 505.190429688 934.009765625 505.190429688 934.009765625 594.009765625 c 132,-1,54
 934.009765625 682.829101562 934.009765625 682.829101562 890.486328125 757.892578125 c 132,-1,55
 846.961914062 832.95703125 846.961914062 832.95703125 771.893554688 876.478515625 c 132,-1,44
 696.825195312 920 696.825195312 920 608 920 c 132,-1,45
EndSplineSet
EndChar

StartChar: trademark
Encoding: 8482 8482 137
Width: 1229
GlyphClass: 2
Flags: W
LayerCount: 2
Fore
SplineSet
240 1188 m 2,0,-1
 516 1188 l 2,1,2
 533 1188 533 1188 545.5 1175.5 c 128,-1,3
 558 1163 558 1163 558 1146 c 128,-1,4
 558 1129 558 1129 545.5 1116.5 c 128,-1,5
 533 1104 533 1104 516 1104 c 2,6,-1
 420 1104 l 1,7,-1
 420 778 l 2,8,9
 420 761 420 761 407.5 748.5 c 128,-1,10
 395 736 395 736 378 736 c 128,-1,11
 361 736 361 736 348.5 748.5 c 128,-1,12
 336 761 336 761 336 778 c 2,13,-1
 336 1104 l 1,14,-1
 240 1104 l 2,15,16
 223 1104 223 1104 210.5 1116.5 c 128,-1,17
 198 1129 198 1129 198 1146 c 128,-1,18
 198 1163 198 1163 210.5 1175.5 c 128,-1,19
 223 1188 223 1188 240 1188 c 2,0,-1
974.94140625 1187.97460938 m 0,20,21
 975.456271701 1187.98730469 975.456271701 1187.98730469 975.99609375 1187.98730469 c 0,22,23
 993.378389504 1187.98730469 993.378389504 1187.98730469 1005.6858988 1175.68434041 c 128,-1,24
 1017.9934081 1163.38137612 1017.9934081 1163.38137612 1018 1146 c 2,25,-1
 1018 778 l 2,26,27
 1018 761 1018 761 1005.5 748.5 c 128,-1,28
 993 736 993 736 976 736 c 128,-1,29
 959 736 959 736 946.5 748.5 c 128,-1,30
 934 761 934 761 934 778 c 2,31,-1
 934 1007.28515625 l 1,32,33
 872.995019531 915.703125 872.995019531 915.703125 872.9453125 915.703125 c 0,34,35
 860.446961637 896.962890625 860.446961637 896.962890625 838.025390625 896.962890625 c 128,-1,36
 815.553038363 896.962890625 815.553038363 896.962890625 803.0546875 915.703125 c 2,37,-1
 742 1007.28515625 l 1,38,-1
 742 778 l 2,39,40
 742 761 742 761 729.5 748.5 c 128,-1,41
 717 736 717 736 700 736 c 128,-1,42
 683 736 683 736 670.5 748.5 c 128,-1,43
 658 761 658 761 658 778 c 0,44,45
 658 801 658 801 658 839 c 128,-1,46
 658 877 658 877 658 958 c 128,-1,47
 658 1039 658 1039 658 1092.5 c 2,48,-1
 658 1146 l 2,49,50
 658.005860918 1163.38641333 658.005860918 1163.38641333 670.294034097 1175.68881213 c 128,-1,51
 682.582207276 1187.99121094 682.582207276 1187.99121094 699.9609375 1187.99121094 c 0,52,53
 702.757574314 1187.99121094 702.757574314 1187.99121094 705.51171875 1187.62695312 c 0,54,55
 724.381616295 1185.13141218 724.381616295 1185.13141218 734.9453125 1169.296875 c 2,56,-1
 838 1014.71484375 l 1,57,58
 941.047864966 1169.25496515 941.047864966 1169.25496515 941.0546875 1169.296875 c 0,59,60
 953.151869352 1187.42817747 953.151869352 1187.42817747 974.94140625 1187.97460938 c 0,20,21
EndSplineSet
EndChar

StartChar: acute
Encoding: 180 180 138
Width: 1229
GlyphClass: 2
Flags: W
LayerCount: 2
Fore
SplineSet
789.0234375 1187.89453125 m 0,0,1
 817.016131177 1189.88375327 817.016131177 1189.88375327 829.56640625 1164.78320312 c 0,2,3
 837.346788915 1149.22283293 837.346788915 1149.22283293 831.845214844 1132.71850586 c 128,-1,4
 826.343640772 1116.21417879 826.343640772 1116.21417879 810.783203125 1108.43359375 c 2,5,-1
 442.783203125 924.43359375 l 2,6,7
 427.222832931 916.653211085 427.222832931 916.653211085 410.718505859 922.154785156 c 128,-1,8
 394.214178788 927.656359228 394.214178788 927.656359228 386.43359375 943.216796875 c 128,-1,9
 378.653211085 958.777167069 378.653211085 958.777167069 384.154785156 975.281494141 c 128,-1,10
 389.656359228 991.785821212 389.656359228 991.785821212 405.216796875 999.56640625 c 2,11,-1
 773.216796875 1183.56640625 l 2,12,13
 780.689697165 1187.30285639 780.689697165 1187.30285639 789.0234375 1187.89453125 c 0,0,1
EndSplineSet
EndChar

StartChar: dieresis
Encoding: 168 168 139
Width: 1229
GlyphClass: 2
Flags: W
LayerCount: 2
Fore
SplineSet
482 1147 m 256,0,1
 482 1113 482 1113 458 1089.5 c 128,-1,2
 434 1066 434 1066 400 1066 c 0,3,4
 367 1066 367 1066 343 1090 c 128,-1,5
 319 1114 319 1114 319 1147 c 0,6,7
 319 1181 319 1181 343 1205 c 128,-1,8
 367 1229 367 1229 400 1229 c 0,9,10
 434 1229 434 1229 458 1205 c 128,-1,11
 482 1181 482 1181 482 1147 c 256,0,1
911 1147 m 256,12,13
 911 1113 911 1113 887 1089.5 c 128,-1,14
 863 1066 863 1066 829 1066 c 256,15,16
 795 1066 795 1066 771.5 1090 c 128,-1,17
 748 1114 748 1114 748 1147 c 0,18,19
 748 1181 748 1181 771.5 1205 c 128,-1,20
 795 1229 795 1229 829 1229 c 256,21,22
 863 1229 863 1229 887 1205 c 128,-1,23
 911 1181 911 1181 911 1147 c 256,12,13
EndSplineSet
Validated: 1
EndChar

